G04*
G04 #@! TF.GenerationSoftware,Altium Limited,Altium Designer,19.1.7 (138)*
G04*
G04 Layer_Physical_Order=3*
G04 Layer_Color=128*
%FSLAX25Y25*%
%MOIN*%
G70*
G01*
G75*
%ADD15C,0.01000*%
%ADD51C,0.04000*%
%ADD52C,0.07543*%
G04:AMPARAMS|DCode=53|XSize=95.433mil|YSize=95.433mil|CornerRadius=0mil|HoleSize=0mil|Usage=FLASHONLY|Rotation=0.000|XOffset=0mil|YOffset=0mil|HoleType=Round|Shape=Relief|Width=10mil|Gap=10mil|Entries=4|*
%AMTHD53*
7,0,0,0.09543,0.07543,0.01000,45*
%
%ADD53THD53*%
%ADD54C,0.06500*%
%ADD55C,0.06000*%
%ADD56C,0.05600*%
G04:AMPARAMS|DCode=57|XSize=76mil|YSize=76mil|CornerRadius=0mil|HoleSize=0mil|Usage=FLASHONLY|Rotation=0.000|XOffset=0mil|YOffset=0mil|HoleType=Round|Shape=Relief|Width=10mil|Gap=10mil|Entries=4|*
%AMTHD57*
7,0,0,0.07600,0.05600,0.01000,45*
%
%ADD57THD57*%
%ADD58C,0.05200*%
G04:AMPARAMS|DCode=59|XSize=88mil|YSize=88mil|CornerRadius=0mil|HoleSize=0mil|Usage=FLASHONLY|Rotation=0.000|XOffset=0mil|YOffset=0mil|HoleType=Round|Shape=Relief|Width=10mil|Gap=10mil|Entries=4|*
%AMTHD59*
7,0,0,0.08800,0.06800,0.01000,45*
%
%ADD59THD59*%
%ADD60C,0.06800*%
G04:AMPARAMS|DCode=61|XSize=80mil|YSize=80mil|CornerRadius=0mil|HoleSize=0mil|Usage=FLASHONLY|Rotation=0.000|XOffset=0mil|YOffset=0mil|HoleType=Round|Shape=Relief|Width=10mil|Gap=10mil|Entries=4|*
%AMTHD61*
7,0,0,0.08000,0.06000,0.01000,45*
%
%ADD61THD61*%
D15*
X137900Y204021D02*
Y204300D01*
X133600D02*
X137900D01*
X205600Y92149D02*
X207449Y90300D01*
X257200D01*
X199200Y38000D02*
Y82051D01*
X166200Y111000D02*
X195100Y82100D01*
X199500D01*
X128800Y179500D02*
X140600Y167700D01*
X128800Y179500D02*
Y199500D01*
X133600Y204300D01*
X137900Y189000D02*
Y204021D01*
X138000Y183000D02*
Y190700D01*
Y183000D02*
X143800Y177200D01*
X167400D01*
X175500Y169100D01*
Y160600D02*
Y169100D01*
Y160600D02*
X184000Y152100D01*
Y113400D02*
Y152100D01*
Y113400D02*
X205600Y91800D01*
Y92149D01*
X112500Y137000D02*
X114100D01*
X110100Y134600D02*
X110700Y135200D01*
X112500Y137000D01*
X104500Y129000D02*
X106900Y131400D01*
X161600Y400D02*
Y1121D01*
X161500Y300D02*
X161600Y400D01*
X161500Y300D02*
X254789D01*
X260106Y5618D01*
Y87384D01*
X257700Y89790D02*
X260106Y87384D01*
X256979Y89790D02*
X257700D01*
X108100Y300D02*
X161500D01*
X106200Y2200D02*
X108100Y300D01*
X106200Y2200D02*
Y32900D01*
Y88600D01*
X104500Y90300D02*
X106200Y88600D01*
X104500Y90300D02*
Y129000D01*
X106900Y131400D02*
X110100Y134600D01*
X114100Y137000D02*
X137200D01*
X137800Y136400D01*
Y118100D02*
Y136400D01*
X135400Y115700D02*
X137800Y118100D01*
X127200Y115700D02*
X135400D01*
X117200Y105700D02*
X127200Y115700D01*
X117200Y46300D02*
Y105700D01*
Y46300D02*
X129100Y34400D01*
X195600D01*
X199200Y38000D01*
Y38600D01*
X138490Y142890D02*
X143690D01*
X143700Y111700D02*
Y142900D01*
Y111700D02*
X149500Y105900D01*
X161300D01*
X167300Y111900D01*
Y145100D01*
Y163800D01*
X163400Y167700D02*
X167300Y163800D01*
X141000Y167700D02*
X163400D01*
X116840D02*
Y193640D01*
X116800Y167700D02*
X127700D01*
X116479Y194000D02*
X116840Y193640D01*
X81300Y194000D02*
X116479D01*
X105500Y143400D02*
X106010Y142890D01*
X117200D01*
X122523D01*
X133168D02*
X138490D01*
X127700Y167700D02*
X141000D01*
X122523Y142890D02*
X133168D01*
X81200Y194000D02*
Y244300D01*
X81560Y181800D02*
X105500D01*
Y143400D02*
Y181800D01*
X2200Y182300D02*
X2700Y181800D01*
X17700D01*
X34200D02*
X50700D01*
X17700D02*
X34200D01*
X50700D02*
X81200D01*
X1894Y182765D02*
Y239967D01*
X6227Y244300D01*
X81200D01*
X257003Y90487D02*
X260106Y87384D01*
Y4801D02*
Y87384D01*
X255605Y300D02*
X260106Y4801D01*
X197200Y300D02*
X255605D01*
D51*
X6101Y-58D02*
X254437Y-58D01*
X-168Y239290D02*
X-168Y6190D01*
X260259Y239332D02*
X260259Y6143D01*
X260150Y4801D02*
X260259Y6143D01*
X259746Y3517D02*
X260150Y4801D01*
X259065Y2354D02*
X259746Y3517D01*
X258143Y1372D02*
X259065Y2354D01*
X257026Y620D02*
X258143Y1372D01*
X255770Y135D02*
X257026Y620D01*
X254437Y-58D02*
X255770Y135D01*
X4708Y97D02*
X6101Y-58D01*
X3385Y557D02*
X4708Y97D01*
X2197Y1301D02*
X3385Y557D01*
X1204Y2290D02*
X2197Y1301D01*
X457Y3476D02*
X1204Y2290D01*
X-8Y4798D02*
X457Y3476D01*
X-168Y6190D02*
X-8Y4798D01*
X-168Y239290D02*
X-15Y240643D01*
X434Y241928D01*
X1158Y243080D01*
X2121Y244043D01*
X3273Y244767D01*
X4558Y245216D01*
X5911Y245369D01*
X254130Y245369D01*
X255485Y245226D01*
X256774Y244786D01*
X257933Y244070D01*
X258903Y243114D01*
X259636Y241967D01*
X260096Y240684D01*
X260259Y239332D01*
D52*
X225200Y10300D02*
D03*
X215200D02*
D03*
X205200D02*
D03*
X195200D02*
D03*
X185200D02*
D03*
X175200D02*
D03*
X165200D02*
D03*
X155200D02*
D03*
X145200D02*
D03*
X135200D02*
D03*
X125200D02*
D03*
X115200D02*
D03*
X105200D02*
D03*
X95200D02*
D03*
X85200D02*
D03*
X75200D02*
D03*
X65200D02*
D03*
X55200D02*
D03*
X250031Y140150D02*
D03*
Y150150D02*
D03*
X240031D02*
D03*
X250031Y160150D02*
D03*
X240031D02*
D03*
X250031Y170150D02*
D03*
X240031D02*
D03*
X250031Y180150D02*
D03*
X240031D02*
D03*
X250031Y190150D02*
D03*
X240031D02*
D03*
X250031Y200150D02*
D03*
X240031D02*
D03*
X55200Y222300D02*
D03*
X65200D02*
D03*
X75200D02*
D03*
X85200D02*
D03*
X95200D02*
D03*
X105200D02*
D03*
X115200D02*
D03*
X125200D02*
D03*
X135200D02*
D03*
X145200D02*
D03*
X155200D02*
D03*
X165200D02*
D03*
X175200D02*
D03*
X185200D02*
D03*
X195200D02*
D03*
X205200D02*
D03*
X215200D02*
D03*
X225200D02*
D03*
X35031Y234150D02*
D03*
X45031D02*
D03*
X55031D02*
D03*
X65031D02*
D03*
X75031D02*
D03*
X85031D02*
D03*
X95031D02*
D03*
X105031D02*
D03*
X115031D02*
D03*
X125031D02*
D03*
X135031D02*
D03*
X145031D02*
D03*
X155031D02*
D03*
X165031D02*
D03*
X175031D02*
D03*
X185031D02*
D03*
X195031D02*
D03*
X205031D02*
D03*
X215031D02*
D03*
X225031D02*
D03*
X225200Y22300D02*
D03*
X215200D02*
D03*
X205200D02*
D03*
X195200D02*
D03*
X185200D02*
D03*
X175200D02*
D03*
X165200D02*
D03*
X155200D02*
D03*
X145200D02*
D03*
X135200D02*
D03*
X125200D02*
D03*
X115200D02*
D03*
X105200D02*
D03*
X95200D02*
D03*
X85200D02*
D03*
X75200D02*
D03*
X65200D02*
D03*
X55200D02*
D03*
X45200D02*
D03*
X35200D02*
D03*
D53*
X45200Y10300D02*
D03*
X35200D02*
D03*
X240031Y140150D02*
D03*
X35200Y222300D02*
D03*
X45200D02*
D03*
D54*
X74700Y201800D02*
D03*
X87900D02*
D03*
D55*
X96498Y131100D02*
D03*
X165421Y132624D02*
D03*
X165645Y126748D02*
D03*
X109800Y147200D02*
D03*
X119721Y95524D02*
D03*
X164121Y100624D02*
D03*
X96521Y104424D02*
D03*
X119500Y157400D02*
D03*
X64900Y117800D02*
D03*
X137600Y106100D02*
D03*
X198600Y165100D02*
D03*
X182417Y192217D02*
D03*
X66200Y89300D02*
D03*
X15200Y169300D02*
D03*
D56*
X185500Y109400D02*
D03*
X123300Y120800D02*
D03*
X181621Y176724D02*
D03*
X155264Y59873D02*
D03*
X40264Y143373D02*
D03*
X96164Y80773D02*
D03*
X32264Y143373D02*
D03*
X48264Y142373D02*
D03*
X141264Y67373D02*
D03*
X65264Y142373D02*
D03*
X35264Y138373D02*
D03*
X177621Y90324D02*
D03*
X141264Y77773D02*
D03*
X163264Y67373D02*
D03*
X60014Y138373D02*
D03*
X169264Y67373D02*
D03*
X43264Y138373D02*
D03*
X155264Y67373D02*
D03*
X52264Y138373D02*
D03*
X56264Y142373D02*
D03*
X68764Y138373D02*
D03*
X153264Y78373D02*
D03*
X148264Y67373D02*
D03*
X222700Y147100D02*
D03*
X81500Y129100D02*
D03*
X201400Y148100D02*
D03*
X65300Y79400D02*
D03*
X217600Y149000D02*
D03*
X211200Y147300D02*
D03*
X206200Y109300D02*
D03*
X198200D02*
D03*
D57*
X167500Y192200D02*
D03*
X203400Y153900D02*
D03*
X207100Y172200D02*
D03*
D58*
X144500Y147400D02*
D03*
X154664Y184073D02*
D03*
X165821Y161424D02*
D03*
X160421Y144924D02*
D03*
X157764Y189973D02*
D03*
X160664Y183773D02*
D03*
X202743Y199908D02*
D03*
X149818Y145274D02*
D03*
X146043Y152449D02*
D03*
X149064Y184573D02*
D03*
X146064Y189673D02*
D03*
X143064Y178873D02*
D03*
X143364Y184173D02*
D03*
X151964Y189873D02*
D03*
X175443Y183449D02*
D03*
D59*
X126321Y96900D02*
D03*
X133021Y195724D02*
D03*
X96321Y153124D02*
D03*
X123021Y181824D02*
D03*
X125100Y189300D02*
D03*
X222100Y98000D02*
D03*
X132100Y125200D02*
D03*
X157300Y111300D02*
D03*
D03*
X194200Y62300D02*
D03*
X89200Y57300D02*
D03*
X24200Y137300D02*
D03*
X69556Y189600D02*
D03*
X45200Y195300D02*
D03*
X230200Y64300D02*
D03*
D60*
X141250Y139050D02*
D03*
X158700Y163000D02*
D03*
X96521Y161224D02*
D03*
X238200Y101300D02*
D03*
X184200Y62300D02*
D03*
X16200Y191300D02*
D03*
X246200Y64300D02*
D03*
D61*
X99100Y116400D02*
D03*
X149500Y95666D02*
D03*
X95981Y124850D02*
D03*
X112500Y124100D02*
D03*
X159321Y94524D02*
D03*
X181100Y165000D02*
D03*
X114100Y114800D02*
D03*
X100000Y96800D02*
D03*
X126321Y96900D02*
D03*
X162300Y151900D02*
D03*
X79264Y90373D02*
D03*
X94700Y137100D02*
D03*
X95200Y143000D02*
D03*
X108500Y163700D02*
D03*
X145421Y158624D02*
D03*
X135043Y164949D02*
D03*
X164321Y117124D02*
D03*
X79221Y109824D02*
D03*
X119543Y164849D02*
D03*
X134600Y156900D02*
D03*
X102450Y147650D02*
D03*
X113600Y100100D02*
D03*
X137600Y97800D02*
D03*
X154900Y152900D02*
D03*
X199450Y192150D02*
D03*
X215200Y192300D02*
D03*
X65200Y104300D02*
D03*
X21200Y73300D02*
D03*
X47135Y173365D02*
D03*
X191200Y143300D02*
D03*
X217200Y109300D02*
D03*
M02*
