G04*
G04 #@! TF.GenerationSoftware,Altium Limited,Altium Designer,19.1.7 (138)*
G04*
G04 Layer_Color=128*
%FSLAX25Y25*%
%MOIN*%
G70*
G01*
G75*
%ADD73C,0.00200*%
D73*
X98100Y116400D02*
X100100D01*
X99100Y115400D02*
Y117400D01*
X111500Y124100D02*
X113500D01*
X112500Y123100D02*
Y125100D01*
X180100Y165000D02*
X182100D01*
X181100Y164000D02*
Y166000D01*
X139850Y139050D02*
X142650D01*
X141250Y137650D02*
Y140450D01*
X113100Y114800D02*
X115100D01*
X114100Y113800D02*
Y115800D01*
X125321Y96900D02*
X127321D01*
X126321Y95900D02*
Y97900D01*
X94200Y143000D02*
X96200D01*
X95200Y142000D02*
Y144000D01*
X107500Y163700D02*
X109500D01*
X108500Y162700D02*
Y164700D01*
X133600Y156900D02*
X135600D01*
X134600Y155900D02*
Y157900D01*
X123700Y189300D02*
X126500D01*
X125100Y187900D02*
Y190700D01*
X220700Y98000D02*
X223500D01*
X222100Y96600D02*
Y99400D01*
X166700Y192200D02*
X168300D01*
X167500Y191400D02*
Y193000D01*
X202600Y153900D02*
X204200D01*
X203400Y153100D02*
Y154700D01*
X206300Y172200D02*
X207900D01*
X207100Y171400D02*
Y173000D01*
X130700Y125200D02*
X133500D01*
X132100Y123800D02*
Y126600D01*
X101450Y147650D02*
X103450D01*
X102450Y146650D02*
Y148650D01*
X112600Y100100D02*
X114600D01*
X113600Y99100D02*
Y101100D01*
X136600Y97800D02*
X138600D01*
X137600Y96800D02*
Y98800D01*
X155900Y111300D02*
X158700D01*
X157300Y109900D02*
Y112700D01*
X153900Y152900D02*
X155900D01*
X154900Y151900D02*
Y153900D01*
X198450Y192150D02*
X200450D01*
X199450Y191150D02*
Y193150D01*
X214200Y192300D02*
X216200D01*
X215200Y191300D02*
Y193300D01*
X192800Y62300D02*
X195600D01*
X194200Y60900D02*
Y63700D01*
X64200Y104300D02*
X66200D01*
X65200Y103300D02*
Y105300D01*
X46135Y173365D02*
X48135D01*
X47135Y172365D02*
Y174365D01*
X43800Y195300D02*
X46600D01*
X45200Y193900D02*
Y196700D01*
X228800Y64300D02*
X231600D01*
X230200Y62900D02*
Y65700D01*
M02*
