G04*
G04 #@! TF.GenerationSoftware,Altium Limited,Altium Designer,19.1.7 (138)*
G04*
G04 Layer_Color=128*
%FSLAX25Y25*%
%MOIN*%
G70*
G01*
G75*
%ADD73C,0.00200*%
D73*
X157300Y163000D02*
X160100D01*
X158700Y161600D02*
Y164400D01*
X65900Y130500D02*
X67900D01*
X66900Y129500D02*
Y131500D01*
X125721Y77324D02*
X128521D01*
X127121Y75924D02*
Y78724D01*
X122421Y150224D02*
X124421D01*
X123421Y149224D02*
Y151224D01*
X180121Y99374D02*
X182921D01*
X181521Y97974D02*
Y100774D01*
X105121Y103324D02*
X107121D01*
X106121Y102324D02*
Y104324D01*
X172221Y73824D02*
X175021D01*
X173621Y72424D02*
Y75224D01*
X72821Y117424D02*
X75621D01*
X74221Y116024D02*
Y118824D01*
X180421Y135824D02*
X183221D01*
X181821Y134424D02*
Y137224D01*
X205800Y165600D02*
X207800D01*
X206800Y164600D02*
Y166600D01*
X23200Y32300D02*
X25200D01*
X24200Y31300D02*
Y33300D01*
X55800Y173300D02*
X58600D01*
X57200Y171900D02*
Y174700D01*
X22800Y121300D02*
X25600D01*
X24200Y119900D02*
Y122700D01*
X224200Y117800D02*
X226200D01*
X225200Y116800D02*
Y118800D01*
M02*
