G04*
G04 #@! TF.GenerationSoftware,Altium Limited,Altium Designer,19.1.7 (138)*
G04*
G04 Layer_Color=128*
%FSLAX25Y25*%
%MOIN*%
G70*
G01*
G75*
%ADD16R,0.02461X0.01575*%
%ADD17R,0.01575X0.02461*%
%ADD19R,0.01968X0.02362*%
%ADD62R,0.04528X0.02362*%
%ADD63R,0.02362X0.01968*%
%ADD64R,0.03150X0.00591*%
%ADD65R,0.12598X0.06890*%
%ADD66R,0.03740X0.06890*%
D16*
X223278Y177000D02*
D03*
X226522D02*
D03*
X236578Y70300D02*
D03*
X239822D02*
D03*
X226144Y184400D02*
D03*
X222900D02*
D03*
X178478Y171700D02*
D03*
X181722D02*
D03*
X208822Y195300D02*
D03*
X205578D02*
D03*
X208944Y188300D02*
D03*
X205700D02*
D03*
X172278Y190700D02*
D03*
X175522D02*
D03*
X172078Y194700D02*
D03*
X175322D02*
D03*
X202722Y158800D02*
D03*
X199478D02*
D03*
X202122Y171400D02*
D03*
X198878D02*
D03*
X221678Y152800D02*
D03*
X224922D02*
D03*
X212700D02*
D03*
X209456D02*
D03*
D17*
X179800Y158122D02*
D03*
Y154878D02*
D03*
X211700Y101922D02*
D03*
Y98678D02*
D03*
X197500Y102022D02*
D03*
Y98778D02*
D03*
D19*
X131100Y98631D02*
D03*
Y102569D02*
D03*
X125500Y161031D02*
D03*
Y164969D02*
D03*
X144600Y101169D02*
D03*
Y97232D02*
D03*
X154300Y100569D02*
D03*
Y96631D02*
D03*
X120700Y104237D02*
D03*
Y100300D02*
D03*
X113600Y160532D02*
D03*
Y164469D02*
D03*
X129800Y160832D02*
D03*
Y164769D02*
D03*
X139800Y158663D02*
D03*
Y162600D02*
D03*
X102500Y156469D02*
D03*
Y152531D02*
D03*
D62*
X35629Y195300D02*
D03*
X26771Y199040D02*
D03*
Y191560D02*
D03*
X35200Y173300D02*
D03*
X26342Y177040D02*
D03*
Y169560D02*
D03*
D63*
X101732Y133600D02*
D03*
X105668D02*
D03*
X155332Y137100D02*
D03*
X159268D02*
D03*
X155431Y131800D02*
D03*
X159369D02*
D03*
X73263Y101300D02*
D03*
X77200D02*
D03*
X73232Y96300D02*
D03*
X77169D02*
D03*
X103269Y120800D02*
D03*
X99331D02*
D03*
X105269Y124500D02*
D03*
X101331D02*
D03*
X156832Y124100D02*
D03*
X160769D02*
D03*
X101469Y109700D02*
D03*
X97531D02*
D03*
X105269Y130100D02*
D03*
X101331D02*
D03*
X156132Y105000D02*
D03*
X160069D02*
D03*
X158031Y157000D02*
D03*
X161969D02*
D03*
X155332Y117500D02*
D03*
X159268D02*
D03*
X68231Y111300D02*
D03*
X72169D02*
D03*
X105871Y137166D02*
D03*
X101934D02*
D03*
X236168Y59300D02*
D03*
X240105D02*
D03*
X195169Y53300D02*
D03*
X191232D02*
D03*
D64*
X188163Y166478D02*
D03*
Y165100D02*
D03*
Y163722D02*
D03*
X192100D02*
D03*
Y165100D02*
D03*
Y166478D02*
D03*
X192369Y190922D02*
D03*
Y192300D02*
D03*
Y193678D02*
D03*
X188432D02*
D03*
Y192300D02*
D03*
Y190922D02*
D03*
D65*
X212200Y70702D02*
D03*
D66*
X203145Y45898D02*
D03*
X212200D02*
D03*
X221255D02*
D03*
M02*
