G04*
G04 #@! TF.GenerationSoftware,Altium Limited,Altium Designer,19.1.7 (138)*
G04*
G04 Layer_Color=8388736*
%FSLAX25Y25*%
%MOIN*%
G70*
G01*
G75*
%ADD26R,0.03261X0.02375*%
%ADD27R,0.02375X0.03261*%
%ADD28R,0.04737X0.07099*%
%ADD29R,0.02769X0.03162*%
%ADD30R,0.03359X0.06804*%
%ADD31R,0.08674X0.03950*%
%ADD32R,0.06706X0.07099*%
%ADD33R,0.06607X0.01981*%
%ADD34R,0.01981X0.06607*%
%ADD35R,0.06706X0.06706*%
%ADD36C,0.06706*%
%ADD37R,0.06706X0.06706*%
%ADD38C,0.05800*%
%ADD39C,0.04800*%
%ADD40C,0.03200*%
D26*
X231322Y81300D02*
D03*
X228078D02*
D03*
X28822Y147300D02*
D03*
X25578D02*
D03*
X25578Y56300D02*
D03*
X28822D02*
D03*
X72822Y167300D02*
D03*
X69578D02*
D03*
X72822Y172300D02*
D03*
X69578D02*
D03*
X24578Y88300D02*
D03*
X27822D02*
D03*
X230622Y145700D02*
D03*
X227378D02*
D03*
D27*
X30200Y72922D02*
D03*
Y69678D02*
D03*
X79200Y123922D02*
D03*
Y120678D02*
D03*
X78000Y134678D02*
D03*
Y137922D02*
D03*
X193700Y154778D02*
D03*
Y158022D02*
D03*
X94200Y75922D02*
D03*
Y72678D02*
D03*
D28*
X13200Y108300D02*
D03*
Y88300D02*
D03*
D29*
X28200Y39300D02*
D03*
Y43237D02*
D03*
D30*
X201200Y118123D02*
D03*
X206200D02*
D03*
X211200D02*
D03*
X216200D02*
D03*
Y139477D02*
D03*
X211200D02*
D03*
X206200D02*
D03*
X201200D02*
D03*
D31*
X13200Y56568D02*
D03*
Y40032D02*
D03*
D32*
X215900Y170521D02*
D03*
X225900D02*
D03*
Y160679D02*
D03*
X215900D02*
D03*
D33*
X88046Y164073D02*
D03*
Y162105D02*
D03*
Y160136D02*
D03*
Y158168D02*
D03*
Y156199D02*
D03*
Y154231D02*
D03*
Y152262D02*
D03*
Y150294D02*
D03*
Y148325D02*
D03*
Y146357D02*
D03*
Y144388D02*
D03*
Y142420D02*
D03*
Y140451D02*
D03*
Y138483D02*
D03*
Y136514D02*
D03*
Y134546D02*
D03*
Y132577D02*
D03*
Y130609D02*
D03*
Y128640D02*
D03*
Y126672D02*
D03*
Y124703D02*
D03*
Y122735D02*
D03*
Y120766D02*
D03*
Y118798D02*
D03*
Y116829D02*
D03*
Y114861D02*
D03*
Y112892D02*
D03*
Y110924D02*
D03*
Y108955D02*
D03*
Y106987D02*
D03*
Y105018D02*
D03*
Y103050D02*
D03*
Y101081D02*
D03*
Y99113D02*
D03*
Y97144D02*
D03*
Y95176D02*
D03*
X172597D02*
D03*
Y97144D02*
D03*
Y99113D02*
D03*
Y101081D02*
D03*
Y103050D02*
D03*
Y105018D02*
D03*
Y106987D02*
D03*
Y108955D02*
D03*
Y110924D02*
D03*
Y112892D02*
D03*
Y114861D02*
D03*
Y116829D02*
D03*
Y118798D02*
D03*
Y120766D02*
D03*
Y122735D02*
D03*
Y124703D02*
D03*
Y126672D02*
D03*
Y128640D02*
D03*
Y130609D02*
D03*
Y132577D02*
D03*
Y134546D02*
D03*
Y136514D02*
D03*
Y138483D02*
D03*
Y140451D02*
D03*
Y142420D02*
D03*
Y144388D02*
D03*
Y146357D02*
D03*
Y148325D02*
D03*
Y150294D02*
D03*
Y152262D02*
D03*
Y154231D02*
D03*
Y156199D02*
D03*
Y158168D02*
D03*
Y160136D02*
D03*
Y162105D02*
D03*
Y164073D02*
D03*
D34*
X95872Y87349D02*
D03*
X97841D02*
D03*
X99809D02*
D03*
X101778D02*
D03*
X103746D02*
D03*
X105715D02*
D03*
X107684D02*
D03*
X109652D02*
D03*
X111620D02*
D03*
X113589D02*
D03*
X115558D02*
D03*
X117526D02*
D03*
X119494D02*
D03*
X121463D02*
D03*
X123432D02*
D03*
X125400D02*
D03*
X127368D02*
D03*
X129337D02*
D03*
X131306D02*
D03*
X133274D02*
D03*
X135242D02*
D03*
X137211D02*
D03*
X139180D02*
D03*
X141148D02*
D03*
X143116D02*
D03*
X145085D02*
D03*
X147054D02*
D03*
X149022D02*
D03*
X150991D02*
D03*
X152959D02*
D03*
X154928D02*
D03*
X156896D02*
D03*
X158865D02*
D03*
X160833D02*
D03*
X162802D02*
D03*
X164770D02*
D03*
Y171900D02*
D03*
X162802D02*
D03*
X160833D02*
D03*
X158865D02*
D03*
X156896D02*
D03*
X154928D02*
D03*
X152959D02*
D03*
X150991D02*
D03*
X149022D02*
D03*
X147054D02*
D03*
X145085D02*
D03*
X143116D02*
D03*
X141148D02*
D03*
X139180D02*
D03*
X137211D02*
D03*
X135242D02*
D03*
X133274D02*
D03*
X131306D02*
D03*
X129337D02*
D03*
X127368D02*
D03*
X125400D02*
D03*
X123432D02*
D03*
X121463D02*
D03*
X119494D02*
D03*
X117526D02*
D03*
X115558D02*
D03*
X113589D02*
D03*
X111620D02*
D03*
X109652D02*
D03*
X107684D02*
D03*
X105715D02*
D03*
X103746D02*
D03*
X101778D02*
D03*
X99809D02*
D03*
X97841D02*
D03*
X95872D02*
D03*
D35*
X249200Y81410D02*
D03*
Y95190D02*
D03*
X13200Y147190D02*
D03*
Y133410D02*
D03*
X250031Y140150D02*
D03*
D36*
X225200Y10300D02*
D03*
X215200D02*
D03*
X205200D02*
D03*
X195200D02*
D03*
X185200D02*
D03*
X175200D02*
D03*
X165200D02*
D03*
X155200D02*
D03*
X145200D02*
D03*
X135200D02*
D03*
X125200D02*
D03*
X115200D02*
D03*
X105200D02*
D03*
X95200D02*
D03*
X85200D02*
D03*
X75200D02*
D03*
X65200D02*
D03*
X55200D02*
D03*
X45200D02*
D03*
X240031Y140150D02*
D03*
X250031Y150150D02*
D03*
X240031D02*
D03*
X250031Y160150D02*
D03*
X240031D02*
D03*
X250031Y170150D02*
D03*
X240031D02*
D03*
X250031Y180150D02*
D03*
X240031D02*
D03*
X250031Y190150D02*
D03*
X240031D02*
D03*
X250031Y200150D02*
D03*
X240031D02*
D03*
X45200Y222300D02*
D03*
X55200D02*
D03*
X65200D02*
D03*
X75200D02*
D03*
X85200D02*
D03*
X95200D02*
D03*
X105200D02*
D03*
X115200D02*
D03*
X125200D02*
D03*
X135200D02*
D03*
X145200D02*
D03*
X155200D02*
D03*
X165200D02*
D03*
X175200D02*
D03*
X185200D02*
D03*
X195200D02*
D03*
X205200D02*
D03*
X215200D02*
D03*
X225200D02*
D03*
X45031Y234150D02*
D03*
X55031D02*
D03*
X65031D02*
D03*
X75031D02*
D03*
X85031D02*
D03*
X95031D02*
D03*
X105031D02*
D03*
X115031D02*
D03*
X125031D02*
D03*
X135031D02*
D03*
X145031D02*
D03*
X155031D02*
D03*
X165031D02*
D03*
X175031D02*
D03*
X185031D02*
D03*
X195031D02*
D03*
X205031D02*
D03*
X215031D02*
D03*
X225031D02*
D03*
X215200Y22300D02*
D03*
X205200D02*
D03*
X195200D02*
D03*
X185200D02*
D03*
X175200D02*
D03*
X165200D02*
D03*
X155200D02*
D03*
X145200D02*
D03*
X135200D02*
D03*
X125200D02*
D03*
X115200D02*
D03*
X105200D02*
D03*
X95200D02*
D03*
X85200D02*
D03*
X75200D02*
D03*
X65200D02*
D03*
X55200D02*
D03*
X45200D02*
D03*
X35200D02*
D03*
D37*
Y10300D02*
D03*
Y222300D02*
D03*
X35031Y234150D02*
D03*
X225200Y22300D02*
D03*
D38*
X74700Y201800D02*
D03*
X87900D02*
D03*
X158700Y163000D02*
D03*
X126321Y96900D02*
D03*
X96521Y161224D02*
D03*
X127121Y77324D02*
D03*
X133021Y195724D02*
D03*
X181521Y99374D02*
D03*
X96321Y153124D02*
D03*
X173621Y73824D02*
D03*
X74221Y117424D02*
D03*
X123021Y181824D02*
D03*
X181821Y135824D02*
D03*
X157300Y111300D02*
D03*
X238200Y101300D02*
D03*
X89200Y57300D02*
D03*
X24200Y137300D02*
D03*
X57200Y173300D02*
D03*
X69556Y189600D02*
D03*
X24200Y121300D02*
D03*
D39*
X96498Y131100D02*
D03*
X149500Y95666D02*
D03*
X95981Y124850D02*
D03*
X165421Y132624D02*
D03*
X159321Y94524D02*
D03*
X100000Y96800D02*
D03*
X165645Y126748D02*
D03*
X162300Y151900D02*
D03*
X79264Y90373D02*
D03*
X66900Y130500D02*
D03*
X94700Y137100D02*
D03*
X119721Y95524D02*
D03*
X145421Y158624D02*
D03*
X123421Y150224D02*
D03*
X135043Y164949D02*
D03*
X106121Y103324D02*
D03*
X164321Y117124D02*
D03*
X79221Y109824D02*
D03*
X164121Y100624D02*
D03*
X96521Y104424D02*
D03*
X119543Y164849D02*
D03*
X206800Y165600D02*
D03*
X24200Y32300D02*
D03*
X21200Y73300D02*
D03*
X191200Y143300D02*
D03*
X217200Y109300D02*
D03*
X225200Y117800D02*
D03*
D40*
X185500Y109400D02*
D03*
X144500Y147400D02*
D03*
X181621Y176724D02*
D03*
X154664Y184073D02*
D03*
X165821Y161424D02*
D03*
X160421Y144924D02*
D03*
X155264Y59873D02*
D03*
X40264Y143373D02*
D03*
X96164Y80773D02*
D03*
X32264Y143373D02*
D03*
X48264Y142373D02*
D03*
X141264Y67373D02*
D03*
X65264Y142373D02*
D03*
X157764Y189973D02*
D03*
X160664Y183773D02*
D03*
X35264Y138373D02*
D03*
X202743Y199908D02*
D03*
X149818Y145274D02*
D03*
X177621Y90324D02*
D03*
X146043Y152449D02*
D03*
X141264Y77773D02*
D03*
X149064Y184573D02*
D03*
X146064Y189673D02*
D03*
X163264Y67373D02*
D03*
X60014Y138373D02*
D03*
X143064Y178873D02*
D03*
X143364Y184173D02*
D03*
X151964Y189873D02*
D03*
X169264Y67373D02*
D03*
X43264Y138373D02*
D03*
X155264Y67373D02*
D03*
X52264Y138373D02*
D03*
X56264Y142373D02*
D03*
X175443Y183449D02*
D03*
X68764Y138373D02*
D03*
X153264Y78373D02*
D03*
X148264Y67373D02*
D03*
X222700Y147100D02*
D03*
X81500Y129100D02*
D03*
X201400Y148100D02*
D03*
X65300Y79400D02*
D03*
X217600Y149000D02*
D03*
X211200Y147300D02*
D03*
X206200Y109300D02*
D03*
X198200D02*
D03*
M02*
