G04*
G04 #@! TF.GenerationSoftware,Altium Limited,Altium Designer,19.1.7 (138)*
G04*
G04 Layer_Color=8421504*
%FSLAX25Y25*%
%MOIN*%
G70*
G01*
G75*
%ADD16R,0.02461X0.01575*%
%ADD17R,0.01575X0.02461*%
%ADD18R,0.03937X0.06299*%
%ADD19R,0.01968X0.02362*%
%ADD20R,0.02559X0.06004*%
%ADD21R,0.07874X0.03150*%
%ADD22R,0.05906X0.06299*%
%ADD23R,0.05807X0.01181*%
%ADD24R,0.01181X0.05807*%
%ADD25R,0.05906X0.05906*%
D16*
X231322Y81300D02*
D03*
X228078D02*
D03*
X28822Y147300D02*
D03*
X25578D02*
D03*
X25578Y56300D02*
D03*
X28822D02*
D03*
X72822Y167300D02*
D03*
X69578D02*
D03*
X72822Y172300D02*
D03*
X69578D02*
D03*
X24578Y88300D02*
D03*
X27822D02*
D03*
X230622Y145700D02*
D03*
X227378D02*
D03*
D17*
X30200Y72922D02*
D03*
Y69678D02*
D03*
X79200Y123922D02*
D03*
Y120678D02*
D03*
X78000Y134678D02*
D03*
Y137922D02*
D03*
X193700Y154778D02*
D03*
Y158022D02*
D03*
X94200Y75922D02*
D03*
Y72678D02*
D03*
D18*
X13200Y108300D02*
D03*
Y88300D02*
D03*
D19*
X28200Y39300D02*
D03*
Y43237D02*
D03*
D20*
X201200Y118123D02*
D03*
X206200D02*
D03*
X211200D02*
D03*
X216200D02*
D03*
Y139477D02*
D03*
X211200D02*
D03*
X206200D02*
D03*
X201200D02*
D03*
D21*
X13200Y56568D02*
D03*
Y40032D02*
D03*
D22*
X215900Y170521D02*
D03*
X225900D02*
D03*
Y160679D02*
D03*
X215900D02*
D03*
D23*
X88046Y164073D02*
D03*
Y162105D02*
D03*
Y160136D02*
D03*
Y158168D02*
D03*
Y156199D02*
D03*
Y154231D02*
D03*
Y152262D02*
D03*
Y150294D02*
D03*
Y148325D02*
D03*
Y146357D02*
D03*
Y144388D02*
D03*
Y142420D02*
D03*
Y140451D02*
D03*
Y138483D02*
D03*
Y136514D02*
D03*
Y134546D02*
D03*
Y132577D02*
D03*
Y130609D02*
D03*
Y128640D02*
D03*
Y126672D02*
D03*
Y124703D02*
D03*
Y122735D02*
D03*
Y120766D02*
D03*
Y118798D02*
D03*
Y116829D02*
D03*
Y114861D02*
D03*
Y112892D02*
D03*
Y110924D02*
D03*
Y108955D02*
D03*
Y106987D02*
D03*
Y105018D02*
D03*
Y103050D02*
D03*
Y101081D02*
D03*
Y99113D02*
D03*
Y97144D02*
D03*
Y95176D02*
D03*
X172597D02*
D03*
Y97144D02*
D03*
Y99113D02*
D03*
Y101081D02*
D03*
Y103050D02*
D03*
Y105018D02*
D03*
Y106987D02*
D03*
Y108955D02*
D03*
Y110924D02*
D03*
Y112892D02*
D03*
Y114861D02*
D03*
Y116829D02*
D03*
Y118798D02*
D03*
Y120766D02*
D03*
Y122735D02*
D03*
Y124703D02*
D03*
Y126672D02*
D03*
Y128640D02*
D03*
Y130609D02*
D03*
Y132577D02*
D03*
Y134546D02*
D03*
Y136514D02*
D03*
Y138483D02*
D03*
Y140451D02*
D03*
Y142420D02*
D03*
Y144388D02*
D03*
Y146357D02*
D03*
Y148325D02*
D03*
Y150294D02*
D03*
Y152262D02*
D03*
Y154231D02*
D03*
Y156199D02*
D03*
Y158168D02*
D03*
Y160136D02*
D03*
Y162105D02*
D03*
Y164073D02*
D03*
D24*
X95872Y87349D02*
D03*
X97841D02*
D03*
X99809D02*
D03*
X101778D02*
D03*
X103746D02*
D03*
X105715D02*
D03*
X107684D02*
D03*
X109652D02*
D03*
X111620D02*
D03*
X113589D02*
D03*
X115558D02*
D03*
X117526D02*
D03*
X119494D02*
D03*
X121463D02*
D03*
X123432D02*
D03*
X125400D02*
D03*
X127368D02*
D03*
X129337D02*
D03*
X131306D02*
D03*
X133274D02*
D03*
X135242D02*
D03*
X137211D02*
D03*
X139180D02*
D03*
X141148D02*
D03*
X143116D02*
D03*
X145085D02*
D03*
X147054D02*
D03*
X149022D02*
D03*
X150991D02*
D03*
X152959D02*
D03*
X154928D02*
D03*
X156896D02*
D03*
X158865D02*
D03*
X160833D02*
D03*
X162802D02*
D03*
X164770D02*
D03*
Y171900D02*
D03*
X162802D02*
D03*
X160833D02*
D03*
X158865D02*
D03*
X156896D02*
D03*
X154928D02*
D03*
X152959D02*
D03*
X150991D02*
D03*
X149022D02*
D03*
X147054D02*
D03*
X145085D02*
D03*
X143116D02*
D03*
X141148D02*
D03*
X139180D02*
D03*
X137211D02*
D03*
X135242D02*
D03*
X133274D02*
D03*
X131306D02*
D03*
X129337D02*
D03*
X127368D02*
D03*
X125400D02*
D03*
X123432D02*
D03*
X121463D02*
D03*
X119494D02*
D03*
X117526D02*
D03*
X115558D02*
D03*
X113589D02*
D03*
X111620D02*
D03*
X109652D02*
D03*
X107684D02*
D03*
X105715D02*
D03*
X103746D02*
D03*
X101778D02*
D03*
X99809D02*
D03*
X97841D02*
D03*
X95872D02*
D03*
D25*
X249200Y81410D02*
D03*
Y95190D02*
D03*
X13200Y147190D02*
D03*
Y133410D02*
D03*
M02*
