G04*
G04 #@! TF.GenerationSoftware,Altium Limited,Altium Designer,19.1.7 (138)*
G04*
G04 Layer_Physical_Order=4*
G04 Layer_Color=16711680*
%FSLAX25Y25*%
%MOIN*%
G70*
G01*
G75*
%ADD15C,0.01000*%
%ADD16R,0.02461X0.01575*%
%ADD17R,0.01575X0.02461*%
%ADD19R,0.01968X0.02362*%
%ADD25R,0.05906X0.05906*%
%ADD41C,0.02000*%
%ADD42C,0.01500*%
%ADD46C,0.05906*%
%ADD47R,0.05906X0.05906*%
%ADD48C,0.05000*%
%ADD49C,0.04000*%
%ADD50C,0.02400*%
%ADD62R,0.04528X0.02362*%
%ADD63R,0.02362X0.01968*%
%ADD64R,0.03150X0.00591*%
%ADD65R,0.12598X0.06890*%
%ADD66R,0.03740X0.06890*%
%ADD67C,0.03000*%
D15*
X221474Y98626D02*
X222100Y98000D01*
X97331Y108769D02*
Y110000D01*
X161969Y155969D02*
Y157000D01*
X119700Y95500D02*
X120216Y96016D01*
X163200Y67300D02*
X164200D01*
X153265Y78301D02*
X159267Y78367D01*
X230078Y137178D02*
Y144722D01*
X224230Y150570D02*
X230078Y144722D01*
X221964Y150570D02*
X224230D01*
X153200Y78300D02*
X153265Y78301D01*
X102420Y156191D02*
X103809D01*
X159369Y136600D02*
X159869Y137100D01*
X160769Y124100D02*
Y125631D01*
X104837Y129600D02*
X105537Y130300D01*
X105281Y125013D02*
X105369Y125100D01*
X179800Y163700D02*
X181100Y165000D01*
X179800Y158122D02*
Y163700D01*
X174500Y80800D02*
X185500Y91800D01*
Y109400D01*
X123000Y180819D02*
X125338Y178481D01*
X141250Y139050D02*
X142100Y139900D01*
X164600Y131800D02*
X165400Y132600D01*
X123300Y120800D02*
Y121000D01*
X103269Y120800D02*
Y121784D01*
X225965Y184000D02*
X226565Y184600D01*
X243100D02*
X244100Y183600D01*
X226565Y184600D02*
X243100D01*
X192200Y190922D02*
X196322Y186800D01*
X209612Y184200D02*
X222021D01*
X206430Y187382D02*
X209612Y184200D01*
X119650Y146100D02*
X142821D01*
X144121Y147400D01*
X144500D01*
X160769Y124100D02*
Y125169D01*
X158031Y157000D02*
X158700Y157669D01*
X99281Y120150D02*
Y120800D01*
X99181Y120700D02*
Y120800D01*
Y120250D02*
Y120700D01*
X99281Y120800D02*
X99306Y120825D01*
X99181Y120700D02*
X99281Y120800D01*
X203300Y177000D02*
X223278D01*
X199608Y173308D02*
X203300Y177000D01*
X226522D02*
X229400D01*
X232550Y180150D01*
X240031D01*
X202122Y171400D02*
X203800D01*
X204600Y172200D01*
X207100D01*
X100200Y133600D02*
X101728D01*
X95200Y143000D02*
X97300D01*
X101934Y137166D02*
Y138366D01*
X101728Y133600D02*
X101833Y133705D01*
X101728Y133600D02*
X101732D01*
X101833Y137064D02*
X101934Y137166D01*
X105871D02*
X106068D01*
X105770Y137064D02*
X105871Y137166D01*
X105668Y133600D02*
X105770Y133702D01*
X102420Y156191D02*
Y156746D01*
X109226Y147774D02*
X109800Y147200D01*
X97411Y161200D02*
X98152Y160459D01*
X98706D01*
X97231Y109869D02*
X97331Y109769D01*
X54729Y208900D02*
X119029Y144600D01*
X52550Y213200D02*
X119650Y146100D01*
X33000Y213200D02*
X52550D01*
X119029Y144600D02*
X149150D01*
X149775Y145225D01*
X30100Y208900D02*
X54729D01*
X108400Y163600D02*
X108500Y163700D01*
X181600Y172265D02*
X182165Y171700D01*
X181600Y172265D02*
Y176700D01*
X182165Y171700D02*
X184000D01*
X181222D02*
X181722D01*
X182165D01*
X178228Y167872D02*
Y171450D01*
Y167872D02*
X181000Y165100D01*
X96500Y104500D02*
X97331Y105331D01*
X96500Y104400D02*
Y104500D01*
X129800Y164769D02*
X131131D01*
X135200Y156332D02*
X135774Y156906D01*
X139900Y163003D02*
X140150Y162753D01*
X139800Y162403D02*
Y162600D01*
X159200Y116631D02*
X159869Y117300D01*
X164100D02*
X164300Y117100D01*
X140300Y181094D02*
X142794Y178600D01*
X140300Y181094D02*
Y195557D01*
X135757Y200100D02*
X140300Y195557D01*
X106400Y200100D02*
X135757D01*
X142700Y184700D02*
X143300Y184100D01*
X142700Y184700D02*
Y195279D01*
X135379Y202600D02*
X142700Y195279D01*
X107700Y202600D02*
X135379D01*
X146000Y189600D02*
Y189825D01*
X144200Y191625D02*
Y195900D01*
X134436Y205664D02*
X144200Y195900D01*
X111136Y205664D02*
X134436D01*
X149000Y184500D02*
Y190957D01*
X146775Y193275D02*
Y195725D01*
X128600Y213900D02*
X146775Y195725D01*
X113000Y213900D02*
X128600D01*
X151900Y189800D02*
Y190179D01*
X150200Y191879D02*
Y195100D01*
X128500Y216800D02*
X150200Y195100D01*
X125110Y216800D02*
X128500D01*
X154600Y184000D02*
Y194200D01*
X130100Y218700D02*
X154600Y194200D01*
X130100Y218700D02*
Y226200D01*
X119800Y222110D02*
X125110Y216800D01*
X144200Y191625D02*
X146000Y189825D01*
X123000Y180819D02*
Y181800D01*
X96300Y153100D02*
X96584Y152816D01*
X119800Y222110D02*
Y225900D01*
X150200Y191879D02*
X151900Y190179D01*
X146775Y193275D02*
X148700Y191350D01*
X97300Y209200D02*
X106400Y200100D01*
X119500Y157400D02*
X120100Y156800D01*
X101500Y142700D02*
X176700D01*
X96700Y147500D02*
X101500Y142700D01*
X176700D02*
X181500Y147500D01*
X200800D01*
X201400Y148100D01*
X211700Y98626D02*
Y98678D01*
X197500Y98778D02*
X197600Y98678D01*
X164700Y195300D02*
X169700Y200300D01*
X171635Y194700D02*
X172078D01*
X164700Y175500D02*
Y195300D01*
X163200Y178700D02*
Y199900D01*
X149600Y165100D02*
X163200Y178700D01*
X160100Y203000D02*
X163200Y199900D01*
X151300Y162100D02*
X164700Y175500D01*
X172078Y190900D02*
X172278Y190700D01*
X224922Y152800D02*
X225193Y152529D01*
X203400Y153900D02*
X203779D01*
X203061Y154239D02*
X203400Y153900D01*
X202774Y158800D02*
X203061Y158513D01*
X202722Y158800D02*
X202774D01*
X206300Y156100D02*
X214700D01*
X206300D02*
Y160500D01*
X199478Y158800D02*
X199921D01*
X194787Y159013D02*
X200133D01*
X199921Y158800D02*
X200133Y159013D01*
X221100Y145500D02*
X222700Y147100D01*
X142794Y178600D02*
X143043Y178849D01*
X199608Y171687D02*
Y173308D01*
X198878Y171400D02*
X199321D01*
X199608Y171687D01*
X244100Y174220D02*
Y183600D01*
X240031Y170150D02*
X244100Y174220D01*
X175322Y195300D02*
X175765D01*
X246078Y169525D02*
Y191422D01*
X240969Y164417D02*
X246078Y169525D01*
X242200Y195300D02*
X246078Y191422D01*
X155332Y137100D02*
X155382Y137050D01*
Y131850D02*
X155431Y131800D01*
X156150Y123419D02*
Y123616D01*
X156635Y124100D01*
X156832D01*
X132100Y125200D02*
X132800Y125900D01*
X133400D01*
X90500Y147500D02*
X96700D01*
X81500Y138500D02*
X90500Y147500D01*
X81500Y129100D02*
Y138500D01*
X99181Y120250D02*
X99281Y120150D01*
X78700Y109800D02*
X80200D01*
X120019Y104918D02*
X120216D01*
X120700Y104434D01*
Y104237D02*
Y104434D01*
X120216Y100200D02*
Y100300D01*
X113300Y100400D02*
X113600Y100100D01*
X113700Y100200D01*
X120216Y99816D02*
X120700Y100300D01*
X65300Y79400D02*
X70900Y73800D01*
X137300D02*
X141200Y77700D01*
X70900Y73800D02*
X137300D01*
X126300Y96900D02*
X128165D01*
X131100Y102569D02*
Y104100D01*
X136769Y98631D02*
X137600Y97800D01*
X148663Y95200D02*
X149500D01*
X144600Y97232D02*
X146632D01*
X153469Y96631D02*
X154300D01*
X158218Y94500D02*
X159300D01*
X153700Y100569D02*
X154300D01*
X137600Y97800D02*
X137969Y97431D01*
X155832Y117200D02*
X156032Y117400D01*
X160069Y105000D02*
X160169Y105100D01*
X156132Y105000D02*
X156232Y105100D01*
X158065Y112065D02*
Y113394D01*
X157300Y111300D02*
X158065Y112065D01*
X156300Y144800D02*
X160400D01*
X151300Y149800D02*
Y162100D01*
Y149800D02*
X156300Y144800D01*
X162286Y153000D02*
X162900D01*
X161700Y153586D02*
X162286Y153000D01*
X161700Y156731D02*
X161969Y157000D01*
X146000Y152400D02*
X149600Y156000D01*
X177221Y91321D02*
Y116943D01*
X177200Y91300D02*
X177221Y91321D01*
Y116943D02*
X211579Y151300D01*
X137600Y106100D02*
X138400D01*
X159267Y78367D02*
X177267D01*
X189200Y90300D01*
X165800Y158700D02*
Y161400D01*
X149600Y156000D02*
Y165100D01*
X139900Y163003D02*
Y163200D01*
X134934Y164834D02*
X135000Y164900D01*
X129800Y164769D02*
X129866Y164834D01*
X113600Y160335D02*
Y160532D01*
X113969Y164100D02*
X114669Y164800D01*
X157700Y189900D02*
Y195100D01*
X160600Y183700D02*
Y196700D01*
X113216Y164084D02*
X113600Y164469D01*
X113969Y164100D01*
X192169Y193678D02*
X195291Y196800D01*
X202700Y199318D02*
Y199859D01*
X204078Y195300D02*
X205199D01*
X205578D01*
X204912Y195587D02*
X205199Y195300D01*
X204912Y195587D02*
Y197106D01*
X202700Y199318D02*
X204912Y197106D01*
X209200Y204300D02*
X218200Y195300D01*
X199200Y204300D02*
X209200D01*
X192200Y197300D02*
X199200Y204300D01*
X175400Y183400D02*
Y190578D01*
X175522Y190700D01*
X165800Y158700D02*
X175790D01*
X178882Y155608D01*
X169700Y200300D02*
Y229481D01*
X165031Y234150D02*
X169700Y229481D01*
X160100Y203000D02*
Y224777D01*
X155179Y229698D02*
X160100Y224777D01*
X155179Y229698D02*
Y234002D01*
X155031Y234150D02*
X155179Y234002D01*
X150300Y207000D02*
Y228881D01*
Y207000D02*
X160600Y196700D01*
X145031Y234150D02*
X150300Y228881D01*
X176008Y188413D02*
X177620Y186800D01*
X176008Y188413D02*
Y190413D01*
X175720Y190700D02*
X176008Y190413D01*
X175522Y190700D02*
X175720D01*
X177620Y186800D02*
X184141D01*
X178882Y155608D02*
X179513D01*
X179800Y155321D01*
Y154878D02*
Y155321D01*
X180087Y155608D02*
X181108D01*
X179800Y155321D02*
X180087Y155608D01*
X181108D02*
X188163Y162663D01*
X181000Y165100D02*
X187863D01*
X180512D02*
X181000D01*
X181100Y165000D01*
X211579Y151300D02*
X212186D01*
X21500Y217500D02*
X30100Y208900D01*
X21500Y217500D02*
Y230700D01*
X31000Y240200D01*
X38981D01*
X45031Y234150D01*
X27500Y218700D02*
X33000Y213200D01*
X27500Y218700D02*
Y226620D01*
X35031Y234150D01*
X68600Y209200D02*
X97300D01*
X60600Y217200D02*
X68600Y209200D01*
X60600Y217200D02*
Y228581D01*
X55031Y234150D02*
X60600Y228581D01*
X69900Y217800D02*
X75900Y211800D01*
X65031Y233169D02*
X69900Y228300D01*
Y217800D02*
Y228300D01*
X65031Y233169D02*
Y234150D01*
X98500Y211800D02*
X107700Y202600D01*
X75900Y211800D02*
X98500D01*
X100200Y216600D02*
Y227600D01*
X95031Y232769D02*
X100200Y227600D01*
X95031Y232769D02*
Y234150D01*
X100200Y216600D02*
X111136Y205664D01*
X148700Y191258D02*
X149000Y190957D01*
X148700Y191258D02*
Y191350D01*
X110500Y216400D02*
Y225200D01*
X105031Y230669D02*
X110500Y225200D01*
X105031Y230669D02*
Y234150D01*
X110500Y216400D02*
X113000Y213900D01*
X115031Y230669D02*
X119800Y225900D01*
X115031Y230669D02*
Y234150D01*
X139300Y213500D02*
X157700Y195100D01*
X139300Y213500D02*
Y229900D01*
X125031Y231269D02*
X130100Y226200D01*
X125031Y231269D02*
Y234150D01*
X135050D02*
X139300Y229900D01*
X135031Y234150D02*
X135050D01*
X96100Y80800D02*
X174500Y80800D01*
X157200Y73300D02*
X161000Y69500D01*
Y66389D02*
X194089Y33300D01*
X161000Y66389D02*
Y69500D01*
X200133Y159013D02*
X200208Y159087D01*
X205700Y161100D02*
X206300Y160500D01*
X201590Y161100D02*
X205700D01*
X200208Y159718D02*
X201590Y161100D01*
X200208Y159087D02*
Y159718D01*
X192100Y161700D02*
X194787Y159013D01*
X221964Y150570D02*
Y152514D01*
X221678Y152800D02*
X221964Y152514D01*
X221100Y145300D02*
Y145500D01*
X214400Y150500D02*
X215800Y151900D01*
X214400Y146086D02*
Y150500D01*
Y146086D02*
X215186Y145300D01*
X215800Y151900D02*
Y155000D01*
X219970Y150570D02*
X221964D01*
X218400Y149000D02*
X219970Y150570D01*
X217600Y149000D02*
X218400D01*
X215186Y145300D02*
X221100D01*
X214700Y156100D02*
X215800Y155000D01*
X206430Y187382D02*
Y188013D01*
X206143Y188300D02*
X206430Y188013D01*
X205700Y188300D02*
X206143D01*
X204078D02*
X205700D01*
X192100Y161700D02*
Y163600D01*
X191764Y166683D02*
Y167764D01*
X195400Y171400D01*
X198878D01*
X192100Y165100D02*
X198600D01*
X184000Y171700D02*
X188163Y167537D01*
Y162663D02*
Y163600D01*
Y166600D02*
Y167537D01*
X199375Y192225D02*
X199450Y192150D01*
X193443Y192225D02*
X199375D01*
X182500Y192300D02*
X187400D01*
X182417Y192217D02*
X182500Y192300D01*
X184610Y197300D02*
X192200D01*
X177765D02*
X184610D01*
X195291Y196800D02*
X202578D01*
X184141Y186800D02*
X188263Y190922D01*
X196322Y186800D02*
X202578D01*
X209200Y195300D02*
X210200D01*
X213200Y192300D01*
X209487Y188587D02*
X213200Y192300D01*
X208944Y188587D02*
X209487D01*
X213200Y192300D02*
X215200D01*
X218200Y195300D02*
X242200D01*
X240969Y161089D02*
Y164417D01*
X240031Y160150D02*
X240969Y161089D01*
X239092Y181089D02*
X240031Y180150D01*
X212186Y151300D02*
Y152513D01*
Y149786D02*
Y151300D01*
X211468Y149068D02*
X212186Y149786D01*
X211468Y147568D02*
Y149068D01*
X211200Y147300D02*
X211468Y147568D01*
X211700Y101922D02*
Y105800D01*
X208200Y109300D02*
X211700Y105800D01*
X206200Y109300D02*
X208200D01*
X198200Y129300D02*
X222200D01*
X189200Y120300D02*
X198200Y129300D01*
X189200Y90300D02*
Y120300D01*
X222200Y129300D02*
X230078Y137178D01*
X184200Y62300D02*
X184965Y61535D01*
X191035Y53300D02*
X191232D01*
X198716Y47784D02*
X199239Y47261D01*
X194200Y62300D02*
X194684Y61816D01*
Y53784D02*
X195169Y53300D01*
X195169D01*
X188200Y28300D02*
X194200Y22300D01*
X180200Y28300D02*
X188200D01*
X194200Y22300D02*
X195200D01*
X211200Y31300D02*
X215200Y27300D01*
X192200Y31300D02*
X211200D01*
X158200Y65300D02*
X192200Y31300D01*
X194089Y33300D02*
X214200D01*
X169200Y67300D02*
X198200Y38300D01*
X214200Y33300D02*
X225200Y22300D01*
X216200Y35300D02*
X222200Y29300D01*
X196200Y35300D02*
X216200D01*
X164200Y67300D02*
X196200Y35300D01*
X216200Y38300D02*
X222200Y32300D01*
X198200Y38300D02*
X216200D01*
X158200Y65300D02*
Y69300D01*
X159821Y59800D02*
X190821Y28800D01*
X155200Y59800D02*
X159821D01*
X152200Y64300D02*
X155200Y67300D01*
X152200Y56300D02*
Y64300D01*
Y56300D02*
X180200Y28300D01*
X156200Y71300D02*
X158200Y69300D01*
X152200Y71300D02*
X156200D01*
X148200Y67300D02*
X152200Y71300D01*
X190821Y28800D02*
X198700D01*
X149200Y73300D02*
X157200D01*
X143200Y67300D02*
X149200Y73300D01*
X198700Y28800D02*
X205200Y22300D01*
X141200Y67300D02*
X143200D01*
X230200Y32300D02*
X234200Y28300D01*
X222200Y32300D02*
X230200D01*
X234200Y17300D02*
Y28300D01*
X232200Y15300D02*
X234200Y17300D01*
X162200Y15300D02*
X232200D01*
X155200Y22300D02*
X162200Y15300D01*
X206200Y69702D02*
X206798Y70300D01*
X232200Y19300D02*
Y26300D01*
X230200Y17300D02*
X232200Y19300D01*
X170200Y17300D02*
X230200D01*
X229200Y29300D02*
X232200Y26300D01*
X222200Y29300D02*
X229200D01*
X165200Y22300D02*
X170200Y17300D01*
X215200Y22300D02*
Y27300D01*
X36200Y23300D02*
Y40300D01*
X32200Y44300D02*
X36200Y40300D01*
X32200Y143300D02*
X32200Y44300D01*
X35200Y22300D02*
X36200Y23300D01*
X45200Y22300D02*
Y35300D01*
X35200Y45300D02*
X45200Y35300D01*
X35200Y45300D02*
Y138300D01*
X55200Y22300D02*
Y29300D01*
X38200Y46300D02*
X55200Y29300D01*
X38200Y46300D02*
Y134300D01*
X65200Y22300D02*
Y23300D01*
X41200Y47300D02*
X65200Y23300D01*
X41200Y47300D02*
Y134300D01*
X32200Y143300D02*
Y143800D01*
X145200Y22300D02*
Y24300D01*
X127200Y42300D02*
X145200Y24300D01*
X69200Y42300D02*
X127200D01*
X68200Y138300D02*
X68700D01*
X59200Y129300D02*
X68200Y138300D01*
X59200Y52300D02*
Y129300D01*
Y52300D02*
X69200Y42300D01*
X56200Y129300D02*
X64200Y137300D01*
X56200Y51300D02*
Y129300D01*
Y51300D02*
X67200Y40300D01*
X64200Y137300D02*
Y141300D01*
X65200Y142300D01*
X67200Y40300D02*
X117200D01*
X135200Y22300D01*
X63200Y29300D02*
X89200D01*
X44200Y48300D02*
X63200Y29300D01*
X44200Y48300D02*
Y133300D01*
X67200Y37300D02*
X110200D01*
X53200Y51300D02*
X67200Y37300D01*
X53200Y51300D02*
Y131300D01*
X59950Y138050D01*
Y138300D01*
X50200Y131300D02*
X56241Y137341D01*
Y139259D01*
X56200Y139300D02*
Y142300D01*
Y139300D02*
X56241Y139259D01*
X115200Y22300D02*
X115243Y22257D01*
X110200Y37300D02*
X125200Y22300D01*
X50200Y50300D02*
Y131300D01*
X66200Y89300D02*
X66774Y89874D01*
X72137Y104300D02*
X72169Y104269D01*
X50200Y50300D02*
X65200Y35300D01*
X102200D01*
X115200Y22300D01*
X47200Y133300D02*
X52200Y138300D01*
X44200Y133300D02*
X48200Y137300D01*
Y142300D01*
X47200Y49300D02*
Y133300D01*
Y49300D02*
X64200Y32300D01*
X95200D01*
X105200Y22300D01*
X95200D02*
Y23300D01*
X89200Y29300D02*
X95200Y23300D01*
X43200Y136300D02*
Y138300D01*
X41200Y134300D02*
X43200Y136300D01*
X39200Y142300D02*
X40200Y143300D01*
X39200Y135300D02*
Y142300D01*
X38200Y134300D02*
X39200Y135300D01*
X47103Y173333D02*
X47135Y173365D01*
X35232Y173333D02*
X47103D01*
X35200Y173300D02*
X35232Y173333D01*
X26342Y169560D02*
X26601Y169300D01*
X15200D02*
X26601D01*
X25511Y192300D02*
X26511Y191300D01*
X35629Y195300D02*
X45200D01*
X16200Y191300D02*
X24511D01*
X26511D02*
X26771Y191560D01*
X24511Y191300D02*
X25511Y192300D01*
X125200Y22300D02*
X125243Y22257D01*
X72169Y104269D02*
X72200Y104300D01*
X175765Y195300D02*
X177765Y197300D01*
X72169Y111300D02*
X72200Y111269D01*
X72200Y111300D02*
X72365D01*
X77169Y96300D02*
X77184Y96316D01*
X73232Y96300D02*
X73247Y96316D01*
Y101284D02*
X73263Y101300D01*
X230200Y64300D02*
X230972D01*
X235971Y59300D02*
X236168D01*
X236456Y59587D01*
Y70300D02*
X236578D01*
X240105Y59300D02*
X241200D01*
X184610Y197300D02*
X188232Y193678D01*
X202578Y186800D02*
X204078Y188300D01*
X202578Y196800D02*
X204078Y195300D01*
X212186Y152513D02*
X212474Y152800D01*
X212700D01*
X197200Y101922D02*
X197487Y102209D01*
Y108587D02*
X198200Y109300D01*
X197487Y102209D02*
Y108587D01*
D16*
X223278Y177000D02*
D03*
X226522D02*
D03*
X236578Y70300D02*
D03*
X239822D02*
D03*
X226144Y184400D02*
D03*
X222900D02*
D03*
X178478Y171700D02*
D03*
X181722D02*
D03*
X208822Y195300D02*
D03*
X205578D02*
D03*
X208944Y188300D02*
D03*
X205700D02*
D03*
X172278Y190700D02*
D03*
X175522D02*
D03*
X172078Y194700D02*
D03*
X175322D02*
D03*
X202722Y158800D02*
D03*
X199478D02*
D03*
X202122Y171400D02*
D03*
X198878D02*
D03*
X221678Y152800D02*
D03*
X224922D02*
D03*
X212700D02*
D03*
X209456D02*
D03*
D17*
X179800Y158122D02*
D03*
Y154878D02*
D03*
X211700Y101922D02*
D03*
Y98678D02*
D03*
X197500Y102022D02*
D03*
Y98778D02*
D03*
D19*
X131100Y98631D02*
D03*
Y102569D02*
D03*
X125500Y161031D02*
D03*
Y164969D02*
D03*
X144600Y101169D02*
D03*
Y97232D02*
D03*
X154300Y100569D02*
D03*
Y96631D02*
D03*
X120700Y104237D02*
D03*
Y100300D02*
D03*
X113600Y160532D02*
D03*
Y164469D02*
D03*
X129800Y160832D02*
D03*
Y164769D02*
D03*
X139800Y158663D02*
D03*
Y162600D02*
D03*
X102500Y156469D02*
D03*
Y152531D02*
D03*
D25*
X250031Y140150D02*
D03*
D41*
X99331Y116631D02*
Y120800D01*
X99100Y116400D02*
X99331Y116631D01*
X98500Y129600D02*
X100269D01*
X97000Y131100D02*
X98500Y129600D01*
X109400Y119700D02*
X115200D01*
X108300Y120800D02*
X109400Y119700D01*
X103269Y120800D02*
X108300D01*
X115200Y119700D02*
X119900Y124400D01*
X101431Y123931D02*
Y125100D01*
X99331Y121831D02*
X101431Y123931D01*
X98900Y107200D02*
X109700D01*
X97331Y108769D02*
X98900Y107200D01*
X109226Y147774D02*
Y150774D01*
X103809Y156191D02*
X109226Y150774D01*
X156086Y96631D02*
X158218Y94500D01*
X154300Y96631D02*
X156086D01*
X152900Y101368D02*
X153700Y100569D01*
X143131Y101368D02*
X152900D01*
X108500Y112800D02*
X110500Y114800D01*
X99500Y112800D02*
X108500D01*
X97531Y110831D02*
X99500Y112800D01*
X97531Y109700D02*
Y110831D01*
X115237Y109700D02*
X120019Y104918D01*
X101469Y109700D02*
X115237D01*
X159465Y137100D02*
Y138235D01*
X157800Y139900D02*
X159465Y138235D01*
X142100Y139900D02*
X157800D01*
X159369Y131800D02*
Y136600D01*
X159400Y127000D02*
X160769Y125631D01*
X134500Y127000D02*
X159400D01*
X114000Y130300D02*
X119900Y124400D01*
X105537Y130300D02*
X114000D01*
X103306Y127391D02*
X109209D01*
X101097Y129600D02*
X103306Y127391D01*
X109209D02*
X112500Y124100D01*
X103269Y121784D02*
X105281Y123797D01*
X95981Y125050D02*
X101381D01*
X100269Y129600D02*
X101097D01*
X99331Y120800D02*
Y121831D01*
X77184Y96316D02*
Y102916D01*
X75831Y104269D02*
X77184Y102916D01*
X72169Y104269D02*
X75831D01*
X77169Y92331D02*
Y96300D01*
Y92331D02*
X79200Y90300D01*
X125500Y164969D02*
X130000Y169468D01*
X125338Y178481D02*
X125500Y164969D01*
X130000Y169468D02*
Y179700D01*
X125100Y184600D02*
X130000Y179700D01*
X125100Y184600D02*
Y189300D01*
X96584Y152816D02*
X102450D01*
Y147650D02*
Y152816D01*
X159369Y131800D02*
X164600D01*
X119900Y124400D02*
X123300Y121000D01*
X110500Y114800D02*
X114100D01*
X162348Y126748D02*
X165645D01*
X160769Y125169D02*
X162348Y126748D01*
X97500Y136300D02*
X100200Y133600D01*
X94400Y136300D02*
X97500D01*
X97300Y143000D02*
X101934Y138366D01*
X101833Y133705D02*
Y137064D01*
X105770Y133702D02*
Y137064D01*
X106068Y137166D02*
X108303Y139400D01*
X112900D01*
X98706Y160459D02*
X102420Y156746D01*
X97331Y105331D02*
Y109769D01*
X109700Y107200D02*
X113300Y103600D01*
X148700Y117200D02*
X155832D01*
X134600Y156900D02*
Y161300D01*
X131131Y164769D02*
X134600Y161300D01*
X132000Y153400D02*
X137200D01*
X129800Y155600D02*
X132000Y153400D01*
X137200D02*
X139900Y156100D01*
X129800Y155600D02*
Y160832D01*
X128600Y156800D02*
X129800Y155600D01*
X124600Y156800D02*
X128600D01*
X139900Y156100D02*
Y157800D01*
X139800Y162403D02*
X141768D01*
X137703D02*
X139800D01*
X135774Y160474D02*
X137703Y162403D01*
X135774Y156906D02*
Y160474D01*
X141768Y162403D02*
X143672Y160500D01*
X159869Y117300D02*
X164100D01*
X124600Y156800D02*
X125500Y157700D01*
X120100Y156800D02*
X124600D01*
X116535Y157400D02*
X119500D01*
X113600Y160335D02*
X116535Y157400D01*
X227652Y152529D02*
X240031Y140150D01*
X225193Y152529D02*
X227652D01*
X203779Y153900D02*
X204879Y152800D01*
X209456D01*
X203061Y154239D02*
Y158513D01*
X64900Y117800D02*
X68231Y114469D01*
Y111300D02*
Y114469D01*
X127300Y131800D02*
X155431D01*
X119900Y124400D02*
X127300Y131800D01*
X155382Y131850D02*
Y137050D01*
X133400Y125900D02*
X134500Y127000D01*
X155332Y117500D02*
Y122600D01*
X156150Y123419D01*
X119900Y124400D02*
Y132400D01*
X112900Y139400D02*
X119900Y132400D01*
X77200Y111300D02*
X78700Y109800D01*
X113300Y100400D02*
Y103600D01*
X113700Y100200D02*
X120216D01*
Y96016D02*
Y99816D01*
X128331Y102569D02*
X131100D01*
X126663Y104237D02*
X128331Y102569D01*
X120700Y104237D02*
X126663D01*
X128165Y96900D02*
X129897Y98631D01*
X133100Y106100D02*
X137600D01*
X131100Y104100D02*
X133100Y106100D01*
X129897Y98631D02*
X131100D01*
X136769D01*
X137969Y97431D02*
X146432D01*
X146632Y97232D02*
X148663Y95200D01*
X147500Y98500D02*
X151600D01*
X146432Y97431D02*
X147500Y98500D01*
X151600D02*
X153469Y96631D01*
X161600Y100600D02*
X164100D01*
X160069Y102131D02*
X161600Y100600D01*
X160069Y102131D02*
Y105000D01*
X159200Y114528D02*
Y116631D01*
X158065Y113394D02*
X159200Y114528D01*
X157300Y111300D02*
X160169Y108431D01*
Y105100D02*
Y108431D01*
X153700Y105100D02*
X156232D01*
X152700Y106100D02*
X153700Y105100D01*
X138316Y106816D02*
X148700Y117200D01*
X138400Y106100D02*
X152700D01*
X161700Y153586D02*
Y156731D01*
X138400Y106100D02*
X143131Y101368D01*
X143672Y160500D02*
X144000D01*
X129866Y164834D02*
X134934D01*
X125500Y157700D02*
Y161031D01*
X114669Y164800D02*
X119500D01*
X110316Y164084D02*
X113216D01*
X69678Y89874D02*
X73232Y93428D01*
X66774Y89874D02*
X69678D01*
X73232Y93428D02*
Y96300D01*
X65200Y104300D02*
X72137D01*
X73397Y111300D02*
X77200D01*
X73247Y96316D02*
Y101284D01*
X72200Y104300D02*
Y111269D01*
D42*
X211700Y98626D02*
X221474D01*
X158900Y152900D02*
X161969Y155969D01*
X154900Y152900D02*
X158900D01*
X158700Y157669D02*
Y163000D01*
X197600Y98678D02*
X211700D01*
X169135Y192200D02*
X171635Y194700D01*
X167500Y192200D02*
X169135D01*
X172078Y190900D02*
Y194700D01*
D46*
X225200Y10300D02*
D03*
X215200D02*
D03*
X205200D02*
D03*
X195200D02*
D03*
X185200D02*
D03*
X175200D02*
D03*
X165200D02*
D03*
X155200D02*
D03*
X145200D02*
D03*
X135200D02*
D03*
X125200D02*
D03*
X115200D02*
D03*
X105200D02*
D03*
X95200D02*
D03*
X85200D02*
D03*
X75200D02*
D03*
X65200D02*
D03*
X55200D02*
D03*
X45200D02*
D03*
X240031Y140150D02*
D03*
X250031Y150150D02*
D03*
X240031D02*
D03*
X250031Y160150D02*
D03*
X240031D02*
D03*
X250031Y170150D02*
D03*
X240031D02*
D03*
X250031Y180150D02*
D03*
X240031D02*
D03*
X250031Y190150D02*
D03*
X240031D02*
D03*
X250031Y200150D02*
D03*
X240031D02*
D03*
X45200Y222300D02*
D03*
X55200D02*
D03*
X65200D02*
D03*
X75200D02*
D03*
X85200D02*
D03*
X95200D02*
D03*
X105200D02*
D03*
X115200D02*
D03*
X125200D02*
D03*
X135200D02*
D03*
X145200D02*
D03*
X155200D02*
D03*
X165200D02*
D03*
X175200D02*
D03*
X185200D02*
D03*
X195200D02*
D03*
X205200D02*
D03*
X215200D02*
D03*
X225200D02*
D03*
X45031Y234150D02*
D03*
X55031D02*
D03*
X65031D02*
D03*
X75031D02*
D03*
X85031D02*
D03*
X95031D02*
D03*
X105031D02*
D03*
X115031D02*
D03*
X125031D02*
D03*
X135031D02*
D03*
X145031D02*
D03*
X155031D02*
D03*
X165031D02*
D03*
X175031D02*
D03*
X185031D02*
D03*
X195031D02*
D03*
X205031D02*
D03*
X215031D02*
D03*
X225031D02*
D03*
X215200Y22300D02*
D03*
X205200D02*
D03*
X195200D02*
D03*
X185200D02*
D03*
X175200D02*
D03*
X165200D02*
D03*
X155200D02*
D03*
X145200D02*
D03*
X135200D02*
D03*
X125200D02*
D03*
X115200D02*
D03*
X105200D02*
D03*
X95200D02*
D03*
X85200D02*
D03*
X75200D02*
D03*
X65200D02*
D03*
X55200D02*
D03*
X45200D02*
D03*
X35200D02*
D03*
D47*
Y10300D02*
D03*
Y222300D02*
D03*
X35031Y234150D02*
D03*
X225200Y22300D02*
D03*
D48*
X141250Y139050D02*
D03*
X158700Y163000D02*
D03*
X96521Y161224D02*
D03*
X96321Y153124D02*
D03*
X123021Y181824D02*
D03*
X125100Y189300D02*
D03*
X222100Y98000D02*
D03*
X132100Y125200D02*
D03*
X157300Y111300D02*
D03*
X184200Y62300D02*
D03*
X194200D02*
D03*
X16200Y191300D02*
D03*
X45200Y195300D02*
D03*
X230200Y64300D02*
D03*
X246200D02*
D03*
D49*
X99100Y116400D02*
D03*
X96498Y131100D02*
D03*
X149500Y95666D02*
D03*
X95981Y124850D02*
D03*
X112500Y124100D02*
D03*
X165421Y132624D02*
D03*
X159321Y94524D02*
D03*
X181100Y165000D02*
D03*
X114100Y114800D02*
D03*
X165645Y126748D02*
D03*
X126321Y96900D02*
D03*
X162300Y151900D02*
D03*
X79264Y90373D02*
D03*
X94700Y137100D02*
D03*
X95200Y143000D02*
D03*
X109800Y147200D02*
D03*
X108500Y163700D02*
D03*
X119721Y95524D02*
D03*
X145421Y158624D02*
D03*
X135043Y164949D02*
D03*
X164321Y117124D02*
D03*
X79221Y109824D02*
D03*
X164121Y100624D02*
D03*
X96521Y104424D02*
D03*
X119543Y164849D02*
D03*
X134600Y156900D02*
D03*
X119500Y157400D02*
D03*
X64900Y117800D02*
D03*
X102450Y147650D02*
D03*
X113600Y100100D02*
D03*
X137600Y97800D02*
D03*
X154900Y152900D02*
D03*
X137600Y106100D02*
D03*
X198600Y165100D02*
D03*
X182417Y192217D02*
D03*
X199450Y192150D02*
D03*
X215200Y192300D02*
D03*
X65200Y104300D02*
D03*
X66200Y89300D02*
D03*
X15200Y169300D02*
D03*
X47135Y173365D02*
D03*
D50*
X185500Y109400D02*
D03*
X123300Y120800D02*
D03*
X144500Y147400D02*
D03*
X181621Y176724D02*
D03*
X154664Y184073D02*
D03*
X165821Y161424D02*
D03*
X160421Y144924D02*
D03*
X155264Y59873D02*
D03*
X40264Y143373D02*
D03*
X96164Y80773D02*
D03*
X32264Y143373D02*
D03*
X48264Y142373D02*
D03*
X141264Y67373D02*
D03*
X65264Y142373D02*
D03*
X157764Y189973D02*
D03*
X160664Y183773D02*
D03*
X35264Y138373D02*
D03*
X202743Y199908D02*
D03*
X149818Y145274D02*
D03*
X177621Y90324D02*
D03*
X146043Y152449D02*
D03*
X141264Y77773D02*
D03*
X149064Y184573D02*
D03*
X146064Y189673D02*
D03*
X163264Y67373D02*
D03*
X60014Y138373D02*
D03*
X143064Y178873D02*
D03*
X143364Y184173D02*
D03*
X151964Y189873D02*
D03*
X169264Y67373D02*
D03*
X43264Y138373D02*
D03*
X155264Y67373D02*
D03*
X52264Y138373D02*
D03*
X56264Y142373D02*
D03*
X175443Y183449D02*
D03*
X68764Y138373D02*
D03*
X153264Y78373D02*
D03*
X148264Y67373D02*
D03*
X167500Y192200D02*
D03*
X203400Y153900D02*
D03*
X207100Y172200D02*
D03*
X222700Y147100D02*
D03*
X81500Y129100D02*
D03*
X201400Y148100D02*
D03*
X65300Y79400D02*
D03*
X217600Y149000D02*
D03*
X211200Y147300D02*
D03*
X206200Y109300D02*
D03*
X198200D02*
D03*
D62*
X35629Y195300D02*
D03*
X26771Y199040D02*
D03*
Y191560D02*
D03*
X35200Y173300D02*
D03*
X26342Y177040D02*
D03*
Y169560D02*
D03*
D63*
X101732Y133600D02*
D03*
X105668D02*
D03*
X155332Y137100D02*
D03*
X159268D02*
D03*
X155431Y131800D02*
D03*
X159369D02*
D03*
X73263Y101300D02*
D03*
X77200D02*
D03*
X73232Y96300D02*
D03*
X77169D02*
D03*
X103269Y120800D02*
D03*
X99331D02*
D03*
X105269Y124500D02*
D03*
X101331D02*
D03*
X156832Y124100D02*
D03*
X160769D02*
D03*
X101469Y109700D02*
D03*
X97531D02*
D03*
X105269Y130100D02*
D03*
X101331D02*
D03*
X156132Y105000D02*
D03*
X160069D02*
D03*
X158031Y157000D02*
D03*
X161969D02*
D03*
X155332Y117500D02*
D03*
X159268D02*
D03*
X68231Y111300D02*
D03*
X72169D02*
D03*
X105871Y137166D02*
D03*
X101934D02*
D03*
X236168Y59300D02*
D03*
X240105D02*
D03*
X195169Y53300D02*
D03*
X191232D02*
D03*
D64*
X188163Y166478D02*
D03*
Y165100D02*
D03*
Y163722D02*
D03*
X192100D02*
D03*
Y165100D02*
D03*
Y166478D02*
D03*
X192369Y190922D02*
D03*
Y192300D02*
D03*
Y193678D02*
D03*
X188432D02*
D03*
Y192300D02*
D03*
Y190922D02*
D03*
D65*
X212200Y70702D02*
D03*
D66*
X203145Y45898D02*
D03*
X212200D02*
D03*
X221255D02*
D03*
D67*
X208798Y70300D02*
X236456D01*
X220255Y44898D02*
X240798D01*
X184965Y59369D02*
Y61535D01*
Y59369D02*
X191035Y53300D01*
X194684Y53784D02*
Y61816D01*
X195169Y51331D02*
X198716Y47784D01*
X195169Y51331D02*
Y53300D01*
X200720Y45898D02*
X203145D01*
X198775Y47843D02*
X200720Y45898D01*
X212200Y44898D02*
Y50300D01*
X226200Y64300D01*
X236456Y59587D02*
Y70300D01*
X226200Y64300D02*
X230200D01*
X230972D02*
X235971Y59300D01*
X240417Y70083D02*
X246200Y64300D01*
Y50300D02*
Y64300D01*
X240798Y44898D02*
X246200Y50300D01*
X241200Y59300D02*
X246200Y64300D01*
M02*
