G04*
G04 #@! TF.GenerationSoftware,Altium Limited,Altium Designer,19.1.7 (138)*
G04*
G04 Layer_Color=2752767*
%FSLAX25Y25*%
%MOIN*%
G70*
G01*
G75*
%ADD73C,0.00200*%
%ADD74C,0.00267*%
D73*
X74300Y201400D02*
Y201000D01*
X75100D01*
Y201400D01*
X75500D01*
Y202200D01*
X75100D01*
Y202600D01*
X74300D01*
Y202200D01*
X73900D01*
Y201400D01*
X74300D01*
X87500D02*
Y201000D01*
X88300D01*
Y201400D01*
X88700D01*
Y202200D01*
X88300D01*
Y202600D01*
X87500D01*
Y202200D01*
X87100D01*
Y201400D01*
X87500D01*
X125521Y96100D02*
X125921Y96900D01*
X125521Y97700D01*
X126321Y97300D01*
X127121Y97700D01*
X126721Y96900D01*
X127121Y96100D01*
X126321Y96500D01*
X125521Y96100D01*
X132221Y194924D02*
X132621Y195724D01*
X132221Y196524D01*
X133021Y196124D01*
X133821Y196524D01*
X133421Y195724D01*
X133821Y194924D01*
X133021Y195324D01*
X132221Y194924D01*
X156500Y110500D02*
X156900Y111300D01*
X156500Y112100D01*
X157300Y111700D01*
X158100Y112100D01*
X157700Y111300D01*
X158100Y110500D01*
X157300Y110900D01*
X156500Y110500D01*
X237400Y100500D02*
X237800Y101300D01*
X237400Y102100D01*
X238200Y101700D01*
X239000Y102100D01*
X238600Y101300D01*
X239000Y100500D01*
X238200Y100900D01*
X237400Y100500D01*
X88400Y56500D02*
X88800Y57300D01*
X88400Y58100D01*
X89200Y57700D01*
X90000Y58100D01*
X89600Y57300D01*
X90000Y56500D01*
X89200Y56900D01*
X88400Y56500D01*
X23400Y136500D02*
X23800Y137300D01*
X23400Y138100D01*
X24200Y137700D01*
X25000Y138100D01*
X24600Y137300D01*
X25000Y136500D01*
X24200Y136900D01*
X23400Y136500D01*
X68756Y188800D02*
X69156Y189600D01*
X68756Y190400D01*
X69556Y190000D01*
X70356Y190400D01*
X69956Y189600D01*
X70356Y188800D01*
X69556Y189200D01*
X68756Y188800D01*
D74*
X100800Y96800D02*
X100247Y97561D01*
X99353Y97270D01*
Y96330D01*
X100247Y96039D01*
X100800Y96800D01*
X22000Y73300D02*
X21447Y74061D01*
X20553Y73770D01*
Y72830D01*
X21447Y72539D01*
X22000Y73300D01*
X192000Y143300D02*
X191447Y144061D01*
X190553Y143770D01*
Y142830D01*
X191447Y142539D01*
X192000Y143300D01*
X218000Y109300D02*
X217447Y110061D01*
X216553Y109770D01*
Y108830D01*
X217447Y108539D01*
X218000Y109300D01*
M02*
