G04*
G04 #@! TF.GenerationSoftware,Altium Limited,Altium Designer,19.1.7 (138)*
G04*
G04 Layer_Color=2752767*
%FSLAX25Y25*%
%MOIN*%
G70*
G01*
G75*
%ADD73C,0.00200*%
%ADD74C,0.00267*%
D73*
X140450Y138250D02*
X140850Y139050D01*
X140450Y139850D01*
X141250Y139450D01*
X142050Y139850D01*
X141650Y139050D01*
X142050Y138250D01*
X141250Y138650D01*
X140450Y138250D01*
X124300Y188500D02*
X124700Y189300D01*
X124300Y190100D01*
X125100Y189700D01*
X125900Y190100D01*
X125500Y189300D01*
X125900Y188500D01*
X125100Y188900D01*
X124300Y188500D01*
X221300Y97200D02*
X221700Y98000D01*
X221300Y98800D01*
X222100Y98400D01*
X222900Y98800D01*
X222500Y98000D01*
X222900Y97200D01*
X222100Y97600D01*
X221300Y97200D01*
X167500Y191400D02*
X166700Y193000D01*
X168300D01*
X167500Y191400D01*
X203400Y153100D02*
X202600Y154700D01*
X204200D01*
X203400Y153100D01*
X207100Y171400D02*
X206300Y173000D01*
X207900D01*
X207100Y171400D01*
X131300Y124400D02*
X131700Y125200D01*
X131300Y126000D01*
X132100Y125600D01*
X132900Y126000D01*
X132500Y125200D01*
X132900Y124400D01*
X132100Y124800D01*
X131300Y124400D01*
X156500Y110500D02*
X156900Y111300D01*
X156500Y112100D01*
X157300Y111700D01*
X158100Y112100D01*
X157700Y111300D01*
X158100Y110500D01*
X157300Y110900D01*
X156500Y110500D01*
X193400Y61500D02*
X193800Y62300D01*
X193400Y63100D01*
X194200Y62700D01*
X195000Y63100D01*
X194600Y62300D01*
X195000Y61500D01*
X194200Y61900D01*
X193400Y61500D01*
X44400Y194500D02*
X44800Y195300D01*
X44400Y196100D01*
X45200Y195700D01*
X46000Y196100D01*
X45600Y195300D01*
X46000Y194500D01*
X45200Y194900D01*
X44400Y194500D01*
X229400Y63500D02*
X229800Y64300D01*
X229400Y65100D01*
X230200Y64700D01*
X231000Y65100D01*
X230600Y64300D01*
X231000Y63500D01*
X230200Y63900D01*
X229400Y63500D01*
D74*
X99900Y116400D02*
X99347Y117161D01*
X98453Y116870D01*
Y115930D01*
X99347Y115639D01*
X99900Y116400D01*
X113300Y124100D02*
X112747Y124861D01*
X111853Y124570D01*
Y123630D01*
X112747Y123339D01*
X113300Y124100D01*
X181900Y165000D02*
X181347Y165761D01*
X180453Y165470D01*
Y164530D01*
X181347Y164239D01*
X181900Y165000D01*
X114900Y114800D02*
X114347Y115561D01*
X113453Y115270D01*
Y114330D01*
X114347Y114039D01*
X114900Y114800D01*
X127121Y96900D02*
X126568Y97661D01*
X125674Y97370D01*
Y96430D01*
X126568Y96139D01*
X127121Y96900D01*
X96000Y143000D02*
X95447Y143761D01*
X94553Y143470D01*
Y142530D01*
X95447Y142239D01*
X96000Y143000D01*
X109300Y163700D02*
X108747Y164461D01*
X107853Y164170D01*
Y163230D01*
X108747Y162939D01*
X109300Y163700D01*
X135400Y156900D02*
X134847Y157661D01*
X133953Y157370D01*
Y156430D01*
X134847Y156139D01*
X135400Y156900D01*
X103250Y147650D02*
X102697Y148411D01*
X101803Y148120D01*
Y147180D01*
X102697Y146889D01*
X103250Y147650D01*
X114400Y100100D02*
X113847Y100861D01*
X112953Y100570D01*
Y99630D01*
X113847Y99339D01*
X114400Y100100D01*
X138400Y97800D02*
X137847Y98561D01*
X136953Y98270D01*
Y97330D01*
X137847Y97039D01*
X138400Y97800D01*
X155700Y152900D02*
X155147Y153661D01*
X154253Y153370D01*
Y152430D01*
X155147Y152139D01*
X155700Y152900D01*
X200250Y192150D02*
X199697Y192911D01*
X198803Y192620D01*
Y191680D01*
X199697Y191389D01*
X200250Y192150D01*
X216000Y192300D02*
X215447Y193061D01*
X214553Y192770D01*
Y191830D01*
X215447Y191539D01*
X216000Y192300D01*
X66000Y104300D02*
X65447Y105061D01*
X64553Y104770D01*
Y103830D01*
X65447Y103539D01*
X66000Y104300D01*
X47935Y173365D02*
X47382Y174126D01*
X46488Y173835D01*
Y172895D01*
X47382Y172604D01*
X47935Y173365D01*
M02*
