M48
;Layer_Color=9474304
;FILE_FORMAT=2:5
INCH,LZ
;TYPE=PLATED
T1F00S00C0.01200
T2F00S00C0.01600
T3F00S00C0.02000
T5F00S00C0.02800
T6F00S00C0.03543
%
T01
X01445Y01474
X0146043Y0152449
X0149818Y0145274
X0160421Y0144924
X0165821Y0161424
X0160664Y0183773
X0154664Y0184073
X0149064Y0184573
X0143364Y0184173
X0143064Y0178873
X0146064Y0189673
X0151964Y0189873
X0157764Y0189973
X0175443Y0183449
X0202743Y0199908
T02
X0096164Y0080773
X0141264Y0077773
Y0067373
X0148264
X0155264
Y0059873
X0163264Y0067373
X0169264
X0153264Y0078373
X0177621Y0090324
X01855Y01094
X01982Y01093
X02062
X02112Y01473
X02176Y0149
X02227Y01471
X02014Y01481
X0181621Y0176724
X00815Y01291
X0068764Y0138373
X0065264Y0142373
X0056264
X0060014Y0138373
X0052264
X0048264Y0142373
X0040264Y0143373
X0032264
X0035264Y0138373
X0043264
X00653Y00794
T03
X0079264Y0090373
X0079221Y0109824
X0096521Y0104424
X0095981Y012485
X0096498Y01311
X00947Y01371
X0119543Y0164849
X0135043Y0164949
X0145421Y0158624
X01623Y01519
X0165421Y0132624
X0165645Y0126748
X0164321Y0117124
X0164121Y0100624
X0159321Y0094524
X01495Y0095666
X0119721Y0095524
T05
X0096321Y0153124
X0096521Y0161224
X0123021Y0181824
T06
X00352Y00103
X00452
X00552
X00652
X00752
Y00223
X00652
X00552
X00452
X00352
X00852
X00952
X01052
X01152
X01252
X01352
X01452
X01552
X01652
X01752
X01852
X01952
X02052
X02152
X02252
Y00103
X02152
X02052
X01952
X01852
X01752
X01652
X01552
X01452
X01352
X01252
X01152
X01052
X00952
X00852
X0240031Y014015
X0250031
Y015015
X0240031
Y016015
X0250031
Y017015
X0240031
Y018015
X0250031
Y019015
X0240031
X00752Y02223
X00652
X00552
X00452
X00352
X0035031Y023415
X0045031
X0055031
X0065031
X0075031
X0085031
X0095031
X0105031
X0115031
X0125031
X0135031
X0145031
X0155031
X0165031
X0175031
X0185031
X0195031
X0205031
X0215031
X0225031
X02252Y02223
X02152
X02052
X01952
X01852
X01752
X01652
X01552
X01452
X01352
X01252
X01152
X01052
X00952
X00852
X0240031Y020015
X0250031
M30
