G04*
G04 #@! TF.GenerationSoftware,Altium Limited,Altium Designer,19.1.7 (138)*
G04*
G04 Layer_Color=128*
%FSLAX25Y25*%
%MOIN*%
G70*
G01*
G75*
%ADD73C,0.00200*%
D73*
X122500Y120800D02*
X124100D01*
X123300Y120000D02*
Y121600D01*
X157300Y163000D02*
X160100D01*
X158700Y161600D02*
Y164400D01*
X108800Y147200D02*
X110800D01*
X109800Y146200D02*
Y148200D01*
X118500Y157400D02*
X120500D01*
X119500Y156400D02*
Y158400D01*
X63900Y117800D02*
X65900D01*
X64900Y116800D02*
Y118800D01*
X136600Y106100D02*
X138600D01*
X137600Y105100D02*
Y107100D01*
X197600Y165100D02*
X199600D01*
X198600Y164100D02*
Y166100D01*
X181417Y192217D02*
X183417D01*
X182417Y191217D02*
Y193217D01*
X182800Y62300D02*
X185600D01*
X184200Y60900D02*
Y63700D01*
X65200Y89300D02*
X67200D01*
X66200Y88300D02*
Y90300D01*
X14200Y169300D02*
X16200D01*
X15200Y168300D02*
Y170300D01*
X14800Y191300D02*
X17600D01*
X16200Y189900D02*
Y192700D01*
X244800Y64300D02*
X247600D01*
X246200Y62900D02*
Y65700D01*
M02*
