G04*
G04 #@! TF.GenerationSoftware,Altium Limited,Altium Designer,19.1.7 (138)*
G04*
G04 Layer_Color=2752767*
%FSLAX25Y25*%
%MOIN*%
G70*
G01*
G75*
%ADD73C,0.00200*%
%ADD74C,0.00267*%
D73*
X123300Y120000D02*
X122500Y121600D01*
X124100D01*
X123300Y120000D01*
X157900Y162200D02*
X158300Y163000D01*
X157900Y163800D01*
X158700Y163400D01*
X159500Y163800D01*
X159100Y163000D01*
X159500Y162200D01*
X158700Y162600D01*
X157900Y162200D01*
X183400Y61500D02*
X183800Y62300D01*
X183400Y63100D01*
X184200Y62700D01*
X185000Y63100D01*
X184600Y62300D01*
X185000Y61500D01*
X184200Y61900D01*
X183400Y61500D01*
X15400Y190500D02*
X15800Y191300D01*
X15400Y192100D01*
X16200Y191700D01*
X17000Y192100D01*
X16600Y191300D01*
X17000Y190500D01*
X16200Y190900D01*
X15400Y190500D01*
X245400Y63500D02*
X245800Y64300D01*
X245400Y65100D01*
X246200Y64700D01*
X247000Y65100D01*
X246600Y64300D01*
X247000Y63500D01*
X246200Y63900D01*
X245400Y63500D01*
D74*
X110600Y147200D02*
X110047Y147961D01*
X109153Y147670D01*
Y146730D01*
X110047Y146439D01*
X110600Y147200D01*
X120300Y157400D02*
X119747Y158161D01*
X118853Y157870D01*
Y156930D01*
X119747Y156639D01*
X120300Y157400D01*
X65700Y117800D02*
X65147Y118561D01*
X64253Y118270D01*
Y117330D01*
X65147Y117039D01*
X65700Y117800D01*
X138400Y106100D02*
X137847Y106861D01*
X136953Y106570D01*
Y105630D01*
X137847Y105339D01*
X138400Y106100D01*
X199400Y165100D02*
X198847Y165861D01*
X197953Y165570D01*
Y164630D01*
X198847Y164339D01*
X199400Y165100D01*
X183217Y192217D02*
X182665Y192978D01*
X181770Y192687D01*
Y191747D01*
X182665Y191456D01*
X183217Y192217D01*
X67000Y89300D02*
X66447Y90061D01*
X65553Y89770D01*
Y88830D01*
X66447Y88539D01*
X67000Y89300D01*
X16000Y169300D02*
X15447Y170061D01*
X14553Y169770D01*
Y168830D01*
X15447Y168539D01*
X16000Y169300D01*
M02*
