G04*
G04 #@! TF.GenerationSoftware,Altium Limited,Altium Designer,19.1.7 (138)*
G04*
G04 Layer_Color=2752767*
%FSLAX25Y25*%
%MOIN*%
G70*
G01*
G75*
%ADD73C,0.00200*%
%ADD74C,0.00267*%
D73*
X224400Y9500D02*
Y11100D01*
X226000D01*
Y9500D01*
X224400D01*
X214400D02*
Y11100D01*
X216000D01*
Y9500D01*
X214400D01*
X204400D02*
Y11100D01*
X206000D01*
Y9500D01*
X204400D01*
X194400D02*
Y11100D01*
X196000D01*
Y9500D01*
X194400D01*
X184400D02*
Y11100D01*
X186000D01*
Y9500D01*
X184400D01*
X174400D02*
Y11100D01*
X176000D01*
Y9500D01*
X174400D01*
X164400D02*
Y11100D01*
X166000D01*
Y9500D01*
X164400D01*
X154400D02*
Y11100D01*
X156000D01*
Y9500D01*
X154400D01*
X144400D02*
Y11100D01*
X146000D01*
Y9500D01*
X144400D01*
X134400D02*
Y11100D01*
X136000D01*
Y9500D01*
X134400D01*
X124400D02*
Y11100D01*
X126000D01*
Y9500D01*
X124400D01*
X114400D02*
Y11100D01*
X116000D01*
Y9500D01*
X114400D01*
X104400D02*
Y11100D01*
X106000D01*
Y9500D01*
X104400D01*
X94400D02*
Y11100D01*
X96000D01*
Y9500D01*
X94400D01*
X84400D02*
Y11100D01*
X86000D01*
Y9500D01*
X84400D01*
X74400D02*
Y11100D01*
X76000D01*
Y9500D01*
X74400D01*
X64400D02*
Y11100D01*
X66000D01*
Y9500D01*
X64400D01*
X54400D02*
Y11100D01*
X56000D01*
Y9500D01*
X54400D01*
X44400D02*
Y11100D01*
X46000D01*
Y9500D01*
X44400D01*
X34400D02*
Y11100D01*
X36000D01*
Y9500D01*
X34400D01*
X249231Y139350D02*
Y140950D01*
X250831D01*
Y139350D01*
X249231D01*
X239231D02*
Y140950D01*
X240831D01*
Y139350D01*
X239231D01*
X249231Y149350D02*
Y150950D01*
X250831D01*
Y149350D01*
X249231D01*
X239231D02*
Y150950D01*
X240831D01*
Y149350D01*
X239231D01*
X249231Y159350D02*
Y160950D01*
X250831D01*
Y159350D01*
X249231D01*
X239231D02*
Y160950D01*
X240831D01*
Y159350D01*
X239231D01*
X249231Y169350D02*
Y170950D01*
X250831D01*
Y169350D01*
X249231D01*
X239231D02*
Y170950D01*
X240831D01*
Y169350D01*
X239231D01*
X249231Y179350D02*
Y180950D01*
X250831D01*
Y179350D01*
X249231D01*
X239231D02*
Y180950D01*
X240831D01*
Y179350D01*
X239231D01*
X249231Y189350D02*
Y190950D01*
X250831D01*
Y189350D01*
X249231D01*
X239231D02*
Y190950D01*
X240831D01*
Y189350D01*
X239231D01*
X249231Y199350D02*
Y200950D01*
X250831D01*
Y199350D01*
X249231D01*
X239231D02*
Y200950D01*
X240831D01*
Y199350D01*
X239231D01*
X34400Y221500D02*
Y223100D01*
X36000D01*
Y221500D01*
X34400D01*
X44400D02*
Y223100D01*
X46000D01*
Y221500D01*
X44400D01*
X54400D02*
Y223100D01*
X56000D01*
Y221500D01*
X54400D01*
X64400D02*
Y223100D01*
X66000D01*
Y221500D01*
X64400D01*
X74400D02*
Y223100D01*
X76000D01*
Y221500D01*
X74400D01*
X84400D02*
Y223100D01*
X86000D01*
Y221500D01*
X84400D01*
X94400D02*
Y223100D01*
X96000D01*
Y221500D01*
X94400D01*
X104400D02*
Y223100D01*
X106000D01*
Y221500D01*
X104400D01*
X114400D02*
Y223100D01*
X116000D01*
Y221500D01*
X114400D01*
X124400D02*
Y223100D01*
X126000D01*
Y221500D01*
X124400D01*
X134400D02*
Y223100D01*
X136000D01*
Y221500D01*
X134400D01*
X144400D02*
Y223100D01*
X146000D01*
Y221500D01*
X144400D01*
X154400D02*
Y223100D01*
X156000D01*
Y221500D01*
X154400D01*
X164400D02*
Y223100D01*
X166000D01*
Y221500D01*
X164400D01*
X174400D02*
Y223100D01*
X176000D01*
Y221500D01*
X174400D01*
X184400D02*
Y223100D01*
X186000D01*
Y221500D01*
X184400D01*
X194400D02*
Y223100D01*
X196000D01*
Y221500D01*
X194400D01*
X204400D02*
Y223100D01*
X206000D01*
Y221500D01*
X204400D01*
X214400D02*
Y223100D01*
X216000D01*
Y221500D01*
X214400D01*
X224400D02*
Y223100D01*
X226000D01*
Y221500D01*
X224400D01*
X34231Y233350D02*
Y234950D01*
X35831D01*
Y233350D01*
X34231D01*
X44231D02*
Y234950D01*
X45831D01*
Y233350D01*
X44231D01*
X54231D02*
Y234950D01*
X55831D01*
Y233350D01*
X54231D01*
X64231D02*
Y234950D01*
X65831D01*
Y233350D01*
X64231D01*
X74231D02*
Y234950D01*
X75831D01*
Y233350D01*
X74231D01*
X84231D02*
Y234950D01*
X85831D01*
Y233350D01*
X84231D01*
X94231D02*
Y234950D01*
X95831D01*
Y233350D01*
X94231D01*
X104231D02*
Y234950D01*
X105831D01*
Y233350D01*
X104231D01*
X114231D02*
Y234950D01*
X115831D01*
Y233350D01*
X114231D01*
X124231D02*
Y234950D01*
X125831D01*
Y233350D01*
X124231D01*
X134231D02*
Y234950D01*
X135831D01*
Y233350D01*
X134231D01*
X144231D02*
Y234950D01*
X145831D01*
Y233350D01*
X144231D01*
X154231D02*
Y234950D01*
X155831D01*
Y233350D01*
X154231D01*
X164231D02*
Y234950D01*
X165831D01*
Y233350D01*
X164231D01*
X174231D02*
Y234950D01*
X175831D01*
Y233350D01*
X174231D01*
X184231D02*
Y234950D01*
X185831D01*
Y233350D01*
X184231D01*
X194231D02*
Y234950D01*
X195831D01*
Y233350D01*
X194231D01*
X204231D02*
Y234950D01*
X205831D01*
Y233350D01*
X204231D01*
X214231D02*
Y234950D01*
X215831D01*
Y233350D01*
X214231D01*
X224231D02*
Y234950D01*
X225831D01*
Y233350D01*
X224231D01*
X224400Y21500D02*
Y23100D01*
X226000D01*
Y21500D01*
X224400D01*
X214400D02*
Y23100D01*
X216000D01*
Y21500D01*
X214400D01*
X204400D02*
Y23100D01*
X206000D01*
Y21500D01*
X204400D01*
X194400D02*
Y23100D01*
X196000D01*
Y21500D01*
X194400D01*
X184400D02*
Y23100D01*
X186000D01*
Y21500D01*
X184400D01*
X174400D02*
Y23100D01*
X176000D01*
Y21500D01*
X174400D01*
X164400D02*
Y23100D01*
X166000D01*
Y21500D01*
X164400D01*
X154400D02*
Y23100D01*
X156000D01*
Y21500D01*
X154400D01*
X144400D02*
Y23100D01*
X146000D01*
Y21500D01*
X144400D01*
X134400D02*
Y23100D01*
X136000D01*
Y21500D01*
X134400D01*
X124400D02*
Y23100D01*
X126000D01*
Y21500D01*
X124400D01*
X114400D02*
Y23100D01*
X116000D01*
Y21500D01*
X114400D01*
X104400D02*
Y23100D01*
X106000D01*
Y21500D01*
X104400D01*
X94400D02*
Y23100D01*
X96000D01*
Y21500D01*
X94400D01*
X84400D02*
Y23100D01*
X86000D01*
Y21500D01*
X84400D01*
X74400D02*
Y23100D01*
X76000D01*
Y21500D01*
X74400D01*
X64400D02*
Y23100D01*
X66000D01*
Y21500D01*
X64400D01*
X54400D02*
Y23100D01*
X56000D01*
Y21500D01*
X54400D01*
X44400D02*
Y23100D01*
X46000D01*
Y21500D01*
X44400D01*
X34400D02*
Y23100D01*
X36000D01*
Y21500D01*
X34400D01*
X185500Y108600D02*
X184700Y110200D01*
X186300D01*
X185500Y108600D01*
X144500Y146600D02*
X144900Y147000D01*
X145300D01*
X144900Y147400D01*
X145300Y147800D01*
X144900D01*
X144500Y148200D01*
X144100Y147800D01*
X143700D01*
X144100Y147400D01*
X143700Y147000D01*
X144100D01*
X144500Y146600D01*
X95721Y160424D02*
X96121Y161224D01*
X95721Y162024D01*
X96521Y161624D01*
X97321Y162024D01*
X96921Y161224D01*
X97321Y160424D01*
X96521Y160824D01*
X95721Y160424D01*
X181621Y175924D02*
X180821Y177524D01*
X182421D01*
X181621Y175924D01*
X154664Y183273D02*
X155064Y183673D01*
X155464D01*
X155064Y184073D01*
X155464Y184473D01*
X155064D01*
X154664Y184873D01*
X154264Y184473D01*
X153864D01*
X154264Y184073D01*
X153864Y183673D01*
X154264D01*
X154664Y183273D01*
X165821Y160624D02*
X166221Y161024D01*
X166621D01*
X166221Y161424D01*
X166621Y161824D01*
X166221D01*
X165821Y162224D01*
X165421Y161824D01*
X165021D01*
X165421Y161424D01*
X165021Y161024D01*
X165421D01*
X165821Y160624D01*
X160421Y144124D02*
X160821Y144524D01*
X161221D01*
X160821Y144924D01*
X161221Y145324D01*
X160821D01*
X160421Y145724D01*
X160021Y145324D01*
X159621D01*
X160021Y144924D01*
X159621Y144524D01*
X160021D01*
X160421Y144124D01*
X155264Y59073D02*
X154464Y60673D01*
X156064D01*
X155264Y59073D01*
X40264Y142573D02*
X39464Y144173D01*
X41064D01*
X40264Y142573D01*
X96164Y79973D02*
X95364Y81573D01*
X96964D01*
X96164Y79973D01*
X32264Y142573D02*
X31464Y144173D01*
X33064D01*
X32264Y142573D01*
X48264Y141573D02*
X47464Y143173D01*
X49064D01*
X48264Y141573D01*
X141264Y66573D02*
X140464Y68173D01*
X142064D01*
X141264Y66573D01*
X65264Y141573D02*
X64464Y143173D01*
X66064D01*
X65264Y141573D01*
X157764Y189173D02*
X158164Y189573D01*
X158564D01*
X158164Y189973D01*
X158564Y190373D01*
X158164D01*
X157764Y190773D01*
X157364Y190373D01*
X156964D01*
X157364Y189973D01*
X156964Y189573D01*
X157364D01*
X157764Y189173D01*
X160664Y182973D02*
X161064Y183373D01*
X161464D01*
X161064Y183773D01*
X161464Y184173D01*
X161064D01*
X160664Y184573D01*
X160264Y184173D01*
X159864D01*
X160264Y183773D01*
X159864Y183373D01*
X160264D01*
X160664Y182973D01*
X35264Y137573D02*
X34464Y139173D01*
X36064D01*
X35264Y137573D01*
X202743Y199108D02*
X203142Y199508D01*
X203542D01*
X203142Y199908D01*
X203542Y200308D01*
X203142D01*
X202743Y200708D01*
X202343Y200308D01*
X201942D01*
X202343Y199908D01*
X201942Y199508D01*
X202343D01*
X202743Y199108D01*
X149818Y144474D02*
X150217Y144874D01*
X150618D01*
X150217Y145274D01*
X150618Y145674D01*
X150217D01*
X149818Y146074D01*
X149417Y145674D01*
X149018D01*
X149417Y145274D01*
X149018Y144874D01*
X149417D01*
X149818Y144474D01*
X177621Y89524D02*
X176821Y91124D01*
X178421D01*
X177621Y89524D01*
X146043Y151649D02*
X146442Y152049D01*
X146843D01*
X146442Y152449D01*
X146843Y152849D01*
X146442D01*
X146043Y153249D01*
X145642Y152849D01*
X145243D01*
X145642Y152449D01*
X145243Y152049D01*
X145642D01*
X146043Y151649D01*
X141264Y76973D02*
X140464Y78573D01*
X142064D01*
X141264Y76973D01*
X149064Y183773D02*
X149464Y184173D01*
X149864D01*
X149464Y184573D01*
X149864Y184973D01*
X149464D01*
X149064Y185373D01*
X148664Y184973D01*
X148264D01*
X148664Y184573D01*
X148264Y184173D01*
X148664D01*
X149064Y183773D01*
X95521Y152324D02*
X95921Y153124D01*
X95521Y153924D01*
X96321Y153524D01*
X97121Y153924D01*
X96721Y153124D01*
X97121Y152324D01*
X96321Y152724D01*
X95521Y152324D01*
X146064Y188873D02*
X146464Y189273D01*
X146864D01*
X146464Y189673D01*
X146864Y190073D01*
X146464D01*
X146064Y190473D01*
X145664Y190073D01*
X145264D01*
X145664Y189673D01*
X145264Y189273D01*
X145664D01*
X146064Y188873D01*
X163264Y66573D02*
X162464Y68173D01*
X164064D01*
X163264Y66573D01*
X60014Y137573D02*
X59214Y139173D01*
X60814D01*
X60014Y137573D01*
X143064Y178073D02*
X143464Y178473D01*
X143864D01*
X143464Y178873D01*
X143864Y179273D01*
X143464D01*
X143064Y179673D01*
X142664Y179273D01*
X142264D01*
X142664Y178873D01*
X142264Y178473D01*
X142664D01*
X143064Y178073D01*
X143364Y183373D02*
X143764Y183773D01*
X144164D01*
X143764Y184173D01*
X144164Y184573D01*
X143764D01*
X143364Y184973D01*
X142964Y184573D01*
X142564D01*
X142964Y184173D01*
X142564Y183773D01*
X142964D01*
X143364Y183373D01*
X151964Y189073D02*
X152364Y189473D01*
X152764D01*
X152364Y189873D01*
X152764Y190273D01*
X152364D01*
X151964Y190673D01*
X151564Y190273D01*
X151164D01*
X151564Y189873D01*
X151164Y189473D01*
X151564D01*
X151964Y189073D01*
X169264Y66573D02*
X168464Y68173D01*
X170064D01*
X169264Y66573D01*
X43264Y137573D02*
X42464Y139173D01*
X44064D01*
X43264Y137573D01*
X155264Y66573D02*
X154464Y68173D01*
X156064D01*
X155264Y66573D01*
X52264Y137573D02*
X51464Y139173D01*
X53064D01*
X52264Y137573D01*
X56264Y141573D02*
X55464Y143173D01*
X57064D01*
X56264Y141573D01*
X122221Y181024D02*
X122621Y181824D01*
X122221Y182624D01*
X123021Y182224D01*
X123821Y182624D01*
X123421Y181824D01*
X123821Y181024D01*
X123021Y181424D01*
X122221Y181024D01*
X175443Y182649D02*
X175842Y183049D01*
X176242D01*
X175842Y183449D01*
X176242Y183849D01*
X175842D01*
X175443Y184249D01*
X175042Y183849D01*
X174643D01*
X175042Y183449D01*
X174643Y183049D01*
X175042D01*
X175443Y182649D01*
X68764Y137573D02*
X67964Y139173D01*
X69564D01*
X68764Y137573D01*
X153264Y77573D02*
X152464Y79173D01*
X154064D01*
X153264Y77573D01*
X148264Y66573D02*
X147464Y68173D01*
X149064D01*
X148264Y66573D01*
X222700Y146300D02*
X221900Y147900D01*
X223500D01*
X222700Y146300D01*
X81500Y128300D02*
X80700Y129900D01*
X82300D01*
X81500Y128300D01*
X201400Y147300D02*
X200600Y148900D01*
X202200D01*
X201400Y147300D01*
X65300Y78600D02*
X64500Y80200D01*
X66100D01*
X65300Y78600D01*
X217600Y148200D02*
X216800Y149800D01*
X218400D01*
X217600Y148200D01*
X211200Y146500D02*
X210400Y148100D01*
X212000D01*
X211200Y146500D01*
X206200Y108500D02*
X205400Y110100D01*
X207000D01*
X206200Y108500D01*
X198200D02*
X197400Y110100D01*
X199000D01*
X198200Y108500D01*
D74*
X97298Y131100D02*
X96746Y131861D01*
X95851Y131570D01*
Y130630D01*
X96746Y130339D01*
X97298Y131100D01*
X150300Y95666D02*
X149747Y96426D01*
X148853Y96136D01*
Y95196D01*
X149747Y94905D01*
X150300Y95666D01*
X96781Y124850D02*
X96229Y125611D01*
X95334Y125320D01*
Y124380D01*
X96229Y124089D01*
X96781Y124850D01*
X166221Y132624D02*
X165668Y133385D01*
X164774Y133095D01*
Y132154D01*
X165668Y131864D01*
X166221Y132624D01*
X160121Y94524D02*
X159569Y95285D01*
X158674Y94995D01*
Y94054D01*
X159569Y93764D01*
X160121Y94524D01*
X166445Y126748D02*
X165892Y127509D01*
X164998Y127218D01*
Y126278D01*
X165892Y125987D01*
X166445Y126748D01*
X163100Y151900D02*
X162547Y152661D01*
X161653Y152370D01*
Y151430D01*
X162547Y151139D01*
X163100Y151900D01*
X80064Y90373D02*
X79511Y91134D01*
X78617Y90843D01*
Y89903D01*
X79511Y89612D01*
X80064Y90373D01*
X95500Y137100D02*
X94947Y137861D01*
X94053Y137570D01*
Y136630D01*
X94947Y136339D01*
X95500Y137100D01*
X120521Y95524D02*
X119968Y96285D01*
X119074Y95995D01*
Y95054D01*
X119968Y94764D01*
X120521Y95524D01*
X146221Y158624D02*
X145668Y159385D01*
X144774Y159095D01*
Y158154D01*
X145668Y157864D01*
X146221Y158624D01*
X135843Y164949D02*
X135290Y165710D01*
X134395Y165419D01*
Y164479D01*
X135290Y164188D01*
X135843Y164949D01*
X165121Y117124D02*
X164568Y117885D01*
X163674Y117595D01*
Y116654D01*
X164568Y116364D01*
X165121Y117124D01*
X80021Y109824D02*
X79469Y110585D01*
X78574Y110295D01*
Y109354D01*
X79469Y109064D01*
X80021Y109824D01*
X164921Y100624D02*
X164368Y101385D01*
X163474Y101095D01*
Y100154D01*
X164368Y99864D01*
X164921Y100624D01*
X97321Y104424D02*
X96768Y105185D01*
X95874Y104895D01*
Y103954D01*
X96768Y103664D01*
X97321Y104424D01*
X120343Y164849D02*
X119790Y165610D01*
X118895Y165319D01*
Y164379D01*
X119790Y164088D01*
X120343Y164849D01*
M02*
