M48
;Layer_Color=9474304
;FILE_FORMAT=2:5
INCH,LZ
;TYPE=PLATED
T2F00S00C0.01600
T3F00S00C0.02000
T5F00S00C0.02800
%
T02
X02034Y01539
X02071Y01722
X01675Y01922
T03
X01136Y01001
X01141Y01148
X01125Y01241
X00991Y01164
X00952Y0143
X010245Y014765
X01085Y01637
X01346Y01569
X01549Y01529
X01811Y0165
X019945Y019215
X02152Y01923
X01376Y00978
X0126321Y00969
X00652Y01043
X0047135Y0173365
T05
X01942Y00623
X02302Y00643
X02221Y0098
X01573Y01113
X01321Y01252
X014125Y013905
X01251Y01893
X00452Y01953
M30
