G04*
G04 #@! TF.GenerationSoftware,Altium Limited,Altium Designer,19.1.7 (138)*
G04*
G04 Layer_Color=65535*
%FSLAX25Y25*%
%MOIN*%
G70*
G01*
G75*
%ADD10C,0.01181*%
%ADD11C,0.00984*%
%ADD12C,0.00787*%
%ADD13C,0.00394*%
%ADD14C,0.00800*%
%ADD15C,0.01000*%
D10*
X214995Y155364D02*
Y155757D01*
Y155364D01*
D11*
X86620Y167026D02*
X85882Y167452D01*
Y166600D01*
X86620Y167026D01*
D12*
X37700Y15300D02*
X230200D01*
X30200D02*
X37700D01*
X30200Y5300D02*
Y15300D01*
Y5300D02*
X230200D01*
Y15300D01*
X199054Y122501D02*
Y135099D01*
X218346D01*
Y122501D02*
Y135099D01*
X199054Y122501D02*
X218346D01*
X198543Y115119D02*
Y121123D01*
X255031Y135150D02*
X260031D01*
Y205150D01*
X255031D02*
X260031D01*
X255031Y137650D02*
X257531Y135150D01*
X260031Y138484D02*
X273364D01*
X275031Y140150D01*
X273364Y141817D02*
X275031Y140150D01*
X260031Y141817D02*
X273364D01*
X260031Y148484D02*
X273364D01*
X275031Y150150D01*
X273364Y151817D02*
X275031Y150150D01*
X260031Y151817D02*
X273364D01*
X260031Y158484D02*
X273364D01*
X275031Y160150D01*
X273364Y161817D02*
X275031Y160150D01*
X260031Y161817D02*
X273364D01*
X260031Y168484D02*
X273364D01*
X275031Y170150D01*
X273364Y171817D02*
X275031Y170150D01*
X260031Y171817D02*
X273364D01*
X260031Y178484D02*
X273364D01*
X275031Y180150D01*
X273364Y181817D02*
X275031Y180150D01*
X260031Y181817D02*
X273364D01*
X260031Y188484D02*
X273364D01*
X275031Y190150D01*
X273364Y191817D02*
X275031Y190150D01*
X260031Y191817D02*
X273364D01*
X260031Y198484D02*
X273364D01*
X275031Y200150D01*
X273364Y201817D02*
X275031Y200150D01*
X260031Y201817D02*
X273364D01*
X255031Y135150D02*
Y205150D01*
X230200Y217300D02*
Y227300D01*
X30200Y217300D02*
X230200D01*
X30200D02*
Y227300D01*
X37700D01*
X230200D01*
X230031Y229150D02*
Y239150D01*
X30031Y229150D02*
X230031D01*
X30031D02*
Y239150D01*
X37531D01*
X230031D01*
X30200Y17300D02*
Y27300D01*
X230200D01*
Y17300D02*
Y27300D01*
X222700Y17300D02*
X230200D01*
X30200D02*
X222700D01*
X92329Y167616D02*
X168313D01*
Y91632D02*
Y167616D01*
X92329Y91632D02*
X168313D01*
X92329D02*
Y167616D01*
X244672Y92237D02*
Y98930D01*
X252153Y100898D02*
X253728Y98930D01*
X244672D02*
X246247Y100898D01*
X253728Y92237D02*
Y98930D01*
X246247Y100898D02*
X252153D01*
X244672Y76883D02*
X253728D01*
X244672D02*
Y84363D01*
X253728Y76883D02*
Y84363D01*
X17728Y129670D02*
Y136363D01*
X8672Y129670D02*
X10247Y127702D01*
X16153D02*
X17728Y129670D01*
X8672D02*
Y136363D01*
X10247Y127702D02*
X16153D01*
X8672Y151717D02*
X17728D01*
Y144237D02*
Y151717D01*
X8672Y144237D02*
Y151717D01*
D13*
X211057Y159301D02*
Y171899D01*
X230743Y159301D02*
Y171899D01*
D14*
X242031Y133483D02*
Y130150D01*
X238698Y133483D01*
X237865D01*
X237032Y132650D01*
Y130983D01*
X237865Y130150D01*
X252031D02*
Y131816D01*
Y130983D01*
X247032D01*
X247865Y130150D01*
X252200Y205800D02*
Y207466D01*
Y206633D01*
X247202D01*
X248035Y205800D01*
Y209965D02*
X247202Y210798D01*
Y212464D01*
X248035Y213298D01*
X248868D01*
X249701Y212464D01*
Y211631D01*
Y212464D01*
X250534Y213298D01*
X251367D01*
X252200Y212464D01*
Y210798D01*
X251367Y209965D01*
X242200Y205800D02*
Y207466D01*
Y206633D01*
X237202D01*
X238035Y205800D01*
X242200Y212464D02*
X237202D01*
X239701Y209965D01*
Y213298D01*
D15*
X19000Y8400D02*
Y14398D01*
X21999D01*
X22999Y13398D01*
Y11399D01*
X21999Y10399D01*
X19000D01*
X24998Y8400D02*
X26997D01*
X25998D01*
Y14398D01*
X24998Y13398D01*
X66200Y175700D02*
Y179699D01*
X68199D01*
X68866Y179032D01*
Y177699D01*
X68199Y177033D01*
X66200D01*
X67533D02*
X68866Y175700D01*
X72865D02*
X70199D01*
X72865Y178366D01*
Y179032D01*
X72198Y179699D01*
X70865D01*
X70199Y179032D01*
X74197D02*
X74864Y179699D01*
X76197D01*
X76863Y179032D01*
Y178366D01*
X76197Y177699D01*
X76863Y177033D01*
Y176366D01*
X76197Y175700D01*
X74864D01*
X74197Y176366D01*
Y177033D01*
X74864Y177699D01*
X74197Y178366D01*
Y179032D01*
X74864Y177699D02*
X76197D01*
X11999Y66498D02*
X10999Y67498D01*
X9000D01*
X8000Y66498D01*
Y65499D01*
X9000Y64499D01*
X10999D01*
X11999Y63499D01*
Y62500D01*
X10999Y61500D01*
X9000D01*
X8000Y62500D01*
X17997Y61500D02*
X13998D01*
X17997Y65499D01*
Y66498D01*
X16997Y67498D01*
X14998D01*
X13998Y66498D01*
X17700Y231900D02*
Y237898D01*
X20699D01*
X21699Y236898D01*
Y234899D01*
X20699Y233899D01*
X17700D01*
X27697Y237898D02*
X23698D01*
Y234899D01*
X25697Y235899D01*
X26697D01*
X27697Y234899D01*
Y232900D01*
X26697Y231900D01*
X24698D01*
X23698Y232900D01*
X17700Y219200D02*
Y225198D01*
X20699D01*
X21699Y224198D01*
Y222199D01*
X20699Y221199D01*
X17700D01*
X26697Y219200D02*
Y225198D01*
X23698Y222199D01*
X27697D01*
X12999Y119798D02*
X11999Y120798D01*
X10000D01*
X9000Y119798D01*
Y118799D01*
X10000Y117799D01*
X11999D01*
X12999Y116799D01*
Y115800D01*
X11999Y114800D01*
X10000D01*
X9000Y115800D01*
X14998Y114800D02*
X16997D01*
X15998D01*
Y120798D01*
X14998Y119798D01*
X207950Y186848D02*
Y185848D01*
X209949Y183849D01*
X211949Y185848D01*
Y186848D01*
X209949Y183849D02*
Y180850D01*
X213948D02*
X215947D01*
X214948D01*
Y186848D01*
X213948Y185848D01*
X76800Y164000D02*
Y160001D01*
X74801D01*
X74134Y160668D01*
Y162001D01*
X74801Y162667D01*
X76800D01*
X75467D02*
X74134Y164000D01*
X72801Y160668D02*
X72135Y160001D01*
X70802D01*
X70135Y160668D01*
Y161334D01*
X70802Y162001D01*
X71468D01*
X70802D01*
X70135Y162667D01*
Y163333D01*
X70802Y164000D01*
X72135D01*
X72801Y163333D01*
X66803Y164000D02*
Y160001D01*
X68803Y162001D01*
X66137D01*
X22300Y150700D02*
Y154699D01*
X24299D01*
X24966Y154032D01*
Y152699D01*
X24299Y152033D01*
X22300D01*
X23633D02*
X24966Y150700D01*
X26299Y154032D02*
X26965Y154699D01*
X28298D01*
X28964Y154032D01*
Y153366D01*
X28298Y152699D01*
X27632D01*
X28298D01*
X28964Y152033D01*
Y151366D01*
X28298Y150700D01*
X26965D01*
X26299Y151366D01*
X30297Y154032D02*
X30964Y154699D01*
X32297D01*
X32963Y154032D01*
Y153366D01*
X32297Y152699D01*
X31630D01*
X32297D01*
X32963Y152033D01*
Y151366D01*
X32297Y150700D01*
X30964D01*
X30297Y151366D01*
X91300Y69700D02*
X88301D01*
Y71200D01*
X88801Y71699D01*
X89801D01*
X90300Y71200D01*
Y69700D01*
Y70700D02*
X91300Y71699D01*
X88801Y72699D02*
X88301Y73199D01*
Y74199D01*
X88801Y74698D01*
X89301D01*
X89801Y74199D01*
Y73699D01*
Y74199D01*
X90300Y74698D01*
X90800D01*
X91300Y74199D01*
Y73199D01*
X90800Y72699D01*
X88801Y75698D02*
X88301Y76198D01*
Y77198D01*
X88801Y77697D01*
X90800D01*
X91300Y77198D01*
Y76198D01*
X90800Y75698D01*
X88801D01*
X21300Y91500D02*
Y95499D01*
X23299D01*
X23966Y94832D01*
Y93499D01*
X23299Y92833D01*
X21300D01*
X22633D02*
X23966Y91500D01*
X27964D02*
X25299D01*
X27964Y94166D01*
Y94832D01*
X27298Y95499D01*
X25965D01*
X25299Y94832D01*
X31963Y95499D02*
X29297D01*
Y93499D01*
X30630Y94166D01*
X31297D01*
X31963Y93499D01*
Y92166D01*
X31297Y91500D01*
X29964D01*
X29297Y92166D01*
X233700Y142800D02*
Y138801D01*
X231701D01*
X231034Y139468D01*
Y140801D01*
X231701Y141467D01*
X233700D01*
X232367D02*
X231034Y142800D01*
X227035D02*
X229701D01*
X227035Y140134D01*
Y139468D01*
X227702Y138801D01*
X229035D01*
X229701Y139468D01*
X225703Y142800D02*
X224370D01*
X225036D01*
Y138801D01*
X225703Y139468D01*
X24000Y59000D02*
Y62999D01*
X25999D01*
X26666Y62332D01*
Y60999D01*
X25999Y60333D01*
X24000D01*
X25333D02*
X26666Y59000D01*
X27999Y62332D02*
X28665Y62999D01*
X29998D01*
X30665Y62332D01*
Y61666D01*
X29998Y60999D01*
X30665Y60333D01*
Y59666D01*
X29998Y59000D01*
X28665D01*
X27999Y59666D01*
Y60333D01*
X28665Y60999D01*
X27999Y61666D01*
Y62332D01*
X28665Y60999D02*
X29998D01*
X33500Y73600D02*
X37499D01*
Y71601D01*
X36832Y70934D01*
X35499D01*
X34833Y71601D01*
Y73600D01*
Y72267D02*
X33500Y70934D01*
X37499Y69601D02*
Y66935D01*
X36832D01*
X34166Y69601D01*
X33500D01*
X226600Y84900D02*
Y88899D01*
X228599D01*
X229266Y88232D01*
Y86899D01*
X228599Y86233D01*
X226600D01*
X227933D02*
X229266Y84900D01*
X232598D02*
Y88899D01*
X230599Y86899D01*
X233264D01*
X190600Y152800D02*
X186601D01*
Y154799D01*
X187268Y155466D01*
X188601D01*
X189267Y154799D01*
Y152800D01*
Y154133D02*
X190600Y155466D01*
X187268Y156799D02*
X186601Y157465D01*
Y158798D01*
X187268Y159465D01*
X187934D01*
X188601Y158798D01*
Y158132D01*
Y158798D01*
X189267Y159465D01*
X189934D01*
X190600Y158798D01*
Y157465D01*
X189934Y156799D01*
X70000Y122000D02*
Y125999D01*
X71999D01*
X72666Y125332D01*
Y123999D01*
X71999Y123333D01*
X70000D01*
X71333D02*
X72666Y122000D01*
X76665D02*
X73999D01*
X76665Y124666D01*
Y125332D01*
X75998Y125999D01*
X74665D01*
X73999Y125332D01*
X70800Y132600D02*
Y136599D01*
X72799D01*
X73466Y135932D01*
Y134599D01*
X72799Y133933D01*
X70800D01*
X72133D02*
X73466Y132600D01*
X74799D02*
X76132D01*
X75465D01*
Y136599D01*
X74799Y135932D01*
X240200Y215300D02*
Y221298D01*
X243199D01*
X244199Y220298D01*
Y218299D01*
X243199Y217299D01*
X240200D01*
X246198Y220298D02*
X247198Y221298D01*
X249197D01*
X250197Y220298D01*
Y219299D01*
X249197Y218299D01*
X248197D01*
X249197D01*
X250197Y217299D01*
Y216300D01*
X249197Y215300D01*
X247198D01*
X246198Y216300D01*
X17800Y19900D02*
Y25898D01*
X20799D01*
X21799Y24898D01*
Y22899D01*
X20799Y21899D01*
X17800D01*
X27797Y19900D02*
X23798D01*
X27797Y23899D01*
Y24898D01*
X26797Y25898D01*
X24798D01*
X23798Y24898D01*
X9300Y161108D02*
Y155110D01*
X13299D01*
X15298Y160109D02*
X16298Y161108D01*
X18297D01*
X19297Y160109D01*
Y159109D01*
X18297Y158109D01*
X17297D01*
X18297D01*
X19297Y157110D01*
Y156110D01*
X18297Y155110D01*
X16298D01*
X15298Y156110D01*
X245250Y110248D02*
Y104250D01*
X249249D01*
X251248D02*
X253247D01*
X252248D01*
Y110248D01*
X251248Y109248D01*
X189202Y120800D02*
Y122799D01*
Y121800D01*
X195200D01*
Y120800D01*
Y122799D01*
X190202Y129797D02*
X189202Y128797D01*
Y126798D01*
X190202Y125798D01*
X194200D01*
X195200Y126798D01*
Y128797D01*
X194200Y129797D01*
X195200Y135795D02*
Y131796D01*
X191201Y135795D01*
X190202D01*
X189202Y134795D01*
Y132796D01*
X190202Y131796D01*
X85100Y184898D02*
X87099D01*
X86100D01*
Y178900D01*
X85100D01*
X87099D01*
X94097Y183898D02*
X93097Y184898D01*
X91098D01*
X90098Y183898D01*
Y179900D01*
X91098Y178900D01*
X93097D01*
X94097Y179900D01*
X96096Y178900D02*
X98096D01*
X97096D01*
Y184898D01*
X96096Y183898D01*
X35232Y43934D02*
X35899Y44601D01*
Y45934D01*
X35232Y46600D01*
X32566D01*
X31900Y45934D01*
Y44601D01*
X32566Y43934D01*
X31900Y39935D02*
Y42601D01*
X34566Y39935D01*
X35232D01*
X35899Y40602D01*
Y41935D01*
X35232Y42601D01*
X35899Y38603D02*
Y35937D01*
X35232D01*
X32566Y38603D01*
X31900D01*
M02*
