G04*
G04 #@! TF.GenerationSoftware,Altium Limited,Altium Designer,19.1.7 (138)*
G04*
G04 Layer_Physical_Order=1*
G04 Layer_Color=255*
%FSLAX25Y25*%
%MOIN*%
G70*
G01*
G75*
%ADD15C,0.01000*%
%ADD16R,0.02461X0.01575*%
%ADD17R,0.01575X0.02461*%
%ADD18R,0.03937X0.06299*%
%ADD19R,0.01968X0.02362*%
%ADD20R,0.02559X0.06004*%
%ADD21R,0.07874X0.03150*%
%ADD22R,0.05906X0.06299*%
%ADD23R,0.05807X0.01181*%
%ADD24R,0.01181X0.05807*%
%ADD25R,0.05906X0.05906*%
%ADD41C,0.02000*%
%ADD42C,0.01500*%
%ADD43C,0.01400*%
%ADD44C,0.01300*%
%ADD45C,0.00500*%
%ADD46C,0.05906*%
%ADD47R,0.05906X0.05906*%
%ADD48C,0.05000*%
%ADD49C,0.04000*%
%ADD50C,0.02400*%
D15*
X95997Y131100D02*
X96498D01*
X95447Y130550D02*
X95997Y131100D01*
X133274Y171900D02*
X133307Y171867D01*
X96121Y153024D02*
Y154379D01*
X158865Y94068D02*
X159321Y94524D01*
X164121Y100624D02*
X164578Y101081D01*
X149500Y95231D02*
Y95666D01*
X127368Y87349D02*
Y87394D01*
X154922Y81947D02*
X164764Y72106D01*
X154922Y81947D02*
Y87347D01*
X154949Y87373D01*
X160945Y90404D02*
X162366Y91824D01*
X160945Y87464D02*
Y90404D01*
X164764Y71873D02*
X169264Y67373D01*
X164764Y71873D02*
Y72106D01*
X152980Y81768D02*
Y87373D01*
X163264Y67373D02*
Y71485D01*
X152980Y81768D02*
X163264Y71485D01*
X149043Y82594D02*
Y87373D01*
X185500Y109400D02*
X198100D01*
X198200Y109300D01*
X158700Y163000D02*
X159782D01*
X160856Y164073D01*
X203800Y182100D02*
X224600D01*
X186800Y165100D02*
X203800Y182100D01*
X224600D02*
X233500Y191000D01*
X172576Y146332D02*
X177432D01*
X144574Y147474D02*
X152172D01*
X157821Y141824D01*
X144500Y147400D02*
X144574Y147474D01*
X158700Y163000D02*
Y163046D01*
X156987Y164759D02*
X158700Y163046D01*
X162300Y151900D02*
X162879D01*
X215900Y170521D02*
Y170718D01*
X172576Y142395D02*
X172666Y142486D01*
X228500Y178400D02*
X235700Y185600D01*
X206700Y178400D02*
X228500D01*
X190533Y162233D02*
X206700Y178400D01*
X66900Y130500D02*
Y130900D01*
X76451Y140451D01*
X88046D01*
X88067Y160161D02*
X88091Y160136D01*
X95439Y161224D02*
X96521D01*
X94351Y160136D02*
X95439Y161224D01*
X181821Y135824D02*
Y137324D01*
X53114Y156224D02*
X88067D01*
X54146Y154255D02*
X88067D01*
X56177Y152287D02*
X88067D01*
X48264Y144373D02*
X56177Y152287D01*
X48264Y142373D02*
Y144373D01*
X44264D02*
X54146Y154255D01*
X44264Y139373D02*
Y144373D01*
X40264Y143373D02*
X53114Y156224D01*
X54020Y162129D02*
X88067D01*
X52988Y164098D02*
X88067D01*
X32264Y143373D02*
X52988Y164098D01*
X36264Y144373D02*
X54020Y162129D01*
X36264Y142373D02*
Y144373D01*
X35264Y141373D02*
X36264Y142373D01*
X35264Y138373D02*
Y141373D01*
X88046Y158168D02*
X88136Y158077D01*
X176124Y160227D02*
X176821Y160924D01*
X172687Y160227D02*
X176124D01*
X172597Y160136D02*
X172687Y160227D01*
X176821Y160924D02*
Y166324D01*
X175021Y168124D02*
X176821Y166324D01*
X175021Y168124D02*
Y173524D01*
X177621Y176124D01*
X181021D01*
X181621Y176724D01*
X160664Y183773D02*
X160854Y183583D01*
X156621Y140324D02*
X165091D01*
X181421Y136224D02*
Y137324D01*
X181521Y98424D02*
Y99374D01*
X133021Y195668D02*
Y195724D01*
X157764Y182073D02*
Y189973D01*
X162913Y172015D02*
Y174955D01*
X145016Y87283D02*
X145106Y87192D01*
X145016Y172015D02*
X145106Y171924D01*
X143964Y182524D02*
X147075Y179413D01*
X154858Y172015D02*
X154949Y171924D01*
X155264Y67373D02*
Y72373D01*
X172528Y150228D02*
X172618Y150318D01*
X160421Y144924D02*
X162821D01*
X172528Y138598D02*
X172618Y138507D01*
X141164Y77873D02*
Y87368D01*
X137232Y77155D02*
X146746Y67641D01*
X111620Y158625D02*
X120021Y150224D01*
X168939Y138598D02*
X172528D01*
X146746Y67641D02*
X147996D01*
X149043Y171924D02*
Y179566D01*
X154664Y184073D02*
X154858Y183879D01*
X141264Y67373D02*
Y68373D01*
X143364Y184173D02*
X143964Y183573D01*
X165821Y161424D02*
X166435Y162039D01*
X157821Y141824D02*
X165713D01*
X135264Y74373D02*
Y87373D01*
X162913Y174955D02*
X171407Y183449D01*
X162821Y144924D02*
X168124Y150228D01*
X168787Y136629D02*
X172528D01*
X173321Y74124D02*
X173621Y73824D01*
X141164Y77873D02*
X141264Y77773D01*
X129337Y171897D02*
Y171900D01*
X152980Y171924D02*
Y181157D01*
X168124Y150228D02*
X172528D01*
X105703Y87361D02*
X105715Y87349D01*
X181521Y99374D02*
Y100118D01*
X96164Y80773D02*
Y81573D01*
X171407Y183449D02*
X175443D01*
X164791Y171924D02*
X170218D01*
X155264Y59873D02*
Y60373D01*
X113680Y167997D02*
Y171855D01*
X149043Y82594D02*
X153264Y78373D01*
X87955Y116920D02*
X88046Y116829D01*
X151012Y171924D02*
Y180443D01*
X172597Y95176D02*
X178272D01*
X141164Y87368D02*
X141169Y87373D01*
X146064Y182545D02*
Y189673D01*
X162823Y171924D02*
X162913Y172015D01*
X163397Y148124D02*
X167521Y152249D01*
X145106Y82531D02*
X155264Y72373D01*
X127121Y77324D02*
X127421D01*
X121463Y171897D02*
Y171900D01*
X146064Y182545D02*
X149043Y179566D01*
X79221Y108624D02*
Y109824D01*
X88046Y130609D02*
X88136Y130699D01*
X146043Y152449D02*
X146242Y152249D01*
X145106Y82531D02*
Y87192D01*
X56264Y142373D02*
X62240Y148350D01*
X135173Y87283D02*
X135264Y87373D01*
X62240Y148350D02*
X88067D01*
X167521Y152249D02*
X172580D01*
X71335Y142444D02*
X88067D01*
X137232Y77155D02*
Y87373D01*
X115695Y167997D02*
X119243Y164449D01*
X97862Y83272D02*
Y87373D01*
X125309Y171991D02*
X125400Y171900D01*
X150097Y152249D02*
X154221Y148124D01*
X52264Y143373D02*
X59209Y150318D01*
X143964Y182524D02*
Y183573D01*
X67303Y144413D02*
X88067D01*
X157764Y182073D02*
X158886Y180951D01*
X180942Y181149D02*
X199701Y199908D01*
X120021Y150224D02*
X123421D01*
X145016Y172015D02*
Y176921D01*
X170218Y171924D02*
X179443Y181149D01*
X60014Y138373D02*
X61264Y139623D01*
X154221Y148124D02*
X163397D01*
X172520Y126748D02*
X172597Y126672D01*
X65264Y142373D02*
X67303Y144413D01*
X135043Y164949D02*
Y165761D01*
X179443Y181149D02*
X180942D01*
X172597Y130609D02*
X172687Y130699D01*
X146242Y152249D02*
X150097D01*
X166703Y90324D02*
X177621D01*
X68764Y139873D02*
X71335Y142444D01*
X160854Y171924D02*
Y183583D01*
X178272Y95176D02*
X181521Y98424D01*
X143138Y81149D02*
Y87373D01*
X111620Y158625D02*
Y171900D01*
X151964Y182173D02*
Y189873D01*
X172528Y162039D02*
X172618Y162129D01*
X149818Y145274D02*
X151672D01*
X181421Y136224D02*
X181821Y135824D01*
X88046Y128640D02*
X88136Y128731D01*
X123421Y150224D02*
Y171890D01*
X156896Y171900D02*
X156987Y171809D01*
X166435Y162039D02*
X172528D01*
X162366Y91824D02*
X165203D01*
X88046Y110924D02*
X88136Y110833D01*
X64272Y146381D02*
X88067D01*
X149332Y182123D02*
Y184305D01*
X127390Y87373D02*
X127480Y87464D01*
X61264Y143373D02*
X64272Y146381D01*
X59209Y150318D02*
X88067D01*
X151964Y182173D02*
X152980Y181157D01*
X165203Y91824D02*
X166703Y90324D01*
X143138Y81149D02*
X151264Y73023D01*
X154858Y172015D02*
Y183879D01*
X160854Y87373D02*
X160945Y87464D01*
X149064Y184573D02*
X149332Y184305D01*
X165713Y141824D02*
X168939Y138598D01*
X145016Y87283D02*
X145106Y87373D01*
X147996Y67641D02*
X148264Y67373D01*
X96164Y81573D02*
X97862Y83272D01*
X123421Y171890D02*
X123432Y171900D01*
X143064Y178873D02*
X145016Y176921D01*
X151264Y64373D02*
X155264Y60373D01*
X127368Y87394D02*
X127390Y87373D01*
X147075Y171924D02*
Y179413D01*
X151672Y145274D02*
X156621Y140324D01*
X74221Y117424D02*
X74726Y116920D01*
X199701Y199908D02*
X202743D01*
X135264Y74373D02*
X141264Y68373D01*
X158886Y171924D02*
Y180951D01*
X172528Y136629D02*
X172618Y136539D01*
X61264Y139623D02*
Y143373D01*
X113680Y167997D02*
X115695D01*
X43264Y138373D02*
X44264Y139373D01*
X165091Y140324D02*
X168787Y136629D01*
X52264Y138373D02*
Y143373D01*
X113610Y171924D02*
X113680Y171855D01*
X129316Y171876D02*
X129337Y171897D01*
X149332Y182123D02*
X151012Y180443D01*
X151264Y64373D02*
Y73023D01*
X68764Y138373D02*
Y139873D01*
X132100Y189800D02*
X148200Y205900D01*
X160900D01*
X132100Y179158D02*
Y189800D01*
X133600Y189021D02*
X147779Y203200D01*
X135291Y188591D02*
X148400Y201700D01*
X133600Y178537D02*
Y189021D01*
X148400Y201700D02*
X165200D01*
X147779Y203200D02*
X162200D01*
X135291Y171942D02*
Y188591D01*
X137259Y186909D02*
X150550Y200200D01*
X137259Y171942D02*
Y186909D01*
X135200Y171851D02*
X135291Y171942D01*
X129316Y176374D02*
X132100Y179158D01*
X131263Y176200D02*
X133600Y178537D01*
X119400Y190200D02*
X137200Y208000D01*
X156000D01*
X119400Y179300D02*
Y190200D01*
X131263Y171851D02*
Y176200D01*
X129316Y171876D02*
Y176374D01*
X119400Y179300D02*
X121442Y177258D01*
Y171876D02*
Y177258D01*
X119452Y171851D02*
Y177100D01*
X117400Y191000D02*
X136300Y209900D01*
X117400Y179152D02*
Y191000D01*
Y179152D02*
X119452Y177100D01*
X117483Y171851D02*
Y176417D01*
X115500Y178400D02*
X117483Y176417D01*
X115500Y178400D02*
Y192100D01*
X136300Y209900D02*
X148900D01*
X135700Y212300D02*
X142400D01*
X115500Y192100D02*
X135700Y212300D01*
X115515Y171851D02*
Y175885D01*
X113500Y177900D02*
X115515Y175885D01*
X113500Y177900D02*
Y193100D01*
X193987Y157400D02*
X210600D01*
X193887Y157500D02*
X193987Y157400D01*
X193887Y157500D02*
Y158210D01*
X204850Y150400D02*
X208350Y153900D01*
X210600Y157400D02*
X213879Y160679D01*
X208350Y153900D02*
X232500D01*
X203700Y150400D02*
X204850D01*
X201400Y148100D02*
X203700Y150400D01*
X222700Y147100D02*
X223079D01*
X224479Y145700D01*
X227378D01*
X222900Y184400D02*
X231500Y193000D01*
X202300Y184400D02*
X222900D01*
X231500Y193000D02*
Y223300D01*
X123479Y73020D02*
Y87209D01*
Y73020D02*
X163200Y33300D01*
X123389Y87300D02*
X123479Y87209D01*
X131353Y69147D02*
Y87209D01*
X131263Y87300D02*
X131353Y87209D01*
Y69147D02*
X164200Y36300D01*
X153200Y93950D02*
Y98400D01*
X151039Y91789D02*
X153200Y93950D01*
X151039Y87391D02*
Y91789D01*
X153200Y98400D02*
X155700Y100900D01*
X158200D01*
X163100Y96000D01*
X150948Y87300D02*
X151039Y87391D01*
X163100Y96000D02*
X165600D01*
X166800Y93500D02*
X198400D01*
X165600Y96000D02*
X166800Y94800D01*
Y93500D02*
Y94800D01*
X137169Y171851D02*
X137259Y171942D01*
X198400Y93500D02*
X206200Y101300D01*
X225900Y160679D02*
Y160875D01*
X162759Y82741D02*
Y87300D01*
Y82741D02*
X164200Y81300D01*
X246078Y187578D02*
Y217822D01*
X229750Y234150D02*
X246078Y217822D01*
X225031Y234150D02*
X229750D01*
X222100Y229900D02*
X231314D01*
X217892Y234108D02*
X222100Y229900D01*
X215073Y234108D02*
X217892D01*
X231314Y229900D02*
X235400Y225814D01*
X229600Y228400D02*
X233500Y224500D01*
X210781Y228400D02*
X229600D01*
X205031Y234150D02*
X210781Y228400D01*
X228000Y226800D02*
X231500Y223300D01*
X202381Y226800D02*
X228000D01*
X195031Y234150D02*
X202381Y226800D01*
X233500Y191000D02*
Y224500D01*
X235400Y189500D02*
Y225814D01*
X225800Y179900D02*
X235400Y189500D01*
X244100Y185600D02*
X246078Y187578D01*
X235700Y185600D02*
X244100D01*
X183900Y166000D02*
X202300Y184400D01*
X183900Y155700D02*
Y166000D01*
X186800Y155700D02*
Y165100D01*
X204900Y179900D02*
X225800D01*
X188300Y163300D02*
X204900Y179900D01*
X188300Y153700D02*
Y163300D01*
X177432Y146332D02*
X186800Y155700D01*
X176591Y148391D02*
X183900Y155700D01*
X172666Y148391D02*
X176591D01*
X172576Y148301D02*
X172666Y148391D01*
X225200Y216100D02*
Y222300D01*
X216400Y207300D02*
X225200Y216100D01*
X175300Y207300D02*
X216400D01*
X172576Y144364D02*
X178964D01*
X188300Y153700D01*
X215031Y234150D02*
X215073Y234108D01*
X190533Y159667D02*
Y162233D01*
X190400Y151800D02*
Y159800D01*
X190533Y159667D01*
X181086Y142486D02*
X190400Y151800D01*
X172666Y142486D02*
X181086D01*
X168200Y200200D02*
X175300Y207300D01*
X150550Y200200D02*
X168200D01*
X173500Y210000D02*
X208700D01*
X165200Y201700D02*
X173500Y210000D01*
X208700D02*
X215200Y216500D01*
X171900Y212900D02*
X200600D01*
X162200Y203200D02*
X171900Y212900D01*
X160900Y205900D02*
X170300Y215300D01*
X200600Y212900D02*
X205200Y217500D01*
X170300Y215300D02*
X193500D01*
X195200Y217000D01*
X78000Y128000D02*
X79200Y126800D01*
X78000Y128000D02*
Y134678D01*
X79200Y123922D02*
Y126800D01*
X81500Y129100D01*
X79712Y138434D02*
X88003D01*
X79200Y137922D02*
X79712Y138434D01*
X78000Y137922D02*
X79200D01*
X232343Y167872D02*
X233300Y166914D01*
X228353Y167872D02*
X232343D01*
X225900Y170324D02*
X228353Y167872D01*
X225900Y170324D02*
Y170521D01*
X233300Y154700D02*
Y166914D01*
X232500Y153900D02*
X233300Y154700D01*
X213879Y160679D02*
X215900D01*
X215200Y216500D02*
Y222300D01*
X156000Y208000D02*
X165200Y217200D01*
X148900Y209900D02*
X155200Y216200D01*
X142400Y212300D02*
X145200Y215100D01*
X205200Y217500D02*
Y222300D01*
X195200Y217000D02*
Y222300D01*
X135200Y214800D02*
Y222300D01*
X113500Y193100D02*
X135200Y214800D01*
X165200Y217200D02*
Y222300D01*
X155200Y216200D02*
Y222300D01*
X145200Y215100D02*
Y222300D01*
X103704Y171851D02*
Y206996D01*
X95200Y215500D02*
X103704Y206996D01*
X95200Y215500D02*
Y222300D01*
X125200Y213700D02*
Y222300D01*
X122200Y210700D02*
X125200Y213700D01*
X116700Y210700D02*
X122200D01*
X109609Y203609D02*
X116700Y210700D01*
X109609Y171851D02*
Y203609D01*
X115200Y214100D02*
Y222300D01*
X107641Y206541D02*
X115200Y214100D01*
X107641Y171851D02*
Y206541D01*
X55200Y222300D02*
X65200D01*
X105582Y171942D02*
X105672Y171851D01*
X105582Y171942D02*
Y221918D01*
X105200Y222300D02*
X105582Y221918D01*
X96900Y76000D02*
X99767Y78867D01*
X94500Y76000D02*
X96900D01*
X24382Y88013D02*
X24670Y88300D01*
X107641Y28859D02*
Y87300D01*
Y28859D02*
X110200Y26300D01*
X57300Y79400D02*
X65300D01*
X44500Y92200D02*
X57300Y79400D01*
X133322Y70178D02*
Y87147D01*
X133200Y87269D02*
X133322Y87147D01*
Y70178D02*
X164200Y39300D01*
X24670Y88300D02*
X25013D01*
X24578D02*
X24670D01*
X26500Y92200D02*
X44500D01*
X25300Y91000D02*
X26500Y92200D01*
X25300Y88587D02*
Y91000D01*
X25013Y88300D02*
X25300Y88587D01*
X229822Y145800D02*
X231300D01*
X235650Y150150D02*
X240031D01*
X231300Y145800D02*
X235650Y150150D01*
X217600Y145700D02*
Y149000D01*
X216200Y144300D02*
X217600Y145700D01*
X211200Y139477D02*
Y147300D01*
Y138977D02*
Y139477D01*
X206200Y101300D02*
Y109300D01*
X79200Y120678D02*
X79220Y120698D01*
X87984D01*
X88003Y120717D01*
X164200Y39300D02*
X205200D01*
X164200Y36300D02*
X203200D01*
X163200Y33300D02*
X198200D01*
X162200Y30300D02*
X188200D01*
X121511Y70989D02*
X162200Y30300D01*
X121511Y70989D02*
Y87209D01*
X160200Y15300D02*
Y28300D01*
X117393Y71107D02*
X160200Y28300D01*
X117393Y71107D02*
Y87209D01*
X150200Y15300D02*
Y35300D01*
X115515Y69985D02*
X150200Y35300D01*
X115515Y69985D02*
Y87300D01*
X140200Y18300D02*
Y42300D01*
X113547Y68954D02*
X140200Y42300D01*
X113547Y68954D02*
Y87300D01*
X130200Y19300D02*
Y48300D01*
X111578Y66922D02*
X130200Y48300D01*
X111578Y66922D02*
Y87300D01*
X120200Y15300D02*
Y53300D01*
X109609Y63890D02*
X120200Y53300D01*
X109609Y63890D02*
Y87300D01*
X30200Y69390D02*
X30487Y69678D01*
X75578D02*
X93200Y87300D01*
X95830D01*
X30487Y69678D02*
X75578D01*
X30200Y69235D02*
Y69390D01*
X99767Y78867D02*
Y87300D01*
X97200Y68300D02*
X101645Y72745D01*
X97200Y34300D02*
Y68300D01*
X101645Y72745D02*
Y87209D01*
X91200Y28300D02*
X97200Y34300D01*
X103704Y71796D02*
Y87300D01*
X110200Y18300D02*
Y26300D01*
Y18300D02*
X115200Y13300D01*
Y10300D02*
Y13300D01*
X101645Y87209D02*
X101735Y87300D01*
X164200Y81300D02*
X228078D01*
X25578Y56300D02*
Y64613D01*
X30200Y69235D01*
X13200Y56568D02*
X13468Y56300D01*
X25578D01*
X28798D02*
X28822D01*
X28511Y56013D02*
X28798Y56300D01*
X28511Y43548D02*
Y56013D01*
X28200Y43237D02*
X28511Y43548D01*
X22200Y32300D02*
X24200D01*
X13200Y40032D02*
X14468D01*
X21200Y73300D02*
X21389Y73111D01*
X30011D02*
X30200Y72922D01*
X24382Y87316D02*
Y88013D01*
X22716Y85650D02*
X24382Y87316D01*
X14669Y85650D02*
X22716D01*
X57200Y173300D02*
X58200D01*
X72373Y171851D02*
X72822D01*
Y167300D02*
X72822Y167300D01*
X72822Y167300D02*
Y171851D01*
X95830D02*
Y172209D01*
X95739Y172300D02*
X95830Y172209D01*
X72822Y172300D02*
X95739D01*
X72822Y171851D02*
Y172300D01*
X72822Y172300D02*
X72822Y172300D01*
X160200Y15300D02*
X165200Y10300D01*
X135200D02*
Y14300D01*
X130200Y19300D02*
X135200Y14300D01*
X150200Y15300D02*
X155200Y10300D01*
X140200Y18300D02*
X145200Y13300D01*
X120200Y15300D02*
X125200Y10300D01*
X100200Y68292D02*
X103704Y71796D01*
X100200Y15300D02*
Y68292D01*
Y15300D02*
X105200Y10300D01*
X91200Y14300D02*
Y28300D01*
Y14300D02*
X95200Y10300D01*
X145200D02*
Y13300D01*
X191200Y14300D02*
Y27300D01*
X188200Y30300D02*
X191200Y27300D01*
X200200Y15300D02*
Y31300D01*
X198200Y33300D02*
X200200Y31300D01*
X210200Y15300D02*
Y29300D01*
X203200Y36300D02*
X210200Y29300D01*
X220200Y19300D02*
Y24300D01*
X205200Y39300D02*
X220200Y24300D01*
Y19300D02*
X225200Y14300D01*
Y10300D02*
Y14300D01*
X121421Y87300D02*
X121511Y87209D01*
X155200Y21300D02*
Y22300D01*
X117393Y87209D02*
X117483Y87300D01*
X210200Y15300D02*
X215200Y10300D01*
X200200Y15300D02*
X205200Y10300D01*
X191200Y14300D02*
X195200Y10300D01*
X55200D02*
X65200D01*
X203200Y22300D02*
X205200D01*
X194747Y21847D02*
X195200Y22300D01*
X28822Y147300D02*
X29011Y147111D01*
X206200Y138977D02*
Y140300D01*
X191200Y143300D02*
X195346D01*
X216200Y139477D02*
Y144300D01*
Y109300D02*
X217200D01*
X13310Y147300D02*
X25578D01*
X13200Y147190D02*
X13310Y147300D01*
X23435Y122065D02*
X24200Y121300D01*
X23435Y122065D02*
Y123176D01*
X24200Y120481D02*
Y121300D01*
X13200Y108300D02*
Y109481D01*
Y108300D02*
X14200D01*
X105031Y224150D02*
X105672Y223509D01*
X224200Y117800D02*
X224700Y118300D01*
X216200Y117623D02*
X216377Y117800D01*
X206200Y109300D02*
Y117623D01*
X198200Y109300D02*
X201200Y112300D01*
X211200Y117623D02*
X211379Y117444D01*
X201200Y112300D02*
Y117623D01*
X13200Y87119D02*
Y88300D01*
Y87119D02*
X14669Y85650D01*
X249090Y81300D02*
X249200Y81410D01*
X231322Y81300D02*
X249090D01*
D16*
X231322D02*
D03*
X228078D02*
D03*
X28822Y147300D02*
D03*
X25578D02*
D03*
X25578Y56300D02*
D03*
X28822D02*
D03*
X72822Y167300D02*
D03*
X69578D02*
D03*
X72822Y172300D02*
D03*
X69578D02*
D03*
X24578Y88300D02*
D03*
X27822D02*
D03*
X230622Y145700D02*
D03*
X227378D02*
D03*
D17*
X30200Y72922D02*
D03*
Y69678D02*
D03*
X79200Y123922D02*
D03*
Y120678D02*
D03*
X78000Y134678D02*
D03*
Y137922D02*
D03*
X193700Y154778D02*
D03*
Y158022D02*
D03*
X94200Y75922D02*
D03*
Y72678D02*
D03*
D18*
X13200Y108300D02*
D03*
Y88300D02*
D03*
D19*
X28200Y39300D02*
D03*
Y43237D02*
D03*
D20*
X201200Y118123D02*
D03*
X206200D02*
D03*
X211200D02*
D03*
X216200D02*
D03*
Y139477D02*
D03*
X211200D02*
D03*
X206200D02*
D03*
X201200D02*
D03*
D21*
X13200Y56568D02*
D03*
Y40032D02*
D03*
D22*
X215900Y170521D02*
D03*
X225900D02*
D03*
Y160679D02*
D03*
X215900D02*
D03*
D23*
X88046Y164073D02*
D03*
Y162105D02*
D03*
Y160136D02*
D03*
Y158168D02*
D03*
Y156199D02*
D03*
Y154231D02*
D03*
Y152262D02*
D03*
Y150294D02*
D03*
Y148325D02*
D03*
Y146357D02*
D03*
Y144388D02*
D03*
Y142420D02*
D03*
Y140451D02*
D03*
Y138483D02*
D03*
Y136514D02*
D03*
Y134546D02*
D03*
Y132577D02*
D03*
Y130609D02*
D03*
Y128640D02*
D03*
Y126672D02*
D03*
Y124703D02*
D03*
Y122735D02*
D03*
Y120766D02*
D03*
Y118798D02*
D03*
Y116829D02*
D03*
Y114861D02*
D03*
Y112892D02*
D03*
Y110924D02*
D03*
Y108955D02*
D03*
Y106987D02*
D03*
Y105018D02*
D03*
Y103050D02*
D03*
Y101081D02*
D03*
Y99113D02*
D03*
Y97144D02*
D03*
Y95176D02*
D03*
X172597D02*
D03*
Y97144D02*
D03*
Y99113D02*
D03*
Y101081D02*
D03*
Y103050D02*
D03*
Y105018D02*
D03*
Y106987D02*
D03*
Y108955D02*
D03*
Y110924D02*
D03*
Y112892D02*
D03*
Y114861D02*
D03*
Y116829D02*
D03*
Y118798D02*
D03*
Y120766D02*
D03*
Y122735D02*
D03*
Y124703D02*
D03*
Y126672D02*
D03*
Y128640D02*
D03*
Y130609D02*
D03*
Y132577D02*
D03*
Y134546D02*
D03*
Y136514D02*
D03*
Y138483D02*
D03*
Y140451D02*
D03*
Y142420D02*
D03*
Y144388D02*
D03*
Y146357D02*
D03*
Y148325D02*
D03*
Y150294D02*
D03*
Y152262D02*
D03*
Y154231D02*
D03*
Y156199D02*
D03*
Y158168D02*
D03*
Y160136D02*
D03*
Y162105D02*
D03*
Y164073D02*
D03*
D24*
X95872Y87349D02*
D03*
X97841D02*
D03*
X99809D02*
D03*
X101778D02*
D03*
X103746D02*
D03*
X105715D02*
D03*
X107684D02*
D03*
X109652D02*
D03*
X111620D02*
D03*
X113589D02*
D03*
X115558D02*
D03*
X117526D02*
D03*
X119494D02*
D03*
X121463D02*
D03*
X123432D02*
D03*
X125400D02*
D03*
X127368D02*
D03*
X129337D02*
D03*
X131306D02*
D03*
X133274D02*
D03*
X135242D02*
D03*
X137211D02*
D03*
X139180D02*
D03*
X141148D02*
D03*
X143116D02*
D03*
X145085D02*
D03*
X147054D02*
D03*
X149022D02*
D03*
X150991D02*
D03*
X152959D02*
D03*
X154928D02*
D03*
X156896D02*
D03*
X158865D02*
D03*
X160833D02*
D03*
X162802D02*
D03*
X164770D02*
D03*
Y171900D02*
D03*
X162802D02*
D03*
X160833D02*
D03*
X158865D02*
D03*
X156896D02*
D03*
X154928D02*
D03*
X152959D02*
D03*
X150991D02*
D03*
X149022D02*
D03*
X147054D02*
D03*
X145085D02*
D03*
X143116D02*
D03*
X141148D02*
D03*
X139180D02*
D03*
X137211D02*
D03*
X135242D02*
D03*
X133274D02*
D03*
X131306D02*
D03*
X129337D02*
D03*
X127368D02*
D03*
X125400D02*
D03*
X123432D02*
D03*
X121463D02*
D03*
X119494D02*
D03*
X117526D02*
D03*
X115558D02*
D03*
X113589D02*
D03*
X111620D02*
D03*
X109652D02*
D03*
X107684D02*
D03*
X105715D02*
D03*
X103746D02*
D03*
X101778D02*
D03*
X99809D02*
D03*
X97841D02*
D03*
X95872D02*
D03*
D25*
X249200Y81410D02*
D03*
Y95190D02*
D03*
X13200Y147190D02*
D03*
Y133410D02*
D03*
X250031Y140150D02*
D03*
D41*
X74700Y201800D02*
X87900D01*
X244310Y95190D02*
X249200D01*
X238200Y101300D02*
X244310Y95190D01*
X27822Y86922D02*
Y88300D01*
X21200Y80300D02*
X27822Y86922D01*
X21200Y73300D02*
Y80300D01*
X211200Y114300D02*
Y118123D01*
Y114300D02*
X216200Y109300D01*
X94200Y62300D02*
Y72678D01*
X89200Y57300D02*
X94200Y62300D01*
X29011Y145111D02*
Y147111D01*
X24200Y140300D02*
X29011Y145111D01*
X24200Y137300D02*
Y140300D01*
Y32300D02*
X28200Y36300D01*
Y39300D01*
X14468Y40032D02*
X22200Y32300D01*
X21389Y73111D02*
X30011D01*
X64200Y167300D02*
X69578D01*
X58200Y173300D02*
X64200Y167300D01*
X69556Y172600D02*
Y189600D01*
X201600Y140300D02*
X206200D01*
X198600Y143300D02*
X201600Y140300D01*
X191200Y143300D02*
X198600D01*
X13200Y133410D02*
X23435Y123176D01*
X13200Y109481D02*
X24200Y120481D01*
X216377Y117800D02*
X224200D01*
D42*
X93596Y128699D02*
X95447Y130550D01*
X91171Y128699D02*
X93596D01*
X91139Y128731D02*
X91171Y128699D01*
X88136Y128731D02*
X91139D01*
X94700Y133898D02*
Y137100D01*
X93248Y132446D02*
X94700Y133898D01*
X93248Y131948D02*
Y132446D01*
X91999Y130699D02*
X93248Y131948D01*
X242700Y154900D02*
X244600Y153000D01*
X236900Y154900D02*
X242700D01*
X235300Y156500D02*
X236900Y154900D01*
X84091Y95200D02*
X88067D01*
X79264Y90373D02*
X84091Y95200D01*
X82803Y105043D02*
X88067D01*
X79221Y108624D02*
X82803Y105043D01*
X133307Y167497D02*
Y171867D01*
Y167497D02*
X135043Y165761D01*
X92423Y158077D02*
X96121Y154379D01*
X88136Y158077D02*
X92423D01*
X156922Y83527D02*
Y85195D01*
X158865Y87349D02*
Y94068D01*
X164578Y101081D02*
X172597D01*
X149500Y95189D02*
Y95231D01*
X147054Y92742D02*
X149500Y95189D01*
X119494Y87349D02*
Y91155D01*
X107325Y103324D02*
X119494Y91155D01*
X124446Y92200D02*
X125400Y91246D01*
X123046Y92200D02*
X124446D01*
X119721Y95524D02*
X123046Y92200D01*
X127368Y92106D02*
Y92895D01*
X126321Y93942D02*
X127368Y92895D01*
X126321Y93942D02*
Y96900D01*
X156922Y83527D02*
X166325Y74124D01*
X173321D01*
X160856Y164073D02*
X172597D01*
X105703Y87361D02*
Y91097D01*
X100000Y96800D02*
X105703Y91097D01*
X156987Y164759D02*
Y171809D01*
X162879Y151900D02*
X165210Y154231D01*
X240031Y140150D02*
X244600Y144720D01*
Y153000D01*
X235300Y156500D02*
Y172900D01*
X232882Y175318D02*
X235300Y172900D01*
X220500Y175318D02*
X232882D01*
X215900Y170718D02*
X220500Y175318D01*
X88091Y160136D02*
X94351D01*
X96421Y105824D02*
Y106879D01*
X92467Y110833D02*
X96421Y106879D01*
X88136Y110833D02*
X92467D01*
X181800Y137300D02*
Y140000D01*
X127368Y171900D02*
Y178972D01*
X145421Y158624D02*
Y160570D01*
X123021Y181824D02*
X125309Y179536D01*
X127421Y77324D02*
X129337Y79240D01*
X92074Y126672D02*
X93421Y125324D01*
X176696Y130699D02*
X181821Y135824D01*
X88046Y126672D02*
X92074D01*
X147054Y87533D02*
Y92742D01*
X139180Y166812D02*
Y171900D01*
X130221Y192868D02*
X133021Y195668D01*
X178590Y103050D02*
X181521Y100118D01*
X172687Y130699D02*
X176696D01*
X139180Y166812D02*
X145421Y160570D01*
X125309Y171991D02*
Y179536D01*
X165210Y154231D02*
X172597D01*
X167963Y120766D02*
X172597D01*
X130221Y181824D02*
Y192868D01*
X127368Y178972D02*
X130221Y181824D01*
X74726Y116920D02*
X87955D01*
X129337Y79240D02*
Y87349D01*
X172597Y140451D02*
X178295D01*
X164321Y117124D02*
X167963Y120766D01*
X93421Y125324D02*
X95121D01*
X178295Y140451D02*
X181421Y137324D01*
X181800Y140000D02*
X193700Y151900D01*
Y154778D01*
X221176Y165600D02*
X225900Y160875D01*
X206800Y165600D02*
X221176D01*
D43*
X165421Y132624D02*
X168812Y129132D01*
X168320Y129623D02*
X169304Y128640D01*
X172495D01*
X88136Y130699D02*
X91999D01*
X125400Y87349D02*
Y91246D01*
X127368Y87394D02*
Y92106D01*
X172597Y103050D02*
X178590D01*
D44*
X165645Y126748D02*
X172520D01*
D45*
X18121Y87276D02*
Y109324D01*
X8279Y87276D02*
Y109324D01*
D46*
X225200Y10300D02*
D03*
X215200D02*
D03*
X205200D02*
D03*
X195200D02*
D03*
X185200D02*
D03*
X175200D02*
D03*
X165200D02*
D03*
X155200D02*
D03*
X145200D02*
D03*
X135200D02*
D03*
X125200D02*
D03*
X115200D02*
D03*
X105200D02*
D03*
X95200D02*
D03*
X85200D02*
D03*
X75200D02*
D03*
X65200D02*
D03*
X55200D02*
D03*
X45200D02*
D03*
X240031Y140150D02*
D03*
X250031Y150150D02*
D03*
X240031D02*
D03*
X250031Y160150D02*
D03*
X240031D02*
D03*
X250031Y170150D02*
D03*
X240031D02*
D03*
X250031Y180150D02*
D03*
X240031D02*
D03*
X250031Y190150D02*
D03*
X240031D02*
D03*
X250031Y200150D02*
D03*
X240031D02*
D03*
X45200Y222300D02*
D03*
X55200D02*
D03*
X65200D02*
D03*
X75200D02*
D03*
X85200D02*
D03*
X95200D02*
D03*
X105200D02*
D03*
X115200D02*
D03*
X125200D02*
D03*
X135200D02*
D03*
X145200D02*
D03*
X155200D02*
D03*
X165200D02*
D03*
X175200D02*
D03*
X185200D02*
D03*
X195200D02*
D03*
X205200D02*
D03*
X215200D02*
D03*
X225200D02*
D03*
X45031Y234150D02*
D03*
X55031D02*
D03*
X65031D02*
D03*
X75031D02*
D03*
X85031D02*
D03*
X95031D02*
D03*
X105031D02*
D03*
X115031D02*
D03*
X125031D02*
D03*
X135031D02*
D03*
X145031D02*
D03*
X155031D02*
D03*
X165031D02*
D03*
X175031D02*
D03*
X185031D02*
D03*
X195031D02*
D03*
X205031D02*
D03*
X215031D02*
D03*
X225031D02*
D03*
X215200Y22300D02*
D03*
X205200D02*
D03*
X195200D02*
D03*
X185200D02*
D03*
X175200D02*
D03*
X165200D02*
D03*
X155200D02*
D03*
X145200D02*
D03*
X135200D02*
D03*
X125200D02*
D03*
X115200D02*
D03*
X105200D02*
D03*
X95200D02*
D03*
X85200D02*
D03*
X75200D02*
D03*
X65200D02*
D03*
X55200D02*
D03*
X45200D02*
D03*
X35200D02*
D03*
D47*
Y10300D02*
D03*
Y222300D02*
D03*
X35031Y234150D02*
D03*
X225200Y22300D02*
D03*
D48*
X74700Y201800D02*
D03*
X87900D02*
D03*
X158700Y163000D02*
D03*
X126321Y96900D02*
D03*
X96521Y161224D02*
D03*
X127121Y77324D02*
D03*
X133021Y195724D02*
D03*
X181521Y99374D02*
D03*
X96321Y153124D02*
D03*
X173621Y73824D02*
D03*
X74221Y117424D02*
D03*
X123021Y181824D02*
D03*
X181821Y135824D02*
D03*
X157300Y111300D02*
D03*
X238200Y101300D02*
D03*
X89200Y57300D02*
D03*
X24200Y137300D02*
D03*
X57200Y173300D02*
D03*
X69556Y189600D02*
D03*
X24200Y121300D02*
D03*
D49*
X96498Y131100D02*
D03*
X149500Y95666D02*
D03*
X95981Y124850D02*
D03*
X165421Y132624D02*
D03*
X159321Y94524D02*
D03*
X100000Y96800D02*
D03*
X165645Y126748D02*
D03*
X162300Y151900D02*
D03*
X79264Y90373D02*
D03*
X66900Y130500D02*
D03*
X94700Y137100D02*
D03*
X119721Y95524D02*
D03*
X145421Y158624D02*
D03*
X123421Y150224D02*
D03*
X135043Y164949D02*
D03*
X106121Y103324D02*
D03*
X164321Y117124D02*
D03*
X79221Y109824D02*
D03*
X164121Y100624D02*
D03*
X96521Y104424D02*
D03*
X119543Y164849D02*
D03*
X206800Y165600D02*
D03*
X24200Y32300D02*
D03*
X21200Y73300D02*
D03*
X191200Y143300D02*
D03*
X217200Y109300D02*
D03*
X225200Y117800D02*
D03*
D50*
X185500Y109400D02*
D03*
X144500Y147400D02*
D03*
X181621Y176724D02*
D03*
X154664Y184073D02*
D03*
X165821Y161424D02*
D03*
X160421Y144924D02*
D03*
X155264Y59873D02*
D03*
X40264Y143373D02*
D03*
X96164Y80773D02*
D03*
X32264Y143373D02*
D03*
X48264Y142373D02*
D03*
X141264Y67373D02*
D03*
X65264Y142373D02*
D03*
X157764Y189973D02*
D03*
X160664Y183773D02*
D03*
X35264Y138373D02*
D03*
X202743Y199908D02*
D03*
X149818Y145274D02*
D03*
X177621Y90324D02*
D03*
X146043Y152449D02*
D03*
X141264Y77773D02*
D03*
X149064Y184573D02*
D03*
X146064Y189673D02*
D03*
X163264Y67373D02*
D03*
X60014Y138373D02*
D03*
X143064Y178873D02*
D03*
X143364Y184173D02*
D03*
X151964Y189873D02*
D03*
X169264Y67373D02*
D03*
X43264Y138373D02*
D03*
X155264Y67373D02*
D03*
X52264Y138373D02*
D03*
X56264Y142373D02*
D03*
X175443Y183449D02*
D03*
X68764Y138373D02*
D03*
X153264Y78373D02*
D03*
X148264Y67373D02*
D03*
X222700Y147100D02*
D03*
X81500Y129100D02*
D03*
X201400Y148100D02*
D03*
X65300Y79400D02*
D03*
X217600Y149000D02*
D03*
X211200Y147300D02*
D03*
X206200Y109300D02*
D03*
X198200D02*
D03*
M02*
