%FSTAX23Y23*%
%MOIN*%
%SFA1B1*%

%IPPOS*%
%AMD53*
1,1,0.095433,0.000000,0.000000*
1,0,0.075433,0.000000,0.000000*
4,0,4,0.030200,0.037300,-0.037300,-0.030200,-0.030200,-0.037300,0.037300,0.030200,0.030200,0.037300,0.0*
4,0,4,-0.030200,0.037300,0.037300,-0.030200,0.030200,-0.037300,-0.037300,0.030200,-0.030200,0.037300,0.0*
%
%AMD57*
1,1,0.076000,0.000000,0.000000*
1,0,0.056000,0.000000,0.000000*
4,0,4,0.023300,0.030400,-0.030400,-0.023300,-0.023300,-0.030400,0.030400,0.023300,0.023300,0.030400,0.0*
4,0,4,-0.023300,0.030400,0.030400,-0.023300,0.023300,-0.030400,-0.030400,0.023300,-0.023300,0.030400,0.0*
%
%AMD59*
1,1,0.088000,0.000000,0.000000*
1,0,0.068000,0.000000,0.000000*
4,0,4,0.027600,0.034600,-0.034600,-0.027600,-0.027600,-0.034600,0.034600,0.027600,0.027600,0.034600,0.0*
4,0,4,-0.027600,0.034600,0.034600,-0.027600,0.027600,-0.034600,-0.034600,0.027600,-0.027600,0.034600,0.0*
%
%AMD61*
1,1,0.080000,0.000000,0.000000*
1,0,0.060000,0.000000,0.000000*
4,0,4,0.024700,0.031800,-0.031800,-0.024700,-0.024700,-0.031800,0.031800,0.024700,0.024700,0.031800,0.0*
4,0,4,-0.024700,0.031800,0.031800,-0.024700,0.024700,-0.031800,-0.031800,0.024700,-0.024700,0.031800,0.0*
%
%ADD15C,0.010000*%
%ADD51C,0.040000*%
%ADD52C,0.075430*%
G04~CAMADD=53~12~0.0~0.0~0.0~0.0~0.0~0.0~0~954.3~754.3~0.0~45.0~4~100.0~0.0~0.0~0.0~0~0.0~0.0~0.0~0.0~954.3~954.3*
%ADD53D53*%
%ADD54C,0.065000*%
%ADD55C,0.060000*%
%ADD56C,0.056000*%
G04~CAMADD=57~12~0.0~0.0~0.0~0.0~0.0~0.0~0~760.0~560.0~0.0~45.0~4~100.0~0.0~0.0~0.0~0~0.0~0.0~0.0~0.0~760.0~760.0*
%ADD57D57*%
%ADD58C,0.052000*%
G04~CAMADD=59~12~0.0~0.0~0.0~0.0~0.0~0.0~0~880.0~680.0~0.0~45.0~4~100.0~0.0~0.0~0.0~0~0.0~0.0~0.0~0.0~880.0~880.0*
%ADD59D59*%
%ADD60C,0.068000*%
G04~CAMADD=61~12~0.0~0.0~0.0~0.0~0.0~0.0~0~800.0~600.0~0.0~45.0~4~100.0~0.0~0.0~0.0~0~0.0~0.0~0.0~0.0~800.0~800.0*
%ADD61D61*%
%LNpcb1-1*%
%LPD*%
G54D15*
X01379Y0204D02*
Y02043D01*
X01336D02*
X01379D01*
X02056Y00921D02*
X02074Y00903D01*
X02572*
X01992Y0038D02*
Y0082D01*
X01662Y0111D02*
X01951Y00821D01*
X01995*
X01288Y01795D02*
X01406Y01677D01*
X01288Y01795D02*
Y01995D01*
X01336Y02043*
X01379Y0189D02*
Y0204D01*
X0138Y0183D02*
Y01907D01*
Y0183D02*
X01438Y01772D01*
X01674*
X01755Y01691*
Y01606D02*
Y01691D01*
Y01606D02*
X0184Y01521D01*
Y01134D02*
Y01521D01*
Y01134D02*
X02056Y00918D01*
Y00921*
X01125Y0137D02*
X01141D01*
X01101Y01346D02*
X01107Y01352D01*
X01125Y0137*
X01045Y0129D02*
X01069Y01314D01*
X01616Y00004D02*
Y00011D01*
X01615Y00003D02*
X01616Y00004D01*
X01615Y00003D02*
X02547D01*
X02601Y00056*
Y00873*
X02577Y00897D02*
X02601Y00873D01*
X02569Y00897D02*
X02577D01*
X01081Y00003D02*
X01615D01*
X01062Y00022D02*
X01081Y00003D01*
X01062Y00022D02*
Y00329D01*
Y00886*
X01045Y00903D02*
X01062Y00886D01*
X01045Y00903D02*
Y0129D01*
X01069Y01314D02*
X01101Y01346D01*
X01141Y0137D02*
X01372D01*
X01378Y01364*
Y01181D02*
Y01364D01*
X01354Y01157D02*
X01378Y01181D01*
X01272Y01157D02*
X01354D01*
X01172Y01057D02*
X01272Y01157D01*
X01172Y00463D02*
Y01057D01*
Y00463D02*
X01291Y00344D01*
X01956*
X01992Y0038*
Y00386*
X01384Y01428D02*
X01436D01*
X01437Y01117D02*
Y01429D01*
Y01117D02*
X01495Y01059D01*
X01613*
X01673Y01119*
Y01451*
Y01638*
X01634Y01677D02*
X01673Y01638D01*
X0141Y01677D02*
X01634D01*
X01168D02*
Y01936D01*
X01168Y01677D02*
X01277D01*
X01164Y0194D02*
X01168Y01936D01*
X00813Y0194D02*
X01164D01*
X01055Y01434D02*
X0106Y01428D01*
X01172*
X01225*
X01331D02*
X01384D01*
X01277Y01677D02*
X0141D01*
X01225Y01428D02*
X01331D01*
X00812Y0194D02*
Y02443D01*
X00815Y01818D02*
X01055D01*
Y01434D02*
Y01818D01*
X00022Y01823D02*
X00027Y01818D01*
X00177*
X00342D02*
X00507D01*
X00177D02*
X00342D01*
X00507D02*
X00812D01*
X00018Y01827D02*
Y02399D01*
X00062Y02443*
X00812*
X0257Y00904D02*
X02601Y00873D01*
Y00048D02*
Y00873D01*
X02556Y00003D02*
X02601Y00048D01*
X01972Y00003D02*
X02556D01*
G54D51*
X00061Y0D02*
X02544D01*
X-00001Y02392D02*
Y00061D01*
X02602Y02393D02*
Y00061D01*
X02601Y00048D02*
X02602Y00061D01*
X02597Y00035D02*
X02601Y00048D01*
X0259Y00023D02*
X02597Y00035D01*
X02581Y00013D02*
X0259Y00023D01*
X0257Y00006D02*
X02581Y00013D01*
X02557Y00001D02*
X0257Y00006D01*
X02544Y0D02*
X02557Y00001D01*
X00047Y0D02*
X00061Y0D01*
X00033Y00005D02*
X00047Y0D01*
X00021Y00013D02*
X00033Y00005D01*
X00012Y00022D02*
X00021Y00013D01*
X00004Y00034D02*
X00012Y00022D01*
X0Y00047D02*
X00004Y00034D01*
X-00001Y00061D02*
X0Y00047D01*
X-00001Y02392D02*
X0Y02406D01*
X00004Y02419*
X00011Y0243*
X00021Y0244*
X00032Y02447*
X00045Y02452*
X00059Y02453*
X02541*
X02554Y02452*
X02567Y02447*
X02579Y0244*
X02589Y02431*
X02596Y02419*
X026Y02406*
X02602Y02393*
G54D52*
X02252Y00103D03*
X02152D03*
X02052D03*
X01952D03*
X01852D03*
X01752D03*
X01652D03*
X01552D03*
X01452D03*
X01352D03*
X01252D03*
X01152D03*
X01052D03*
X00952D03*
X00852D03*
X00752D03*
X00652D03*
X00552D03*
X025Y01401D03*
Y01501D03*
X024D03*
X025Y01601D03*
X024D03*
X025Y01701D03*
X024D03*
X025Y01801D03*
X024D03*
X025Y01901D03*
X024D03*
X025Y02001D03*
X024D03*
X00552Y02223D03*
X00652D03*
X00752D03*
X00852D03*
X00952D03*
X01052D03*
X01152D03*
X01252D03*
X01352D03*
X01452D03*
X01552D03*
X01652D03*
X01752D03*
X01852D03*
X01952D03*
X02052D03*
X02152D03*
X02252D03*
X0035Y02341D03*
X0045D03*
X0055D03*
X0065D03*
X0075D03*
X0085D03*
X0095D03*
X0105D03*
X0115D03*
X0125D03*
X0135D03*
X0145D03*
X0155D03*
X0165D03*
X0175D03*
X0185D03*
X0195D03*
X0205D03*
X0215D03*
X0225D03*
X02252Y00223D03*
X02152D03*
X02052D03*
X01952D03*
X01852D03*
X01752D03*
X01652D03*
X01552D03*
X01452D03*
X01352D03*
X01252D03*
X01152D03*
X01052D03*
X00952D03*
X00852D03*
X00752D03*
X00652D03*
X00552D03*
X00452D03*
X00352D03*
G54D53*
X00452Y00103D03*
X00352D03*
X024Y01401D03*
X00352Y02223D03*
X00452D03*
G54D54*
X00747Y02018D03*
X00879D03*
G54D55*
X00964Y01311D03*
X01654Y01326D03*
X01656Y01267D03*
X01098Y01472D03*
X01197Y00955D03*
X01641Y01006D03*
X00965Y01044D03*
X01195Y01574D03*
X00649Y01178D03*
X01376Y01061D03*
X01986Y01651D03*
X01824Y01922D03*
X00662Y00893D03*
X00152Y01693D03*
G54D56*
X01855Y01094D03*
X01233Y01208D03*
X01816Y01767D03*
X01552Y00598D03*
X00402Y01433D03*
X00961Y00807D03*
X00322Y01433D03*
X00482Y01423D03*
X01412Y00673D03*
X00652Y01423D03*
X00352Y01383D03*
X01776Y00903D03*
X01412Y00777D03*
X01632Y00673D03*
X006Y01383D03*
X01692Y00673D03*
X00432Y01383D03*
X01552Y00673D03*
X00522Y01383D03*
X00562Y01423D03*
X00687Y01383D03*
X01532Y00783D03*
X01482Y00673D03*
X02227Y01471D03*
X00815Y01291D03*
X02014Y01481D03*
X00653Y00794D03*
X02176Y0149D03*
X02112Y01473D03*
X02062Y01093D03*
X01982D03*
G54D57*
X01675Y01922D03*
X02034Y01539D03*
X02071Y01722D03*
G54D58*
X01445Y01474D03*
X01546Y0184D03*
X01658Y01614D03*
X01604Y01449D03*
X01577Y01899D03*
X01606Y01837D03*
X02027Y01999D03*
X01498Y01452D03*
X0146Y01524D03*
X0149Y01845D03*
X0146Y01896D03*
X0143Y01788D03*
X01433Y01841D03*
X01519Y01898D03*
X01754Y01834D03*
G54D59*
X01263Y00969D03*
X0133Y01957D03*
X00963Y01531D03*
X0123Y01818D03*
X01251Y01893D03*
X02221Y0098D03*
X01321Y01252D03*
X01573Y01113D03*
D03*
X01942Y00623D03*
X00892Y00573D03*
X00242Y01373D03*
X00695Y01896D03*
X00452Y01953D03*
X02302Y00643D03*
G54D60*
X01412Y0139D03*
X01587Y0163D03*
X00965Y01612D03*
X02382Y01013D03*
X01842Y00623D03*
X00162Y01913D03*
X02462Y00643D03*
G54D61*
X00991Y01164D03*
X01495Y00956D03*
X00959Y01248D03*
X01125Y01241D03*
X01593Y00945D03*
X01811Y0165D03*
X01141Y01148D03*
X01Y00968D03*
X01263Y00969D03*
X01623Y01519D03*
X00792Y00903D03*
X00947Y01371D03*
X00952Y0143D03*
X01085Y01637D03*
X01454Y01586D03*
X0135Y01649D03*
X01643Y01171D03*
X00792Y01098D03*
X01195Y01648D03*
X01346Y01569D03*
X01024Y01476D03*
X01136Y01001D03*
X01376Y00978D03*
X01549Y01529D03*
X01994Y01921D03*
X02152Y01923D03*
X00652Y01043D03*
X00212Y00733D03*
X00471Y01733D03*
X01912Y01433D03*
X02172Y01093D03*
M02*