%FSTAX23Y23*%
%MOIN*%
%SFA1B1*%

%IPPOS*%
%ADD15C,0.010000*%
%ADD16R,0.024610X0.015750*%
%ADD17R,0.015750X0.024610*%
%ADD19R,0.019680X0.023620*%
%ADD25R,0.059060X0.059060*%
%ADD41C,0.020000*%
%ADD42C,0.015000*%
%ADD46C,0.059060*%
%ADD47R,0.059060X0.059060*%
%ADD48C,0.050000*%
%ADD49C,0.040000*%
%ADD50C,0.024000*%
%ADD62R,0.045280X0.023620*%
%ADD63R,0.023620X0.019680*%
%ADD64R,0.031500X0.005910*%
%ADD65R,0.125980X0.068900*%
%ADD66R,0.037400X0.068900*%
%ADD67C,0.030000*%
%LNpcb1-1*%
%LPD*%
G54D15*
X02214Y00986D02*
X02221Y0098D01*
X00973Y01087D02*
Y011D01*
X01619Y01559D02*
Y0157D01*
X01197Y00955D02*
X01202Y0096D01*
X01632Y00673D02*
X01642D01*
X01532Y00783D02*
X01592Y00783D01*
X023Y01371D02*
Y01447D01*
X02242Y01505D02*
X023Y01447D01*
X02219Y01505D02*
X02242D01*
X01532Y00783D02*
X01532Y00783D01*
X01024Y01561D02*
X01038D01*
X01593Y01366D02*
X01598Y01371D01*
X01607Y01241D02*
Y01256D01*
X01048Y01296D02*
X01055Y01303D01*
X01052Y0125D02*
X01053Y01251D01*
X01798Y01637D02*
X01811Y0165D01*
X01798Y01581D02*
Y01637D01*
X01745Y00808D02*
X01855Y00918D01*
Y01094*
X0123Y01808D02*
X01253Y01784D01*
X01412Y0139D02*
X01421Y01399D01*
X01646Y01318D02*
X01654Y01326D01*
X01233Y01208D02*
Y0121D01*
X01032Y01208D02*
Y01217D01*
X02259Y0184D02*
X02265Y01846D01*
X02431D02*
X02441Y01836D01*
X02265Y01846D02*
X02431D01*
X01922Y01909D02*
X01963Y01868D01*
X02096Y01842D02*
X0222D01*
X02064Y01873D02*
X02096Y01842D01*
X01196Y01461D02*
X01428D01*
X01441Y01474*
X01445*
X01607Y01241D02*
Y01251D01*
X0158Y0157D02*
X01587Y01576D01*
X00992Y01201D02*
Y01208D01*
X00991Y01207D02*
Y01208D01*
Y01202D02*
Y01207D01*
X00992Y01208D02*
X00993Y01208D01*
X00991Y01207D02*
X00992Y01208D01*
X02033Y0177D02*
X02232D01*
X01996Y01733D02*
X02033Y0177D01*
X02265D02*
X02294D01*
X02325Y01801*
X024*
X02021Y01714D02*
X02038D01*
X02046Y01722*
X02071*
X01002Y01336D02*
X01017D01*
X00952Y0143D02*
X00973D01*
X01019Y01371D02*
Y01383D01*
X01017Y01336D02*
X01018Y01337D01*
X01017Y01336D02*
X01017D01*
X01018Y0137D02*
X01019Y01371D01*
X01058D02*
X0106D01*
X01057Y0137D02*
X01058Y01371D01*
X01056Y01336D02*
X01057Y01337D01*
X01024Y01561D02*
Y01567D01*
X01092Y01477D02*
X01098Y01472D01*
X00974Y01612D02*
X00981Y01604D01*
X00987*
X00972Y01098D02*
X00973Y01097D01*
X00547Y02089D02*
X0119Y01446D01*
X00525Y02132D02*
X01196Y01461D01*
X0033Y02132D02*
X00525D01*
X0119Y01446D02*
X01491D01*
X01497Y01452*
X00301Y02089D02*
X00547D01*
X01084Y01636D02*
X01085Y01637D01*
X01816Y01722D02*
X01821Y01717D01*
X01816Y01722D02*
Y01767D01*
X01821Y01717D02*
X0184D01*
X01812D02*
X01817D01*
X01821*
X01782Y01678D02*
Y01714D01*
Y01678D02*
X0181Y01651D01*
X00965Y01045D02*
X00973Y01053D01*
X00965Y01044D02*
Y01045D01*
X01298Y01647D02*
X01311D01*
X01352Y01563D02*
X01357Y01569D01*
X01399Y0163D02*
X01401Y01627D01*
X01398Y01624D02*
Y01626D01*
X01592Y01166D02*
X01598Y01173D01*
X01641D02*
X01643Y01171D01*
X01403Y0181D02*
X01427Y01786D01*
X01403Y0181D02*
Y01955D01*
X01357Y02001D02*
X01403Y01955D01*
X01064Y02001D02*
X01357D01*
X01427Y01847D02*
X01433Y01841D01*
X01427Y01847D02*
Y01952D01*
X01353Y02026D02*
X01427Y01952D01*
X01077Y02026D02*
X01353D01*
X0146Y01896D02*
Y01898D01*
X01442Y01916D02*
Y01959D01*
X01344Y02056D02*
X01442Y01959D01*
X01111Y02056D02*
X01344D01*
X0149Y01845D02*
Y01909D01*
X01467Y01932D02*
Y01957D01*
X01286Y02139D02*
X01467Y01957D01*
X0113Y02139D02*
X01286D01*
X01519Y01898D02*
Y01901D01*
X01502Y01918D02*
Y01951D01*
X01285Y02168D02*
X01502Y01951D01*
X01251Y02168D02*
X01285D01*
X01546Y0184D02*
Y01942D01*
X01301Y02187D02*
X01546Y01942D01*
X01301Y02187D02*
Y02262D01*
X01198Y02221D02*
X01251Y02168D01*
X01442Y01916D02*
X0146Y01898D01*
X0123Y01808D02*
Y01818D01*
X00963Y01531D02*
X00965Y01528D01*
X01198Y02221D02*
Y02259D01*
X01502Y01918D02*
X01519Y01901D01*
X01467Y01932D02*
X01487Y01913D01*
X00973Y02092D02*
X01064Y02001D01*
X01195Y01574D02*
X01201Y01568D01*
X01015Y01427D02*
X01767D01*
X00967Y01475D02*
X01015Y01427D01*
X01767D02*
X01815Y01475D01*
X02008*
X02014Y01481*
X02117Y00986D02*
Y00986D01*
X01975Y00987D02*
X01976Y00986D01*
X01647Y01953D02*
X01697Y02003D01*
X01716Y01947D02*
X0172D01*
X01647Y01755D02*
Y01953D01*
X01632Y01787D02*
Y01999D01*
X01496Y01651D02*
X01632Y01787D01*
X01601Y0203D02*
X01632Y01999D01*
X01513Y01621D02*
X01647Y01755D01*
X0172Y01909D02*
X01722Y01907D01*
X02249Y01528D02*
X02251Y01525D01*
X02034Y01539D02*
X02037D01*
X0203Y01542D02*
X02034Y01539D01*
X02027Y01588D02*
X0203Y01585D01*
X02027Y01588D02*
X02027D01*
X02063Y01561D02*
X02147D01*
X02063D02*
Y01605D01*
X01994Y01588D02*
X01999D01*
X01947Y0159D02*
X02001D01*
X01999Y01588D02*
X02001Y0159D01*
X02211Y01455D02*
X02227Y01471D01*
X01427Y01786D02*
X0143Y01788D01*
X01996Y01716D02*
Y01733D01*
X01988Y01714D02*
X01993D01*
X01996Y01716*
X02441Y01742D02*
Y01836D01*
X024Y01701D02*
X02441Y01742D01*
X01753Y01953D02*
X01757D01*
X0246Y01695D02*
Y01914D01*
X02409Y01644D02*
X0246Y01695D01*
X02422Y01953D02*
X0246Y01914D01*
X01553Y01371D02*
X01553Y0137D01*
Y01318D02*
X01554Y01318D01*
X01561Y01234D02*
Y01236D01*
X01566Y01241*
X01568*
X01321Y01252D02*
X01328Y01259D01*
X01334*
X00905Y01475D02*
X00967D01*
X00815Y01385D02*
X00905Y01475D01*
X00815Y01291D02*
Y01385D01*
X00991Y01202D02*
X00992Y01201D01*
X00787Y01098D02*
X00802D01*
X012Y01049D02*
X01202D01*
X01207Y01044*
Y01042D02*
Y01044D01*
X01202Y01002D02*
Y01003D01*
X01133Y01004D02*
X01136Y01001D01*
X01137Y01002*
X01202Y00998D02*
X01207Y01003D01*
X00653Y00794D02*
X00709Y00738D01*
X01373D02*
X01412Y00777D01*
X00709Y00738D02*
X01373D01*
X01263Y00969D02*
X01281D01*
X01311Y01025D02*
Y01041D01*
X01367Y00986D02*
X01376Y00978D01*
X01486Y00952D02*
X01495D01*
X01446Y00972D02*
X01466D01*
X01534Y00966D02*
X01543D01*
X01582Y00945D02*
X01593D01*
X01537Y01005D02*
X01543D01*
X01376Y00978D02*
X01379Y00974D01*
X01558Y01172D02*
X0156Y01174D01*
X016Y0105D02*
X01601Y01051D01*
X01561Y0105D02*
X01562Y01051D01*
X0158Y0112D02*
Y01133D01*
X01573Y01113D02*
X0158Y0112D01*
X01563Y01448D02*
X01604D01*
X01513Y01498D02*
Y01621D01*
Y01498D02*
X01563Y01448D01*
X01622Y0153D02*
X01629D01*
X01617Y01535D02*
X01622Y0153D01*
X01617Y01567D02*
X01619Y0157D01*
X0146Y01524D02*
X01496Y0156D01*
X01772Y00913D02*
Y01169D01*
X01772Y00913D02*
X01772Y00913D01*
Y01169D02*
X02115Y01513D01*
X01376Y01061D02*
X01384D01*
X01592Y00783D02*
X01772D01*
X01892Y00903*
X01658Y01587D02*
Y01614D01*
X01496Y0156D02*
Y01651D01*
X01399Y0163D02*
Y01632D01*
X01349Y01648D02*
X0135Y01649D01*
X01298Y01647D02*
X01298Y01648D01*
X01136Y01603D02*
Y01605D01*
X01139Y01641D02*
X01146Y01648D01*
X01577Y01899D02*
Y01951D01*
X01606Y01837D02*
Y01967D01*
X01132Y0164D02*
X01136Y01644D01*
X01139Y01641*
X01921Y01936D02*
X01952Y01968D01*
X02027Y01993D02*
Y01998D01*
X0204Y01953D02*
X02051D01*
X02055*
X02049Y01955D02*
X02051Y01953D01*
X02049Y01955D02*
Y01971D01*
X02027Y01993D02*
X02049Y01971D01*
X02092Y02043D02*
X02182Y01953D01*
X01992Y02043D02*
X02092D01*
X01922Y01973D02*
X01992Y02043D01*
X01754Y01834D02*
Y01905D01*
X01755Y01907*
X01658Y01587D02*
X01757D01*
X01788Y01556*
X01697Y02003D02*
Y02294D01*
X0165Y02341D02*
X01697Y02294D01*
X01601Y0203D02*
Y02247D01*
X01551Y02296D02*
X01601Y02247D01*
X01551Y02296D02*
Y0234D01*
X0155Y02341D02*
X01551Y0234D01*
X01503Y0207D02*
Y02288D01*
Y0207D02*
X01606Y01967D01*
X0145Y02341D02*
X01503Y02288D01*
X0176Y01884D02*
X01776Y01868D01*
X0176Y01884D02*
Y01904D01*
X01757Y01907D02*
X0176Y01904D01*
X01755Y01907D02*
X01757D01*
X01776Y01868D02*
X01841D01*
X01788Y01556D02*
X01795D01*
X01798Y01553*
Y01548D02*
Y01553D01*
X018Y01556D02*
X01811D01*
X01798Y01553D02*
X018Y01556D01*
X01811D02*
X01881Y01626D01*
X0181Y01651D02*
X01878D01*
X01805D02*
X0181D01*
X01811Y0165*
X02115Y01513D02*
X02121D01*
X00215Y02175D02*
X00301Y02089D01*
X00215Y02175D02*
Y02307D01*
X0031Y02402*
X00389*
X0045Y02341*
X00275Y02187D02*
X0033Y02132D01*
X00275Y02187D02*
Y02266D01*
X0035Y02341*
X00686Y02092D02*
X00973D01*
X00606Y02172D02*
X00686Y02092D01*
X00606Y02172D02*
Y02285D01*
X0055Y02341D02*
X00606Y02285D01*
X00699Y02178D02*
X00759Y02118D01*
X0065Y02331D02*
X00699Y02283D01*
Y02178D02*
Y02283D01*
X0065Y02331D02*
Y02341D01*
X00985Y02118D02*
X01077Y02026D01*
X00759Y02118D02*
X00985D01*
X01002Y02166D02*
Y02276D01*
X0095Y02327D02*
X01002Y02276D01*
X0095Y02327D02*
Y02341D01*
X01002Y02166D02*
X01111Y02056D01*
X01487Y01912D02*
X0149Y01909D01*
X01487Y01912D02*
Y01913D01*
X01105Y02164D02*
Y02252D01*
X0105Y02306D02*
X01105Y02252D01*
X0105Y02306D02*
Y02341D01*
X01105Y02164D02*
X0113Y02139D01*
X0115Y02306D02*
X01198Y02259D01*
X0115Y02306D02*
Y02341D01*
X01393Y02135D02*
X01577Y01951D01*
X01393Y02135D02*
Y02299D01*
X0125Y02312D02*
X01301Y02262D01*
X0125Y02312D02*
Y02341D01*
X0135D02*
X01393Y02299D01*
X0135Y02341D02*
X0135D01*
X00961Y00808D02*
X01745D01*
X01572Y00733D02*
X0161Y00695D01*
Y00663D02*
X0194Y00333D01*
X0161Y00663D02*
Y00695D01*
X02001Y0159D02*
X02002Y0159D01*
X02057Y01611D02*
X02063Y01605D01*
X02015Y01611D02*
X02057D01*
X02002Y01597D02*
X02015Y01611D01*
X02002Y0159D02*
Y01597D01*
X01921Y01617D02*
X01947Y0159D01*
X02219Y01505D02*
Y01525D01*
X02216Y01528D02*
X02219Y01525D01*
X02211Y01453D02*
Y01455D01*
X02144Y01505D02*
X02158Y01519D01*
X02144Y0146D02*
Y01505D01*
Y0146D02*
X02151Y01453D01*
X02158Y01519D02*
Y0155D01*
X02199Y01505D02*
X02219D01*
X02184Y0149D02*
X02199Y01505D01*
X02176Y0149D02*
X02184D01*
X02151Y01453D02*
X02211D01*
X02147Y01561D02*
X02158Y0155D01*
X02064Y01873D02*
Y0188D01*
X02061Y01883D02*
X02064Y0188D01*
X02057Y01883D02*
X02061D01*
X0204D02*
X02057D01*
X01921Y01617D02*
Y01636D01*
X01917Y01666D02*
Y01677D01*
X01954Y01714*
X01988*
X01921Y01651D02*
X01986D01*
X0184Y01717D02*
X01881Y01675D01*
Y01626D02*
Y01636D01*
Y01666D02*
Y01675D01*
X01993Y01922D02*
X01994Y01921D01*
X01934Y01922D02*
X01993D01*
X01825Y01923D02*
X01874D01*
X01824Y01922D02*
X01825Y01923D01*
X01846Y01973D02*
X01922D01*
X01777D02*
X01846D01*
X01952Y01968D02*
X02025D01*
X01841Y01868D02*
X01882Y01909D01*
X01963Y01868D02*
X02025D01*
X02092Y01953D02*
X02102D01*
X02132Y01923*
X02094Y01885D02*
X02132Y01923D01*
X02089Y01885D02*
X02094D01*
X02132Y01923D02*
X02152D01*
X02182Y01953D02*
X02422D01*
X02409Y0161D02*
Y01644D01*
X024Y01601D02*
X02409Y0161D01*
X0239Y0181D02*
X024Y01801D01*
X02121Y01513D02*
Y01525D01*
Y01497D02*
Y01513D01*
X02114Y0149D02*
X02121Y01497D01*
X02114Y01475D02*
Y0149D01*
X02112Y01473D02*
X02114Y01475D01*
X02117Y01019D02*
Y01058D01*
X02082Y01093D02*
X02117Y01058D01*
X02062Y01093D02*
X02082D01*
X01982Y01293D02*
X02222D01*
X01892Y01203D02*
X01982Y01293D01*
X01892Y00903D02*
Y01203D01*
X02222Y01293D02*
X023Y01371D01*
X01842Y00623D02*
X01849Y00615D01*
X0191Y00533D02*
X01912D01*
X01987Y00477D02*
X01992Y00472D01*
X01942Y00623D02*
X01946Y00618D01*
Y00537D02*
X01951Y00533D01*
X01882Y00283D02*
X01942Y00223D01*
X01802Y00283D02*
X01882D01*
X01942Y00223D02*
X01952D01*
X02112Y00313D02*
X02152Y00273D01*
X01922Y00313D02*
X02112D01*
X01582Y00653D02*
X01922Y00313D01*
X0194Y00333D02*
X02142D01*
X01692Y00673D02*
X01982Y00383D01*
X02142Y00333D02*
X02252Y00223D01*
X02162Y00353D02*
X02222Y00293D01*
X01962Y00353D02*
X02162D01*
X01642Y00673D02*
X01962Y00353D01*
X02162Y00383D02*
X02222Y00323D01*
X01982Y00383D02*
X02162D01*
X01582Y00653D02*
Y00693D01*
X01598Y00598D02*
X01908Y00288D01*
X01552Y00598D02*
X01598D01*
X01522Y00643D02*
X01552Y00673D01*
X01522Y00563D02*
Y00643D01*
Y00563D02*
X01802Y00283D01*
X01562Y00713D02*
X01582Y00693D01*
X01522Y00713D02*
X01562D01*
X01482Y00673D02*
X01522Y00713D01*
X01908Y00288D02*
X01987D01*
X01492Y00733D02*
X01572D01*
X01432Y00673D02*
X01492Y00733D01*
X01987Y00288D02*
X02052Y00223D01*
X01412Y00673D02*
X01432D01*
X02302Y00323D02*
X02342Y00283D01*
X02222Y00323D02*
X02302D01*
X02342Y00173D02*
Y00283D01*
X02322Y00153D02*
X02342Y00173D01*
X01622Y00153D02*
X02322D01*
X01552Y00223D02*
X01622Y00153D01*
X02062Y00697D02*
X02067Y00703D01*
X02322Y00193D02*
Y00263D01*
X02302Y00173D02*
X02322Y00193D01*
X01702Y00173D02*
X02302D01*
X02292Y00293D02*
X02322Y00263D01*
X02222Y00293D02*
X02292D01*
X01652Y00223D02*
X01702Y00173D01*
X02152Y00223D02*
Y00273D01*
X00362Y00233D02*
Y00403D01*
X00322Y00443D02*
X00362Y00403D01*
X00322Y01433D02*
Y00443D01*
X00352Y00223D02*
X00362Y00233D01*
X00452Y00223D02*
Y00353D01*
X00352Y00453D02*
X00452Y00353D01*
X00352Y00453D02*
Y01383D01*
X00552Y00223D02*
Y00293D01*
X00382Y00463D02*
X00552Y00293D01*
X00382Y00463D02*
Y01343D01*
X00652Y00223D02*
Y00233D01*
X00412Y00473D02*
X00652Y00233D01*
X00412Y00473D02*
Y01343D01*
X00322Y01433D02*
Y01438D01*
X01452Y00223D02*
Y00243D01*
X01272Y00423D02*
X01452Y00243D01*
X00692Y00423D02*
X01272D01*
X00682Y01383D02*
X00687D01*
X00592Y01293D02*
X00682Y01383D01*
X00592Y00523D02*
Y01293D01*
Y00523D02*
X00692Y00423D01*
X00562Y01293D02*
X00642Y01373D01*
X00562Y00513D02*
Y01293D01*
Y00513D02*
X00672Y00403D01*
X00642Y01373D02*
Y01413D01*
X00652Y01423*
X00672Y00403D02*
X01172D01*
X01352Y00223*
X00632Y00293D02*
X00892D01*
X00442Y00483D02*
X00632Y00293D01*
X00442Y00483D02*
Y01333D01*
X00672Y00373D02*
X01102D01*
X00532Y00513D02*
X00672Y00373D01*
X00532Y00513D02*
Y01313D01*
X00599Y0138*
Y01383*
X00502Y01313D02*
X00562Y01373D01*
Y01392*
X00562Y01393D02*
Y01423D01*
Y01393D02*
X00562Y01392D01*
X01152Y00223D02*
X01152Y00222D01*
X01102Y00373D02*
X01252Y00223D01*
X00502Y00503D02*
Y01313D01*
X00662Y00893D02*
X00667Y00898D01*
X00721Y01043D02*
X00721Y01042D01*
X00502Y00503D02*
X00652Y00353D01*
X01022*
X01152Y00223*
X00472Y01333D02*
X00522Y01383D01*
X00442Y01333D02*
X00482Y01373D01*
Y01423*
X00472Y00493D02*
Y01333D01*
Y00493D02*
X00642Y00323D01*
X00952*
X01052Y00223*
X00952D02*
Y00233D01*
X00892Y00293D02*
X00952Y00233D01*
X00432Y01363D02*
Y01383D01*
X00412Y01343D02*
X00432Y01363D01*
X00392Y01423D02*
X00402Y01433D01*
X00392Y01353D02*
Y01423D01*
X00382Y01343D02*
X00392Y01353D01*
X00471Y01733D02*
X00471Y01733D01*
X00352Y01733D02*
X00471D01*
X00352Y01733D02*
X00352Y01733D01*
X00263Y01695D02*
X00266Y01693D01*
X00152D02*
X00266D01*
X00255Y01923D02*
X00265Y01913D01*
X00356Y01953D02*
X00452D01*
X00162Y01913D02*
X00245D01*
X00265D02*
X00267Y01915D01*
X00245Y01913D02*
X00255Y01923D01*
X01252Y00223D02*
X01252Y00222D01*
X00721Y01042D02*
X00722Y01043D01*
X01757Y01953D02*
X01777Y01973D01*
X00721Y01113D02*
X00722Y01112D01*
Y01113D02*
X00723D01*
X00771Y00963D02*
X00771Y00963D01*
X00732Y00963D02*
X00732Y00963D01*
Y01012D02*
X00732Y01013D01*
X02302Y00643D02*
X02309D01*
X02359Y00593D02*
X02361D01*
X02364Y00595*
Y00703D02*
X02365D01*
X02401Y00593D02*
X02412D01*
X01846Y01973D02*
X01882Y01936D01*
X02025Y01868D02*
X0204Y01883D01*
X02025Y01968D02*
X0204Y01953D01*
X02121Y01525D02*
X02124Y01528D01*
X02127*
X01972Y01019D02*
X01974Y01022D01*
Y01085D02*
X01982Y01093D01*
X01974Y01022D02*
Y01085D01*
G54D16*
X02232Y0177D03*
X02265D03*
X02365Y00703D03*
X02398D03*
X02261Y01844D03*
X02229D03*
X01784Y01717D03*
X01817D03*
X02088Y01953D03*
X02055D03*
X02089Y01883D03*
X02057D03*
X01722Y01907D03*
X01755D03*
X0172Y01947D03*
X01753D03*
X02027Y01588D03*
X01994D03*
X02021Y01714D03*
X01988D03*
X02216Y01528D03*
X02249D03*
X02127D03*
X02094D03*
G54D17*
X01798Y01581D03*
Y01548D03*
X02117Y01019D03*
Y00986D03*
X01975Y0102D03*
Y00987D03*
G54D19*
X01311Y00986D03*
Y01025D03*
X01255Y0161D03*
Y01649D03*
X01446Y01011D03*
Y00972D03*
X01543Y01005D03*
Y00966D03*
X01207Y01042D03*
Y01003D03*
X01136Y01605D03*
Y01644D03*
X01298Y01608D03*
Y01647D03*
X01398Y01586D03*
Y01626D03*
X01025Y01564D03*
Y01525D03*
G54D25*
X025Y01401D03*
G54D41*
X00993Y01166D02*
Y01208D01*
X00991Y01164D02*
X00993Y01166D01*
X00985Y01296D02*
X01002D01*
X0097Y01311D02*
X00985Y01296D01*
X01094Y01197D02*
X01152D01*
X01083Y01208D02*
X01094Y01197D01*
X01032Y01208D02*
X01083D01*
X01152Y01197D02*
X01199Y01244D01*
X01014Y01239D02*
Y01251D01*
X00993Y01218D02*
X01014Y01239D01*
X00989Y01072D02*
X01097D01*
X00973Y01087D02*
X00989Y01072D01*
X01092Y01477D02*
Y01507D01*
X01038Y01561D02*
X01092Y01507D01*
X0156Y00966D02*
X01582Y00945D01*
X01543Y00966D02*
X0156D01*
X01529Y01013D02*
X01537Y01005D01*
X01431Y01013D02*
X01529D01*
X01085Y01128D02*
X01105Y01148D01*
X00995Y01128D02*
X01085D01*
X00975Y01108D02*
X00995Y01128D01*
X00975Y01097D02*
Y01108D01*
X01152Y01097D02*
X012Y01049D01*
X01014Y01097D02*
X01152D01*
X01594Y01371D02*
Y01382D01*
X01578Y01399D02*
X01594Y01382D01*
X01421Y01399D02*
X01578D01*
X01593Y01318D02*
Y01366D01*
X01594Y0127D02*
X01607Y01256D01*
X01345Y0127D02*
X01594D01*
X0114Y01303D02*
X01199Y01244D01*
X01055Y01303D02*
X0114D01*
X01033Y01273D02*
X01092D01*
X0101Y01296D02*
X01033Y01273D01*
X01092D02*
X01125Y01241D01*
X01032Y01217D02*
X01052Y01237D01*
X00959Y0125D02*
X01013D01*
X01002Y01296D02*
X0101D01*
X00993Y01208D02*
Y01218D01*
X00771Y00963D02*
Y01029D01*
X00758Y01042D02*
X00771Y01029D01*
X00721Y01042D02*
X00758D01*
X00771Y00923D02*
Y00963D01*
Y00923D02*
X00792Y00903D01*
X01255Y01649D02*
X013Y01694D01*
X01253Y01784D02*
X01255Y01649D01*
X013Y01694D02*
Y01797D01*
X01251Y01846D02*
X013Y01797D01*
X01251Y01846D02*
Y01893D01*
X00965Y01528D02*
X01024D01*
Y01476D02*
Y01528D01*
X01593Y01318D02*
X01646D01*
X01199Y01244D02*
X01233Y0121D01*
X01105Y01148D02*
X01141D01*
X01623Y01267D02*
X01656D01*
X01607Y01251D02*
X01623Y01267D01*
X00975Y01363D02*
X01002Y01336D01*
X00944Y01363D02*
X00975D01*
X00973Y0143D02*
X01019Y01383D01*
X01018Y01337D02*
Y0137D01*
X01057Y01337D02*
Y0137D01*
X0106Y01371D02*
X01083Y01394D01*
X01129*
X00987Y01604D02*
X01024Y01567D01*
X00973Y01053D02*
Y01097D01*
X01097Y01072D02*
X01133Y01036D01*
X01487Y01172D02*
X01558D01*
X01346Y01569D02*
Y01613D01*
X01311Y01647D02*
X01346Y01613D01*
X0132Y01534D02*
X01372D01*
X01298Y01556D02*
X0132Y01534D01*
X01372D02*
X01399Y01561D01*
X01298Y01556D02*
Y01608D01*
X01286Y01568D02*
X01298Y01556D01*
X01246Y01568D02*
X01286D01*
X01399Y01561D02*
Y01578D01*
X01398Y01624D02*
X01417D01*
X01377D02*
X01398D01*
X01357Y01604D02*
X01377Y01624D01*
X01357Y01569D02*
Y01604D01*
X01417Y01624D02*
X01436Y01605D01*
X01598Y01173D02*
X01641D01*
X01246Y01568D02*
X01255Y01577D01*
X01201Y01568D02*
X01246D01*
X01165Y01574D02*
X01195D01*
X01136Y01603D02*
X01165Y01574D01*
X02276Y01525D02*
X024Y01401D01*
X02251Y01525D02*
X02276D01*
X02037Y01539D02*
X02048Y01528D01*
X02094*
X0203Y01542D02*
Y01585D01*
X00649Y01178D02*
X00682Y01144D01*
Y01113D02*
Y01144D01*
X01273Y01318D02*
X01554D01*
X01199Y01244D02*
X01273Y01318D01*
X01553Y01318D02*
Y0137D01*
X01334Y01259D02*
X01345Y0127D01*
X01553Y01175D02*
Y01226D01*
X01561Y01234*
X01199Y01244D02*
Y01324D01*
X01129Y01394D02*
X01199Y01324D01*
X00772Y01113D02*
X00787Y01098D01*
X01133Y01004D02*
Y01036D01*
X01137Y01002D02*
X01202D01*
Y0096D02*
Y00998D01*
X01283Y01025D02*
X01311D01*
X01266Y01042D02*
X01283Y01025D01*
X01207Y01042D02*
X01266D01*
X01281Y00969D02*
X01298Y00986D01*
X01331Y01061D02*
X01376D01*
X01311Y01041D02*
X01331Y01061D01*
X01298Y00986D02*
X01311D01*
X01367*
X01379Y00974D02*
X01464D01*
X01466Y00972D02*
X01486Y00952D01*
X01475Y00985D02*
X01516D01*
X01464Y00974D02*
X01475Y00985D01*
X01516D02*
X01534Y00966D01*
X01616Y01006D02*
X01641D01*
X016Y01021D02*
X01616Y01006D01*
X016Y01021D02*
Y0105D01*
X01592Y01145D02*
Y01166D01*
X0158Y01133D02*
X01592Y01145D01*
X01573Y01113D02*
X01601Y01084D01*
Y01051D02*
Y01084D01*
X01537Y01051D02*
X01562D01*
X01527Y01061D02*
X01537Y01051D01*
X01383Y01068D02*
X01487Y01172D01*
X01384Y01061D02*
X01527D01*
X01617Y01535D02*
Y01567D01*
X01384Y01061D02*
X01431Y01013D01*
X01436Y01605D02*
X0144D01*
X01298Y01648D02*
X01349D01*
X01255Y01577D02*
Y0161D01*
X01146Y01648D02*
X01195D01*
X01103Y0164D02*
X01132D01*
X00696Y00898D02*
X00732Y00934D01*
X00667Y00898D02*
X00696D01*
X00732Y00934D02*
Y00963D01*
X00652Y01043D02*
X00721D01*
X00733Y01113D02*
X00772D01*
X00732Y00963D02*
Y01012D01*
X00722Y01043D02*
Y01112D01*
G54D42*
X02117Y00986D02*
X02214D01*
X01589Y01529D02*
X01619Y01559D01*
X01549Y01529D02*
X01589D01*
X01587Y01576D02*
Y0163D01*
X01976Y00986D02*
X02117D01*
X01691Y01922D02*
X01716Y01947D01*
X01675Y01922D02*
X01691D01*
X0172Y01909D02*
Y01947D01*
G54D46*
X02252Y00103D03*
X02152D03*
X02052D03*
X01952D03*
X01852D03*
X01752D03*
X01652D03*
X01552D03*
X01452D03*
X01352D03*
X01252D03*
X01152D03*
X01052D03*
X00952D03*
X00852D03*
X00752D03*
X00652D03*
X00552D03*
X00452D03*
X024Y01401D03*
X025Y01501D03*
X024D03*
X025Y01601D03*
X024D03*
X025Y01701D03*
X024D03*
X025Y01801D03*
X024D03*
X025Y01901D03*
X024D03*
X025Y02001D03*
X024D03*
X00452Y02223D03*
X00552D03*
X00652D03*
X00752D03*
X00852D03*
X00952D03*
X01052D03*
X01152D03*
X01252D03*
X01352D03*
X01452D03*
X01552D03*
X01652D03*
X01752D03*
X01852D03*
X01952D03*
X02052D03*
X02152D03*
X02252D03*
X0045Y02341D03*
X0055D03*
X0065D03*
X0075D03*
X0085D03*
X0095D03*
X0105D03*
X0115D03*
X0125D03*
X0135D03*
X0145D03*
X0155D03*
X0165D03*
X0175D03*
X0185D03*
X0195D03*
X0205D03*
X0215D03*
X0225D03*
X02152Y00223D03*
X02052D03*
X01952D03*
X01852D03*
X01752D03*
X01652D03*
X01552D03*
X01452D03*
X01352D03*
X01252D03*
X01152D03*
X01052D03*
X00952D03*
X00852D03*
X00752D03*
X00652D03*
X00552D03*
X00452D03*
X00352D03*
G54D47*
X00352Y00103D03*
Y02223D03*
X0035Y02341D03*
X02252Y00223D03*
G54D48*
X01412Y0139D03*
X01587Y0163D03*
X00965Y01612D03*
X00963Y01531D03*
X0123Y01818D03*
X01251Y01893D03*
X02221Y0098D03*
X01321Y01252D03*
X01573Y01113D03*
X01842Y00623D03*
X01942D03*
X00162Y01913D03*
X00452Y01953D03*
X02302Y00643D03*
X02462D03*
G54D49*
X00991Y01164D03*
X00964Y01311D03*
X01495Y00956D03*
X00959Y01248D03*
X01125Y01241D03*
X01654Y01326D03*
X01593Y00945D03*
X01811Y0165D03*
X01141Y01148D03*
X01656Y01267D03*
X01263Y00969D03*
X01623Y01519D03*
X00792Y00903D03*
X00947Y01371D03*
X00952Y0143D03*
X01098Y01472D03*
X01085Y01637D03*
X01197Y00955D03*
X01454Y01586D03*
X0135Y01649D03*
X01643Y01171D03*
X00792Y01098D03*
X01641Y01006D03*
X00965Y01044D03*
X01195Y01648D03*
X01346Y01569D03*
X01195Y01574D03*
X00649Y01178D03*
X01024Y01476D03*
X01136Y01001D03*
X01376Y00978D03*
X01549Y01529D03*
X01376Y01061D03*
X01986Y01651D03*
X01824Y01922D03*
X01994Y01921D03*
X02152Y01923D03*
X00652Y01043D03*
X00662Y00893D03*
X00152Y01693D03*
X00471Y01733D03*
G54D50*
X01855Y01094D03*
X01233Y01208D03*
X01445Y01474D03*
X01816Y01767D03*
X01546Y0184D03*
X01658Y01614D03*
X01604Y01449D03*
X01552Y00598D03*
X00402Y01433D03*
X00961Y00807D03*
X00322Y01433D03*
X00482Y01423D03*
X01412Y00673D03*
X00652Y01423D03*
X01577Y01899D03*
X01606Y01837D03*
X00352Y01383D03*
X02027Y01999D03*
X01498Y01452D03*
X01776Y00903D03*
X0146Y01524D03*
X01412Y00777D03*
X0149Y01845D03*
X0146Y01896D03*
X01632Y00673D03*
X006Y01383D03*
X0143Y01788D03*
X01433Y01841D03*
X01519Y01898D03*
X01692Y00673D03*
X00432Y01383D03*
X01552Y00673D03*
X00522Y01383D03*
X00562Y01423D03*
X01754Y01834D03*
X00687Y01383D03*
X01532Y00783D03*
X01482Y00673D03*
X01675Y01922D03*
X02034Y01539D03*
X02071Y01722D03*
X02227Y01471D03*
X00815Y01291D03*
X02014Y01481D03*
X00653Y00794D03*
X02176Y0149D03*
X02112Y01473D03*
X02062Y01093D03*
X01982D03*
G54D62*
X00356Y01953D03*
X00267Y0199D03*
Y01915D03*
X00352Y01733D03*
X00263Y0177D03*
Y01695D03*
G54D63*
X01017Y01336D03*
X01056D03*
X01553Y01371D03*
X01592D03*
X01554Y01318D03*
X01593D03*
X00732Y01013D03*
X00772D03*
X00732Y00963D03*
X00771D03*
X01032Y01208D03*
X00993D03*
X01052Y01245D03*
X01013D03*
X01568Y01241D03*
X01607D03*
X01014Y01097D03*
X00975D03*
X01052Y01301D03*
X01013D03*
X01561Y0105D03*
X016D03*
X0158Y0157D03*
X01619D03*
X01553Y01175D03*
X01592D03*
X00682Y01113D03*
X00721D03*
X01058Y01371D03*
X01019D03*
X02361Y00593D03*
X02401D03*
X01951Y00533D03*
X01912D03*
G54D64*
X01881Y01664D03*
Y01651D03*
Y01637D03*
X01921D03*
Y01651D03*
Y01664D03*
X01923Y01909D03*
Y01923D03*
Y01936D03*
X01884D03*
Y01923D03*
Y01909D03*
G54D65*
X02122Y00707D03*
G54D66*
X02031Y00458D03*
X02122D03*
X02212D03*
G54D67*
X02087Y00703D02*
X02364D01*
X02202Y00448D02*
X02407D01*
X01849Y00593D02*
Y00615D01*
Y00593D02*
X0191Y00533D01*
X01946Y00537D02*
Y00618D01*
X01951Y00513D02*
X01987Y00477D01*
X01951Y00513D02*
Y00533D01*
X02007Y00458D02*
X02031D01*
X01987Y00478D02*
X02007Y00458D01*
X02122Y00448D02*
Y00503D01*
X02262Y00643*
X02364Y00595D02*
Y00703D01*
X02262Y00643D02*
X02302D01*
X02309D02*
X02359Y00593D01*
X02404Y007D02*
X02462Y00643D01*
Y00503D02*
Y00643D01*
X02407Y00448D02*
X02462Y00503D01*
X02412Y00593D02*
X02462Y00643D01*
M02*