%FSTAX23Y23*%
%MOIN*%
%SFA1B1*%

%IPPOS*%
%ADD26R,0.032610X0.023750*%
%ADD27R,0.023750X0.032610*%
%ADD28R,0.047370X0.070990*%
%ADD29R,0.027690X0.031620*%
%ADD30R,0.033590X0.068040*%
%ADD31R,0.086740X0.039500*%
%ADD32R,0.067060X0.070990*%
%ADD33R,0.066070X0.019810*%
%ADD34R,0.019810X0.066070*%
%ADD35R,0.067060X0.067060*%
%ADD36C,0.067060*%
%ADD37R,0.067060X0.067060*%
%ADD38C,0.058000*%
%ADD39C,0.048000*%
%ADD40C,0.032000*%
%LNpcb1-1*%
%LPD*%
G54D26*
X02313Y00813D03*
X0228D03*
X00288Y01473D03*
X00255D03*
Y00563D03*
X00288D03*
X00728Y01673D03*
X00695D03*
X00728Y01723D03*
X00695D03*
X00245Y00883D03*
X00278D03*
X02306Y01457D03*
X02273D03*
G54D27*
X00302Y00729D03*
Y00696D03*
X00792Y01239D03*
Y01206D03*
X0078Y01346D03*
Y01379D03*
X01937Y01547D03*
Y0158D03*
X00942Y00759D03*
Y00726D03*
G54D28*
X00132Y01083D03*
Y00883D03*
G54D29*
X00282Y00393D03*
Y00432D03*
G54D30*
X02012Y01181D03*
X02062D03*
X02112D03*
X02162D03*
Y01394D03*
X02112D03*
X02062D03*
X02012D03*
G54D31*
X00132Y00565D03*
Y004D03*
G54D32*
X02159Y01705D03*
X02259D03*
Y01606D03*
X02159D03*
G54D33*
X0088Y0164D03*
Y01621D03*
Y01601D03*
Y01581D03*
Y01561D03*
Y01542D03*
Y01522D03*
Y01502D03*
Y01483D03*
Y01463D03*
Y01443D03*
Y01424D03*
Y01404D03*
Y01384D03*
Y01365D03*
Y01345D03*
Y01325D03*
Y01306D03*
Y01286D03*
Y01266D03*
Y01247D03*
Y01227D03*
Y01207D03*
Y01187D03*
Y01168D03*
Y01148D03*
Y01128D03*
Y01109D03*
Y01089D03*
Y01069D03*
Y0105D03*
Y0103D03*
Y0101D03*
Y00991D03*
Y00971D03*
Y00951D03*
X01725D03*
Y00971D03*
Y00991D03*
Y0101D03*
Y0103D03*
Y0105D03*
Y01069D03*
Y01089D03*
Y01109D03*
Y01128D03*
Y01148D03*
Y01168D03*
Y01187D03*
Y01207D03*
Y01227D03*
Y01247D03*
Y01266D03*
Y01286D03*
Y01306D03*
Y01325D03*
Y01345D03*
Y01365D03*
Y01384D03*
Y01404D03*
Y01424D03*
Y01443D03*
Y01463D03*
Y01483D03*
Y01502D03*
Y01522D03*
Y01542D03*
Y01561D03*
Y01581D03*
Y01601D03*
Y01621D03*
Y0164D03*
G54D34*
X00958Y00873D03*
X00978D03*
X00998D03*
X01017D03*
X01037D03*
X01057D03*
X01076D03*
X01096D03*
X01116D03*
X01135D03*
X01155D03*
X01175D03*
X01194D03*
X01214D03*
X01234D03*
X01254D03*
X01273D03*
X01293D03*
X01313D03*
X01332D03*
X01352D03*
X01372D03*
X01391D03*
X01411D03*
X01431D03*
X0145D03*
X0147D03*
X0149D03*
X01509D03*
X01529D03*
X01549D03*
X01568D03*
X01588D03*
X01608D03*
X01628D03*
X01647D03*
Y01719D03*
X01628D03*
X01608D03*
X01588D03*
X01568D03*
X01549D03*
X01529D03*
X01509D03*
X0149D03*
X0147D03*
X0145D03*
X01431D03*
X01411D03*
X01391D03*
X01372D03*
X01352D03*
X01332D03*
X01313D03*
X01293D03*
X01273D03*
X01254D03*
X01234D03*
X01214D03*
X01194D03*
X01175D03*
X01155D03*
X01135D03*
X01116D03*
X01096D03*
X01076D03*
X01057D03*
X01037D03*
X01017D03*
X00998D03*
X00978D03*
X00958D03*
G54D35*
X02492Y00814D03*
Y00951D03*
X00132Y01471D03*
Y01334D03*
X025Y01401D03*
G54D36*
X02252Y00103D03*
X02152D03*
X02052D03*
X01952D03*
X01852D03*
X01752D03*
X01652D03*
X01552D03*
X01452D03*
X01352D03*
X01252D03*
X01152D03*
X01052D03*
X00952D03*
X00852D03*
X00752D03*
X00652D03*
X00552D03*
X00452D03*
X024Y01401D03*
X025Y01501D03*
X024D03*
X025Y01601D03*
X024D03*
X025Y01701D03*
X024D03*
X025Y01801D03*
X024D03*
X025Y01901D03*
X024D03*
X025Y02001D03*
X024D03*
X00452Y02223D03*
X00552D03*
X00652D03*
X00752D03*
X00852D03*
X00952D03*
X01052D03*
X01152D03*
X01252D03*
X01352D03*
X01452D03*
X01552D03*
X01652D03*
X01752D03*
X01852D03*
X01952D03*
X02052D03*
X02152D03*
X02252D03*
X0045Y02341D03*
X0055D03*
X0065D03*
X0075D03*
X0085D03*
X0095D03*
X0105D03*
X0115D03*
X0125D03*
X0135D03*
X0145D03*
X0155D03*
X0165D03*
X0175D03*
X0185D03*
X0195D03*
X0205D03*
X0215D03*
X0225D03*
X02152Y00223D03*
X02052D03*
X01952D03*
X01852D03*
X01752D03*
X01652D03*
X01552D03*
X01452D03*
X01352D03*
X01252D03*
X01152D03*
X01052D03*
X00952D03*
X00852D03*
X00752D03*
X00652D03*
X00552D03*
X00452D03*
X00352D03*
G54D37*
X00352Y00103D03*
Y02223D03*
X0035Y02341D03*
X02252Y00223D03*
G54D38*
X00747Y02018D03*
X00879D03*
X01587Y0163D03*
X01263Y00969D03*
X00965Y01612D03*
X01271Y00773D03*
X0133Y01957D03*
X01815Y00993D03*
X00963Y01531D03*
X01736Y00738D03*
X00742Y01174D03*
X0123Y01818D03*
X01818Y01358D03*
X01573Y01113D03*
X02382Y01013D03*
X00892Y00573D03*
X00242Y01373D03*
X00572Y01733D03*
X00695Y01896D03*
X00242Y01213D03*
G54D39*
X00964Y01311D03*
X01495Y00956D03*
X00959Y01248D03*
X01654Y01326D03*
X01593Y00945D03*
X01Y00968D03*
X01656Y01267D03*
X01623Y01519D03*
X00792Y00903D03*
X00669Y01305D03*
X00947Y01371D03*
X01197Y00955D03*
X01454Y01586D03*
X01234Y01502D03*
X0135Y01649D03*
X01061Y01033D03*
X01643Y01171D03*
X00792Y01098D03*
X01641Y01006D03*
X00965Y01044D03*
X01195Y01648D03*
X02068Y01656D03*
X00242Y00323D03*
X00212Y00733D03*
X01912Y01433D03*
X02172Y01093D03*
X02252Y01178D03*
G54D40*
X01855Y01094D03*
X01445Y01474D03*
X01816Y01767D03*
X01546Y0184D03*
X01658Y01614D03*
X01604Y01449D03*
X01552Y00598D03*
X00402Y01433D03*
X00961Y00807D03*
X00322Y01433D03*
X00482Y01423D03*
X01412Y00673D03*
X00652Y01423D03*
X01577Y01899D03*
X01606Y01837D03*
X00352Y01383D03*
X02027Y01999D03*
X01498Y01452D03*
X01776Y00903D03*
X0146Y01524D03*
X01412Y00777D03*
X0149Y01845D03*
X0146Y01896D03*
X01632Y00673D03*
X006Y01383D03*
X0143Y01788D03*
X01433Y01841D03*
X01519Y01898D03*
X01692Y00673D03*
X00432Y01383D03*
X01552Y00673D03*
X00522Y01383D03*
X00562Y01423D03*
X01754Y01834D03*
X00687Y01383D03*
X01532Y00783D03*
X01482Y00673D03*
X02227Y01471D03*
X00815Y01291D03*
X02014Y01481D03*
X00653Y00794D03*
X02176Y0149D03*
X02112Y01473D03*
X02062Y01093D03*
X01982D03*
M02*