%FSTAX23Y23*%
%MOIN*%
%SFA1B1*%

%IPPOS*%
%ADD11C,0.009840*%
%ADD12C,0.007870*%
%ADD15C,0.010000*%
%LNpcb1-1*%
%LPD*%
G54D11*
X0037Y01919D02*
D01*
X0037Y01919*
X0037Y0192*
X00369Y0192*
X00369Y0192*
X00369Y01921*
X00369Y01921*
X00369Y01921*
X00369Y01922*
X00369Y01922*
X00368Y01922*
X00368Y01922*
X00368Y01923*
X00368Y01923*
X00367Y01923*
X00367Y01923*
X00367Y01923*
X00366Y01924*
X00366Y01924*
X00366Y01924*
X00366Y01924*
X00365Y01924*
X00365Y01924*
X00364*
X00364Y01924*
X00364Y01924*
X00363Y01924*
X00363Y01924*
X00363Y01924*
X00362Y01923*
X00362Y01923*
X00362Y01923*
X00362Y01923*
X00361Y01923*
X00361Y01922*
X00361Y01922*
X00361Y01922*
X0036Y01922*
X0036Y01921*
X0036Y01921*
X0036Y01921*
X0036Y0192*
X0036Y0192*
X0036Y0192*
X0036Y01919*
X0036Y01919*
X0036Y01919*
X0036Y01918*
X0036Y01918*
X0036Y01918*
X0036Y01917*
X0036Y01917*
X0036Y01917*
X0036Y01916*
X00361Y01916*
X00361Y01916*
X00361Y01916*
X00361Y01915*
X00362Y01915*
X00362Y01915*
X00362Y01915*
X00362Y01915*
X00363Y01914*
X00363Y01914*
X00363Y01914*
X00364Y01914*
X00364Y01914*
X00364Y01914*
X00365*
X00365Y01914*
X00366Y01914*
X00366Y01914*
X00366Y01914*
X00366Y01914*
X00367Y01915*
X00367Y01915*
X00367Y01915*
X00368Y01915*
X00368Y01915*
X00368Y01916*
X00368Y01916*
X00369Y01916*
X00369Y01916*
X00369Y01917*
X00369Y01917*
X00369Y01917*
X00369Y01918*
X00369Y01918*
X0037Y01918*
X0037Y01919*
X0037Y01919*
X00365Y01699D02*
D01*
X00365Y01699*
X00365Y017*
X00365Y017*
X00365Y017*
X00365Y01701*
X00365Y01701*
X00365Y01701*
X00365Y01702*
X00364Y01702*
X00364Y01702*
X00364Y01702*
X00364Y01703*
X00363Y01703*
X00363Y01703*
X00363Y01703*
X00363Y01703*
X00362Y01704*
X00362Y01704*
X00362Y01704*
X00361Y01704*
X00361Y01704*
X00361Y01704*
X0036*
X0036Y01704*
X0036Y01704*
X00359Y01704*
X00359Y01704*
X00359Y01704*
X00358Y01703*
X00358Y01703*
X00358Y01703*
X00357Y01703*
X00357Y01703*
X00357Y01702*
X00357Y01702*
X00356Y01702*
X00356Y01702*
X00356Y01701*
X00356Y01701*
X00356Y01701*
X00356Y017*
X00356Y017*
X00355Y017*
X00355Y01699*
X00355Y01699*
X00355Y01699*
X00355Y01698*
X00356Y01698*
X00356Y01698*
X00356Y01697*
X00356Y01697*
X00356Y01697*
X00356Y01696*
X00356Y01696*
X00357Y01696*
X00357Y01696*
X00357Y01695*
X00357Y01695*
X00358Y01695*
X00358Y01695*
X00358Y01695*
X00359Y01694*
X00359Y01694*
X00359Y01694*
X0036Y01694*
X0036Y01694*
X0036Y01694*
X00361*
X00361Y01694*
X00361Y01694*
X00362Y01694*
X00362Y01694*
X00362Y01694*
X00363Y01695*
X00363Y01695*
X00363Y01695*
X00363Y01695*
X00364Y01695*
X00364Y01696*
X00364Y01696*
X00364Y01696*
X00365Y01696*
X00365Y01697*
X00365Y01697*
X00365Y01697*
X00365Y01698*
X00365Y01698*
X00365Y01698*
X00365Y01699*
X00365Y01699*
X01941Y01687D02*
D01*
X01941Y01687*
X01941Y01688*
X01941Y01688*
X01941Y01688*
X01941Y01689*
X01941Y01689*
X01941Y01689*
X0194Y0169*
X0194Y0169*
X0194Y0169*
X0194Y0169*
X0194Y01691*
X01939Y01691*
X01939Y01691*
X01939Y01691*
X01938Y01691*
X01938Y01691*
X01938Y01692*
X01937Y01692*
X01937Y01692*
X01937Y01692*
X01936Y01692*
X01936*
X01936Y01692*
X01935Y01692*
X01935Y01692*
X01935Y01692*
X01934Y01691*
X01934Y01691*
X01934Y01691*
X01933Y01691*
X01933Y01691*
X01933Y01691*
X01933Y0169*
X01932Y0169*
X01932Y0169*
X01932Y0169*
X01932Y01689*
X01932Y01689*
X01932Y01689*
X01932Y01688*
X01931Y01688*
X01931Y01688*
X01931Y01687*
X01931Y01687*
X01931Y01687*
X01931Y01686*
X01931Y01686*
X01932Y01686*
X01932Y01685*
X01932Y01685*
X01932Y01685*
X01932Y01684*
X01932Y01684*
X01932Y01684*
X01933Y01684*
X01933Y01683*
X01933Y01683*
X01933Y01683*
X01934Y01683*
X01934Y01682*
X01934Y01682*
X01935Y01682*
X01935Y01682*
X01935Y01682*
X01936Y01682*
X01936Y01682*
X01936*
X01937Y01682*
X01937Y01682*
X01937Y01682*
X01938Y01682*
X01938Y01682*
X01938Y01682*
X01939Y01683*
X01939Y01683*
X01939Y01683*
X0194Y01683*
X0194Y01684*
X0194Y01684*
X0194Y01684*
X0194Y01684*
X01941Y01685*
X01941Y01685*
X01941Y01685*
X01941Y01686*
X01941Y01686*
X01941Y01686*
X01941Y01687*
X01941Y01687*
X01873Y01886D02*
D01*
X01873Y01886*
X01873Y01887*
X01873Y01887*
X01873Y01887*
X01873Y01888*
X01873Y01888*
X01872Y01888*
X01872Y01889*
X01872Y01889*
X01872Y01889*
X01872Y01889*
X01871Y0189*
X01871Y0189*
X01871Y0189*
X01871Y0189*
X0187Y01891*
X0187Y01891*
X0187Y01891*
X01869Y01891*
X01869Y01891*
X01869Y01891*
X01868Y01891*
X01868*
X01868Y01891*
X01867Y01891*
X01867Y01891*
X01867Y01891*
X01866Y01891*
X01866Y01891*
X01866Y0189*
X01865Y0189*
X01865Y0189*
X01865Y0189*
X01865Y01889*
X01864Y01889*
X01864Y01889*
X01864Y01889*
X01864Y01888*
X01864Y01888*
X01863Y01888*
X01863Y01887*
X01863Y01887*
X01863Y01887*
X01863Y01886*
X01863Y01886*
X01863Y01886*
X01863Y01885*
X01863Y01885*
X01863Y01885*
X01863Y01884*
X01864Y01884*
X01864Y01884*
X01864Y01883*
X01864Y01883*
X01864Y01883*
X01865Y01883*
X01865Y01882*
X01865Y01882*
X01865Y01882*
X01866Y01882*
X01866Y01882*
X01866Y01882*
X01867Y01881*
X01867Y01881*
X01867Y01881*
X01868Y01881*
X01868Y01881*
X01868*
X01869Y01881*
X01869Y01881*
X01869Y01881*
X0187Y01881*
X0187Y01882*
X0187Y01882*
X01871Y01882*
X01871Y01882*
X01871Y01882*
X01871Y01882*
X01872Y01883*
X01872Y01883*
X01872Y01883*
X01872Y01883*
X01872Y01884*
X01873Y01884*
X01873Y01884*
X01873Y01885*
X01873Y01885*
X01873Y01885*
X01873Y01886*
X01873Y01886*
G54D12*
X00339Y0198D02*
Y02012D01*
X00304D02*
X00339D01*
Y01893D02*
Y01925D01*
X00304Y01893D02*
X00339D01*
X00335Y0176D02*
Y01792D01*
X00299D02*
X00335D01*
Y01673D02*
Y01705D01*
X00299Y01673D02*
X00335D01*
X02245Y00424D02*
Y00493D01*
X01994Y00514D02*
X02249D01*
X01994D02*
Y00651D01*
X02249*
Y00514D02*
Y00651D01*
G54D15*
X01291Y01738D02*
X01286Y01743D01*
Y01753*
X01291Y01758*
X01311*
X01316Y01753*
Y01743*
X01311Y01738*
X01316Y01708D02*
Y01728D01*
X01296Y01708*
X01291*
X01286Y01713*
Y01723*
X01291Y01728*
X01316Y01698D02*
Y01688D01*
Y01693*
X01286*
X01291Y01698*
X01137Y01398D02*
X01142Y01403D01*
X01152*
X01157Y01398*
Y01379*
X01152Y01374*
X01142*
X01137Y01379*
X01127Y01374D02*
X01117D01*
X01122*
Y01403*
X01127Y01398*
X01102D02*
X01097Y01403D01*
X01087*
X01082Y01398*
Y01379*
X01087Y01374*
X01097*
X01102Y01379*
Y01398*
X02291Y01795D02*
Y01824D01*
X02276*
X02271Y01819*
Y0181*
X02276Y01805*
X02291*
X02281D02*
X02271Y01795D01*
X02241D02*
X02261D01*
X02241Y01814*
Y01819*
X02246Y01824*
X02256*
X02261Y01819*
X02231Y01824D02*
X02211D01*
Y01819*
X02231Y018*
Y01795*
X01145Y01347D02*
X0115Y01352D01*
X0116*
X01165Y01347*
Y01328*
X0116Y01323*
X0115*
X01145Y01328*
X01135Y01323D02*
X01125D01*
X0113*
Y01352*
X01135Y01347*
X0109Y01323D02*
X0111D01*
X0109Y01342*
Y01347*
X01095Y01352*
X01105*
X0111Y01347*
X02421Y00735D02*
Y00764D01*
X02406*
X02401Y00759*
Y00749*
X02406Y00745*
X02421*
X02411D02*
X02401Y00735D01*
X02371D02*
X02391D01*
X02371Y00754*
Y00759*
X02376Y00764*
X02386*
X02391Y00759*
X02361Y0074D02*
X02356Y00735D01*
X02346*
X02341Y0074*
Y00759*
X02346Y00764*
X02356*
X02361Y00759*
Y00754*
X02356Y00749*
X02341*
X02288Y01875D02*
Y01904D01*
X02273*
X02268Y01899*
Y01889*
X02273Y01885*
X02288*
X02278D02*
X02268Y01875D01*
X02238D02*
X02258D01*
X02238Y01894*
Y01899*
X02243Y01904*
X02253*
X02258Y01899*
X02208Y01904D02*
X02218Y01899D01*
X02228Y01889*
Y0188*
X02223Y01875*
X02213*
X02208Y0188*
Y01885*
X02213Y01889*
X02228*
X0227Y01558D02*
Y01587D01*
X02255*
X0225Y01582*
Y01572*
X02255Y01568*
X0227*
X0226D02*
X0225Y01558D01*
X0222D02*
X0224D01*
X0222Y01577*
Y01582*
X02225Y01587*
X02235*
X0224Y01582*
X0219Y01558D02*
X0221D01*
X0219Y01577*
Y01582*
X02195Y01587*
X02205*
X0221Y01582*
X01755Y01601D02*
X01725D01*
Y01586*
X0173Y01581*
X0174*
X01745Y01586*
Y01601*
Y01591D02*
X01755Y01581D01*
Y01551D02*
Y01571D01*
X01735Y01551*
X0173*
X01725Y01556*
Y01566*
X0173Y01571*
Y01541D02*
X01725Y01536D01*
Y01526*
X0173Y01521*
X0175*
X01755Y01526*
Y01536*
X0175Y01541*
X0173*
X01748Y01708D02*
Y01737D01*
X01733*
X01728Y01732*
Y01723*
X01733Y01718*
X01748*
X01738D02*
X01728Y01708D01*
X01718D02*
X01708D01*
X01713*
Y01737*
X01718Y01732*
X01693Y01713D02*
X01688Y01708D01*
X01678*
X01673Y01713*
Y01732*
X01678Y01737*
X01688*
X01693Y01732*
Y01727*
X01688Y01723*
X01673*
X0207Y01987D02*
X02099D01*
Y02002*
X02094Y02006*
X02085*
X0208Y02002*
Y01987*
Y01997D02*
X0207Y02006D01*
Y02016D02*
Y02026D01*
Y02021*
X02099*
X02094Y02016*
Y02041D02*
X02099Y02046D01*
Y02056*
X02094Y02061*
X02089*
X02085Y02056*
X0208Y02061*
X02075*
X0207Y02056*
Y02046*
X02075Y02041*
X0208*
X02085Y02046*
X02089Y02041*
X02094*
X02085Y02046D02*
Y02056D01*
X02106Y01826D02*
Y01855D01*
X02091*
X02086Y0185*
Y0184*
X02091Y01836*
X02106*
X02096D02*
X02086Y01826D01*
X02076D02*
X02066D01*
X02071*
Y01855*
X02076Y0185*
X02051Y01855D02*
X02031D01*
Y0185*
X02051Y01831*
Y01826*
X01698Y01883D02*
Y01853D01*
X01713*
X01717Y01858*
Y01868*
X01713Y01873*
X01698*
X01708D02*
X01717Y01883D01*
X01727D02*
X01737D01*
X01732*
Y01853*
X01727Y01858*
X01772Y01853D02*
X01762Y01858D01*
X01752Y01868*
Y01878*
X01757Y01883*
X01767*
X01772Y01878*
Y01873*
X01767Y01868*
X01752*
X01771Y01981D02*
Y0201D01*
X01756*
X01751Y02005*
Y01996*
X01756Y01991*
X01771*
X01761D02*
X01751Y01981D01*
X01741D02*
X01731D01*
X01736*
Y0201*
X01741Y02005*
X01696Y0201D02*
X01716D01*
Y01996*
X01706Y02*
X01701*
X01696Y01996*
Y01986*
X01701Y01981*
X01711*
X01716Y01986*
X02038Y01746D02*
Y01775D01*
X02023*
X02018Y0177*
Y01761*
X02023Y01756*
X02038*
X02028D02*
X02018Y01746D01*
X02008D02*
X01998D01*
X02003*
Y01775*
X02008Y0177*
X01968Y01746D02*
Y01775D01*
X01983Y01761*
X01963*
X01995Y01563D02*
X01965D01*
Y01548*
X0197Y01543*
X0198*
X01985Y01548*
Y01563*
Y01553D02*
X01995Y01543D01*
Y01533D02*
Y01523D01*
Y01528*
X01965*
X0197Y01533*
Y01508D02*
X01965Y01503D01*
Y01493*
X0197Y01488*
X01975*
X0198Y01493*
Y01498*
Y01493*
X01985Y01488*
X0199*
X01995Y01493*
Y01503*
X0199Y01508*
X02147Y01559D02*
Y01588D01*
X02132*
X02127Y01583*
Y01573*
X02132Y01569*
X02147*
X02137D02*
X02127Y01559D01*
X02117D02*
X02107D01*
X02112*
Y01588*
X02117Y01583*
X02092D02*
X02087Y01588D01*
X02077*
X02072Y01583*
Y01564*
X02077Y01559*
X02087*
X02092Y01564*
Y01583*
X02144Y00981D02*
X02173D01*
Y00995*
X02168Y01*
X02158*
X02154Y00995*
Y00981*
Y00991D02*
X02144Y01D01*
X02173Y0103D02*
X02168Y0102D01*
X02158Y0101*
X02149*
X02144Y01015*
Y01025*
X02149Y0103*
X02154*
X02158Y01025*
Y0101*
X01945Y01028D02*
X01915D01*
Y01013*
X0192Y01008*
X0193*
X01935Y01013*
Y01028*
Y01018D02*
X01945Y01008D01*
X01915Y00978D02*
Y00998D01*
X0193*
X01925Y00988*
Y00983*
X0193Y00978*
X0194*
X01945Y00983*
Y00993*
X0194Y00998*
X02139Y00841D02*
X02119D01*
X02129*
Y00782*
X02139*
X02119*
X02049Y00831D02*
X02059Y00841D01*
X02079*
X02089Y00831*
Y00792*
X02079Y00782*
X02059*
X02049Y00792*
X01989Y00841D02*
X02029D01*
Y00811*
X02009Y00821*
X01999*
X01989Y00811*
Y00792*
X01999Y00782*
X02019*
X02029Y00792*
X01931Y01708D02*
Y01727D01*
Y01718*
X01872*
Y01708*
Y01727*
X01921Y01797D02*
X01931Y01787D01*
Y01767*
X01921Y01757*
X01882*
X01872Y01767*
Y01787*
X01882Y01797*
X01872Y01847D02*
X01931D01*
X01901Y01817*
Y01857*
X01994Y02052D02*
X01974D01*
X01984*
Y01993*
X01994*
X01974*
X01904Y02042D02*
X01914Y02052D01*
X01934*
X01944Y02042*
Y02003*
X01934Y01993*
X01914*
X01904Y02003*
X01884Y02042D02*
X01874Y02052D01*
X01854*
X01844Y02042*
Y02032*
X01854Y02022*
X01864*
X01854*
X01844Y02012*
Y02003*
X01854Y01993*
X01874*
X01884Y02003*
X00216Y02039D02*
Y0198D01*
X00186*
X00176Y0199*
Y02029*
X00186Y02039*
X00216*
X00116Y0198D02*
X00156D01*
X00116Y02019*
Y02029*
X00126Y02039*
X00146*
X00156Y02029*
X00203Y01827D02*
Y01768D01*
X00173*
X00163Y01778*
Y01817*
X00173Y01827*
X00203*
X00143Y01768D02*
X00123D01*
X00133*
Y01827*
X00143Y01817*
X01513Y0125D02*
X01518Y01255D01*
X01528*
X01533Y0125*
Y01231*
X01528Y01226*
X01518*
X01513Y01231*
X01483Y01226D02*
X01503D01*
X01483Y01245*
Y0125*
X01488Y01255*
X01498*
X01503Y0125*
X01453Y01255D02*
X01463Y0125D01*
X01473Y01241*
Y01231*
X01468Y01226*
X01458*
X01453Y01231*
Y01236*
X01458Y01241*
X01473*
X01216Y01092D02*
X01221Y01088D01*
Y01078*
X01216Y01073*
X01197*
X01192Y01078*
Y01088*
X01197Y01092*
X01192Y01122D02*
Y01102D01*
X01211Y01122*
X01216*
X01221Y01117*
Y01107*
X01216Y01102*
X01221Y01152D02*
Y01132D01*
X01207*
X01211Y01142*
Y01147*
X01207Y01152*
X01197*
X01192Y01147*
Y01137*
X01197Y01132*
X0111Y01106D02*
X01115Y01111D01*
X01125*
X0113Y01106*
Y01087*
X01125Y01082*
X01115*
X0111Y01087*
X0108Y01082D02*
X011D01*
X0108Y01101*
Y01106*
X01085Y01111*
X01095*
X011Y01106*
X01055Y01082D02*
Y01111D01*
X0107Y01096*
X0105*
X0115Y01302D02*
X01155Y01307D01*
X01165*
X0117Y01302*
Y01283*
X01165Y01278*
X01155*
X0115Y01283*
X0112Y01278D02*
X0114D01*
X0112Y01297*
Y01302*
X01125Y01307*
X01135*
X0114Y01302*
X0111D02*
X01105Y01307D01*
X01095*
X0109Y01302*
Y01297*
X01095Y01292*
X011*
X01095*
X0109Y01288*
Y01283*
X01095Y01278*
X01105*
X0111Y01283*
X01125Y01738D02*
X0112Y01743D01*
Y01753*
X01125Y01758*
X01145*
X0115Y01753*
Y01743*
X01145Y01738*
X0115Y01708D02*
Y01728D01*
X0113Y01708*
X01125*
X0112Y01713*
Y01723*
X01125Y01728*
X0115Y01678D02*
Y01698D01*
X0113Y01678*
X01125*
X0112Y01683*
Y01693*
X01125Y01698*
X01391Y01723D02*
X01386Y01728D01*
Y01738*
X01391Y01743*
X01411*
X01416Y01738*
Y01728*
X01411Y01723*
X01416Y01693D02*
Y01713D01*
X01396Y01693*
X01391*
X01386Y01698*
Y01708*
X01391Y01713*
Y01683D02*
X01386Y01678D01*
Y01668*
X01391Y01663*
X01411*
X01416Y01668*
Y01678*
X01411Y01683*
X01391*
X01538Y01582D02*
X01543Y01587D01*
X01553*
X01558Y01582*
Y01563*
X01553Y01558*
X01543*
X01538Y01563*
X01528Y01558D02*
X01518D01*
X01523*
Y01587*
X01528Y01582*
X01503Y01563D02*
X01498Y01558D01*
X01488*
X01483Y01563*
Y01582*
X01488Y01587*
X01498*
X01503Y01582*
Y01577*
X01498Y01572*
X01483*
X01948Y00501D02*
X01953Y00506D01*
X01963*
X01968Y00501*
Y00482*
X01963Y00477*
X01953*
X01948Y00482*
X01938Y00477D02*
X01928D01*
X01933*
Y00506*
X01938Y00501*
X01913D02*
X01908Y00506D01*
X01898*
X01893Y00501*
Y00496*
X01898Y00492*
X01893Y00487*
Y00482*
X01898Y00477*
X01908*
X01913Y00482*
Y00487*
X01908Y00492*
X01913Y00496*
Y00501*
X01908Y00492D02*
X01898D01*
X02397Y00556D02*
X02402Y00561D01*
X02412*
X02417Y00556*
Y00537*
X02412Y00532*
X02402*
X02397Y00537*
X02387Y00532D02*
X02377D01*
X02382*
Y00561*
X02387Y00556*
X02362Y00561D02*
X02342D01*
Y00556*
X02362Y00537*
Y00532*
X015Y01185D02*
X01505Y0119D01*
X01515*
X0152Y01185*
Y01166*
X01515Y01161*
X01505*
X015Y01166*
X0149Y01161D02*
X0148D01*
X01485*
Y0119*
X0149Y01185*
X01445Y0119D02*
X01455Y01185D01*
X01465Y01175*
Y01166*
X0146Y01161*
X0145*
X01445Y01166*
Y01171*
X0145Y01175*
X01465*
X01504Y0106D02*
X01509Y01065D01*
X01519*
X01524Y0106*
Y01041*
X01519Y01036*
X01509*
X01504Y01041*
X01494Y01036D02*
X01484D01*
X01489*
Y01065*
X01494Y0106*
X01449Y01065D02*
X01469D01*
Y0105*
X01459Y01055*
X01454*
X01449Y0105*
Y01041*
X01454Y01036*
X01464*
X01469Y01041*
X01433Y0092D02*
X01428Y00925D01*
Y00935*
X01433Y0094*
X01453*
X01458Y00935*
Y00925*
X01453Y0092*
X01458Y0091D02*
Y009D01*
Y00905*
X01428*
X01433Y0091*
X01458Y0087D02*
X01428D01*
X01443Y00885*
Y00865*
X01535Y00911D02*
X0153Y00916D01*
Y00926*
X01535Y00931*
X01555*
X0156Y00926*
Y00916*
X01555Y00911*
X0156Y00901D02*
Y00891D01*
Y00896*
X0153*
X01535Y00901*
Y00876D02*
X0153Y00871D01*
Y00861*
X01535Y00856*
X0154*
X01545Y00861*
Y00866*
Y00861*
X0155Y00856*
X01555*
X0156Y00861*
Y00871*
X01555Y00876*
X00634Y01124D02*
X00639Y01129D01*
X00649*
X00654Y01124*
Y01105*
X00649Y011*
X00639*
X00634Y01105*
X00624Y011D02*
X00614D01*
X00619*
Y01129*
X00624Y01124*
X00599Y011D02*
X00589D01*
X00594*
Y01129*
X00599Y01124*
X0108Y0154D02*
X01085Y01536D01*
Y01526*
X0108Y01521*
X01061*
X01056Y01526*
Y01536*
X01061Y0154*
Y0155D02*
X01056Y01555D01*
Y01565*
X01061Y0157*
X0108*
X01085Y01565*
Y01555*
X0108Y0155*
X01075*
X0107Y01555*
Y0157*
X01497Y01325D02*
X01502Y0133D01*
X01512*
X01517Y01325*
Y01306*
X01512Y01301*
X01502*
X01497Y01306*
X01487Y01325D02*
X01482Y0133D01*
X01472*
X01467Y01325*
Y0132*
X01472Y01315*
X01467Y01311*
Y01306*
X01472Y01301*
X01482*
X01487Y01306*
Y01311*
X01482Y01315*
X01487Y0132*
Y01325*
X01482Y01315D02*
X01472D01*
X01498Y01379D02*
X01503Y01384D01*
X01513*
X01518Y01379*
Y0136*
X01513Y01355*
X01503*
X01498Y0136*
X01488Y01384D02*
X01468D01*
Y01379*
X01488Y0136*
Y01355*
X00829Y01023D02*
X00834Y01028D01*
X00844*
X00849Y01023*
Y01004*
X00844Y00999*
X00834*
X00829Y01004*
X00799Y01028D02*
X00809Y01023D01*
X00819Y01014*
Y01004*
X00814Y00999*
X00804*
X00799Y01004*
Y01009*
X00804Y01014*
X00819*
X0083Y00973D02*
X00835Y00978D01*
X00845*
X0085Y00973*
Y00954*
X00845Y00949*
X00835*
X0083Y00954*
X008Y00978D02*
X0082D01*
Y00963*
X0081Y00968*
X00805*
X008Y00963*
Y00954*
X00805Y00949*
X00815*
X0082Y00954*
X0095Y01206D02*
X00955Y01211D01*
X00965*
X0097Y01206*
Y01187*
X00965Y01182*
X00955*
X0095Y01187*
X00925Y01182D02*
Y01211D01*
X0094Y01197*
X0092*
X01087Y01228D02*
X01082Y01233D01*
Y01243*
X01087Y01248*
X01107*
X01112Y01243*
Y01233*
X01107Y01228*
X01087Y01218D02*
X01082Y01213D01*
Y01203*
X01087Y01198*
X01092*
X01097Y01203*
Y01208*
Y01203*
X01102Y01198*
X01107*
X01112Y01203*
Y01213*
X01107Y01218*
X01238Y01727D02*
X01233Y01732D01*
Y01742*
X01238Y01747*
X01258*
X01263Y01742*
Y01732*
X01258Y01727*
X01263Y01697D02*
Y01717D01*
X01243Y01697*
X01238*
X01233Y01702*
Y01712*
X01238Y01717*
X01305Y00915D02*
X013Y0092D01*
Y0093*
X01305Y00935*
X01325*
X0133Y0093*
Y0092*
X01325Y00915*
X0133Y00905D02*
Y00895D01*
Y009*
X013*
X01305Y00905*
M02*