%FSTAX23Y23*%
%MOIN*%
%SFA1B1*%

%IPPOS*%
%ADD15C,0.010000*%
%ADD16R,0.024610X0.015750*%
%ADD17R,0.015750X0.024610*%
%ADD18R,0.039370X0.062990*%
%ADD19R,0.019680X0.023620*%
%ADD20R,0.025590X0.060040*%
%ADD21R,0.078740X0.031500*%
%ADD22R,0.059060X0.062990*%
%ADD23R,0.058070X0.011810*%
%ADD24R,0.011810X0.058070*%
%ADD25R,0.059060X0.059060*%
%ADD41C,0.020000*%
%ADD42C,0.015000*%
%ADD43C,0.014000*%
%ADD44C,0.013000*%
%ADD45C,0.005000*%
%ADD46C,0.059060*%
%ADD47R,0.059060X0.059060*%
%ADD48C,0.050000*%
%ADD49C,0.040000*%
%ADD50C,0.024000*%
%LNpcb1-1*%
%LPD*%
G54D15*
X00959Y01311D02*
X00964D01*
X00954Y01305D02*
X00959Y01311D01*
X01332Y01719D02*
X01333Y01718D01*
X00961Y0153D02*
Y01543D01*
X01588Y0094D02*
X01593Y00945D01*
X01641Y01006D02*
X01645Y0101D01*
X01495Y00952D02*
Y00956D01*
X01273Y00873D02*
Y00873D01*
X01549Y00819D02*
X01647Y00721D01*
X01549Y00819D02*
Y00873D01*
X01549Y00873*
X01609Y00904D02*
X01623Y00918D01*
X01609Y00874D02*
Y00904D01*
X01647Y00718D02*
X01692Y00673D01*
X01647Y00718D02*
Y00721D01*
X01529Y00817D02*
Y00873D01*
X01632Y00673D02*
Y00714D01*
X01529Y00817D02*
X01632Y00714D01*
X0149Y00825D02*
Y00873D01*
X01855Y01094D02*
X01981D01*
X01982Y01093*
X01587Y0163D02*
X01597D01*
X01608Y0164*
X02038Y01821D02*
X02246D01*
X01868Y01651D02*
X02038Y01821D01*
X02246D02*
X02335Y0191D01*
X01725Y01463D02*
X01774D01*
X01445Y01474D02*
X01521D01*
X01578Y01418*
X01445Y01474D02*
X01445Y01474D01*
X01587Y0163D02*
Y0163D01*
X01569Y01647D02*
X01587Y0163D01*
X01623Y01519D02*
X01628D01*
X02159Y01705D02*
Y01707D01*
X01725Y01423D02*
X01726Y01424D01*
X02285Y01784D02*
X02357Y01856D01*
X02067Y01784D02*
X02285D01*
X01905Y01622D02*
X02067Y01784D01*
X00669Y01305D02*
Y01309D01*
X00764Y01404*
X0088*
X0088Y01601D02*
X0088Y01601D01*
X00954Y01612D02*
X00965D01*
X00943Y01601D02*
X00954Y01612D01*
X01818Y01358D02*
Y01373D01*
X00531Y01562D02*
X0088D01*
X00541Y01542D02*
X0088D01*
X00561Y01522D02*
X0088D01*
X00482Y01443D02*
X00561Y01522D01*
X00482Y01423D02*
Y01443D01*
X00442D02*
X00541Y01542D01*
X00442Y01393D02*
Y01443D01*
X00402Y01433D02*
X00531Y01562D01*
X0054Y01621D02*
X0088D01*
X00529Y0164D02*
X0088D01*
X00322Y01433D02*
X00529Y0164D01*
X00362Y01443D02*
X0054Y01621D01*
X00362Y01423D02*
Y01443D01*
X00352Y01413D02*
X00362Y01423D01*
X00352Y01383D02*
Y01413D01*
X0088Y01581D02*
X00881Y0158D01*
X01761Y01602D02*
X01768Y01609D01*
X01726Y01602D02*
X01761D01*
X01725Y01601D02*
X01726Y01602D01*
X01768Y01609D02*
Y01663D01*
X0175Y01681D02*
X01768Y01663D01*
X0175Y01681D02*
Y01735D01*
X01776Y01761*
X0181*
X01816Y01767*
X01606Y01837D02*
X01608Y01835D01*
X01566Y01403D02*
X0165D01*
X01814Y01362D02*
Y01373D01*
X01815Y00984D02*
Y00993D01*
X0133Y01956D02*
Y01957D01*
X01577Y0182D02*
Y01899D01*
X01629Y0172D02*
Y01749D01*
X0145Y00872D02*
X01451Y00871D01*
X0145Y0172D02*
X01451Y01719D01*
X01439Y01825D02*
X0147Y01794D01*
X01548Y0172D02*
X01549Y01719D01*
X01552Y00673D02*
Y00723D01*
X01725Y01502D02*
X01726Y01503D01*
X01604Y01449D02*
X01628D01*
X01725Y01385D02*
X01726Y01385D01*
X01411Y00778D02*
Y00873D01*
X01372Y00771D02*
X01467Y00676D01*
X01116Y01586D02*
X012Y01502D01*
X01689Y01385D02*
X01725D01*
X01467Y00676D02*
X01479D01*
X0149Y01719D02*
Y01795D01*
X01546Y0184D02*
X01548Y01838D01*
X01412Y00673D02*
Y00683D01*
X01433Y01841D02*
X01439Y01835D01*
X01658Y01614D02*
X01664Y0162D01*
X01578Y01418D02*
X01657D01*
X01352Y00743D02*
Y00873D01*
X01629Y01749D02*
X01714Y01834D01*
X01628Y01449D02*
X01681Y01502D01*
X01687Y01366D02*
X01725D01*
X01733Y00741D02*
X01736Y00738D01*
X01411Y00778D02*
X01412Y00777D01*
X01293Y01718D02*
Y01719D01*
X01529Y01719D02*
Y01811D01*
X01681Y01502D02*
X01725D01*
X01057Y00873D02*
X01057Y00873D01*
X01815Y00993D02*
Y01001D01*
X00961Y00807D02*
Y00815D01*
X01714Y01834D02*
X01754D01*
X01647Y01719D02*
X01702D01*
X01552Y00598D02*
Y00603D01*
X01136Y01679D02*
Y01718D01*
X0149Y00825D02*
X01532Y00783D01*
X00879Y01169D02*
X0088Y01168D01*
X0151Y01719D02*
Y01804D01*
X01725Y00951D02*
X01782D01*
X01411Y00873D02*
X01411Y00873D01*
X0146Y01825D02*
Y01896D01*
X01628Y01719D02*
X01629Y0172D01*
X01633Y01481D02*
X01675Y01522D01*
X01451Y00825D02*
X01552Y00723D01*
X01271Y00773D02*
X01274D01*
X01214Y01718D02*
Y01719D01*
X0146Y01825D02*
X0149Y01795D01*
X00792Y01086D02*
Y01098D01*
X0088Y01306D02*
X00881Y01306D01*
X0146Y01524D02*
X01462Y01522D01*
X01451Y00825D02*
Y00871D01*
X00562Y01423D02*
X00622Y01483D01*
X01351Y00872D02*
X01352Y00873D01*
X00622Y01483D02*
X0088D01*
X01675Y01522D02*
X01725D01*
X00713Y01424D02*
X0088D01*
X01372Y00771D02*
Y00873D01*
X01156Y01679D02*
X01192Y01644D01*
X00978Y00832D02*
Y00873D01*
X01253Y01719D02*
X01254Y01719D01*
X015Y01522D02*
X01542Y01481D01*
X00522Y01433D02*
X00592Y01503D01*
X01439Y01825D02*
Y01835D01*
X00673Y01444D02*
X0088D01*
X01577Y0182D02*
X01588Y01809D01*
X01809Y01811D02*
X01997Y01999D01*
X012Y01502D02*
X01234D01*
X0145Y0172D02*
Y01769D01*
X01702Y01719D02*
X01794Y01811D01*
X006Y01383D02*
X00612Y01396D01*
X01542Y01481D02*
X01633D01*
X01725Y01267D02*
X01725Y01266D01*
X00652Y01423D02*
X00673Y01444D01*
X0135Y01649D02*
Y01657D01*
X01794Y01811D02*
X01809D01*
X01725Y01306D02*
X01726Y01306D01*
X01462Y01522D02*
X015D01*
X01667Y00903D02*
X01776D01*
X00687Y01398D02*
X00713Y01424D01*
X01608Y01719D02*
Y01835D01*
X01782Y00951D02*
X01815Y00984D01*
X01431Y00811D02*
Y00873D01*
X01116Y01586D02*
Y01719D01*
X01519Y01821D02*
Y01898D01*
X01725Y0162D02*
X01726Y01621D01*
X01498Y01452D02*
X01516D01*
X01814Y01362D02*
X01818Y01358D01*
X0088Y01286D02*
X00881Y01287D01*
X01234Y01502D02*
Y01718D01*
X01568Y01719D02*
X01569Y01718D01*
X01664Y0162D02*
X01725D01*
X01623Y00918D02*
X01652D01*
X0088Y01109D02*
X00881Y01108D01*
X00642Y01463D02*
X0088D01*
X01493Y01821D02*
Y01843D01*
X01273Y00873D02*
X01274Y00874D01*
X00612Y01433D02*
X00642Y01463D01*
X00592Y01503D02*
X0088D01*
X01519Y01821D02*
X01529Y01811D01*
X01652Y00918D02*
X01667Y00903D01*
X01431Y00811D02*
X01512Y0073D01*
X01548Y0172D02*
Y01838D01*
X01608Y00873D02*
X01609Y00874D01*
X0149Y01845D02*
X01493Y01843D01*
X01657Y01418D02*
X01689Y01385D01*
X0145Y00872D02*
X01451Y00873D01*
X01479Y00676D02*
X01482Y00673D01*
X00961Y00815D02*
X00978Y00832D01*
X01234Y01718D02*
X01234Y01719D01*
X0143Y01788D02*
X0145Y01769D01*
X01512Y00643D02*
X01552Y00603D01*
X01273Y00873D02*
X01273Y00873D01*
X0147Y01719D02*
Y01794D01*
X01516Y01452D02*
X01566Y01403D01*
X00742Y01174D02*
X00747Y01169D01*
X01997Y01999D02*
X02027D01*
X01352Y00743D02*
X01412Y00683D01*
X01588Y01719D02*
Y01809D01*
X01725Y01366D02*
X01726Y01365D01*
X00612Y01396D02*
Y01433D01*
X01136Y01679D02*
X01156D01*
X00432Y01383D02*
X00442Y01393D01*
X0165Y01403D02*
X01687Y01366D01*
X00522Y01383D02*
Y01433D01*
X01136Y01719D02*
X01136Y01718D01*
X01293Y01718D02*
X01293Y01718D01*
X01493Y01821D02*
X0151Y01804D01*
X01512Y00643D02*
Y0073D01*
X00687Y01383D02*
Y01398D01*
X01321Y01898D02*
X01482Y02059D01*
X01609*
X01321Y01791D02*
Y01898D01*
X01336Y0189D02*
X01477Y02032D01*
X01352Y01885D02*
X01484Y02017D01*
X01336Y01785D02*
Y0189D01*
X01484Y02017D02*
X01652D01*
X01477Y02032D02*
X01622D01*
X01352Y01719D02*
Y01885D01*
X01372Y01869D02*
X01505Y02002D01*
X01372Y01719D02*
Y01869D01*
X01352Y01718D02*
X01352Y01719D01*
X01293Y01763D02*
X01321Y01791D01*
X01312Y01762D02*
X01336Y01785D01*
X01194Y01902D02*
X01372Y0208D01*
X0156*
X01194Y01793D02*
Y01902D01*
X01312Y01718D02*
Y01762D01*
X01293Y01718D02*
Y01763D01*
X01194Y01793D02*
X01214Y01772D01*
Y01718D02*
Y01772D01*
X01194Y01718D02*
Y01771D01*
X01174Y0191D02*
X01363Y02099D01*
X01174Y01791D02*
Y0191D01*
Y01791D02*
X01194Y01771D01*
X01174Y01718D02*
Y01764D01*
X01155Y01784D02*
X01174Y01764D01*
X01155Y01784D02*
Y01921D01*
X01363Y02099D02*
X01489D01*
X01357Y02123D02*
X01424D01*
X01155Y01921D02*
X01357Y02123D01*
X01155Y01718D02*
Y01758D01*
X01135Y01779D02*
X01155Y01758D01*
X01135Y01779D02*
Y01931D01*
X01939Y01574D02*
X02106D01*
X01938Y01575D02*
X01939Y01574D01*
X01938Y01575D02*
Y01582D01*
X02048Y01504D02*
X02083Y01539D01*
X02106Y01574D02*
X02138Y01606D01*
X02083Y01539D02*
X02325D01*
X02037Y01504D02*
X02048D01*
X02014Y01481D02*
X02037Y01504D01*
X02227Y01471D02*
X0223D01*
X02244Y01457*
X02273*
X02229Y01844D02*
X02315Y0193D01*
X02023Y01844D02*
X02229D01*
X02315Y0193D02*
Y02233D01*
X01234Y0073D02*
Y00872D01*
Y0073D02*
X01632Y00333D01*
X01233Y00873D02*
X01234Y00872D01*
X01313Y00691D02*
Y00872D01*
X01312Y00873D02*
X01313Y00872D01*
Y00691D02*
X01642Y00363D01*
X01532Y00939D02*
Y00984D01*
X0151Y00917D02*
X01532Y00939D01*
X0151Y00873D02*
Y00917D01*
X01532Y00984D02*
X01557Y01009D01*
X01582*
X01631Y0096*
X01509Y00873D02*
X0151Y00873D01*
X01631Y0096D02*
X01656D01*
X01668Y00935D02*
X01984D01*
X01656Y0096D02*
X01668Y00948D01*
Y00935D02*
Y00948D01*
X01371Y01718D02*
X01372Y01719D01*
X01984Y00935D02*
X02062Y01013D01*
X02259Y01606D02*
Y01608D01*
X01627Y00827D02*
Y00873D01*
Y00827D02*
X01642Y00813D01*
X0246Y01875D02*
Y02178D01*
X02297Y02341D02*
X0246Y02178D01*
X0225Y02341D02*
X02297D01*
X02221Y02299D02*
X02313D01*
X02178Y02341D02*
X02221Y02299D01*
X0215Y02341D02*
X02178D01*
X02313Y02299D02*
X02354Y02258D01*
X02296Y02284D02*
X02335Y02245D01*
X02107Y02284D02*
X02296D01*
X0205Y02341D02*
X02107Y02284D01*
X0228Y02268D02*
X02315Y02233D01*
X02023Y02268D02*
X0228D01*
X0195Y02341D02*
X02023Y02268D01*
X02335Y0191D02*
Y02245D01*
X02354Y01895D02*
Y02258D01*
X02258Y01799D02*
X02354Y01895D01*
X02441Y01856D02*
X0246Y01875D01*
X02357Y01856D02*
X02441D01*
X01839Y0166D02*
X02023Y01844D01*
X01839Y01557D02*
Y0166D01*
X01868Y01557D02*
Y01651D01*
X02049Y01799D02*
X02258D01*
X01883Y01633D02*
X02049Y01799D01*
X01883Y01537D02*
Y01633D01*
X01774Y01463D02*
X01868Y01557D01*
X01765Y01483D02*
X01839Y01557D01*
X01726Y01483D02*
X01765D01*
X01725Y01483D02*
X01726Y01483D01*
X02252Y02161D02*
Y02223D01*
X02164Y02073D02*
X02252Y02161D01*
X01753Y02073D02*
X02164D01*
X01725Y01443D02*
X01789D01*
X01883Y01537*
X0215Y02341D02*
X0215Y02341D01*
X01905Y01596D02*
Y01622D01*
X01904Y01518D02*
Y01598D01*
X01905Y01596*
X0181Y01424D02*
X01904Y01518D01*
X01726Y01424D02*
X0181D01*
X01682Y02002D02*
X01753Y02073D01*
X01505Y02002D02*
X01682D01*
X01735Y021D02*
X02087D01*
X01652Y02017D02*
X01735Y021D01*
X02087D02*
X02152Y02165D01*
X01719Y02129D02*
X02006D01*
X01622Y02032D02*
X01719Y02129D01*
X01609Y02059D02*
X01703Y02153D01*
X02006Y02129D02*
X02052Y02175D01*
X01703Y02153D02*
X01935D01*
X01952Y0217*
X0078Y0128D02*
X00792Y01268D01*
X0078Y0128D02*
Y01346D01*
X00792Y01239D02*
Y01268D01*
X00815Y01291*
X00797Y01384D02*
X0088D01*
X00792Y01379D02*
X00797Y01384D01*
X0078Y01379D02*
X00792D01*
X02323Y01678D02*
X02333Y01669D01*
X02283Y01678D02*
X02323D01*
X02259Y01703D02*
X02283Y01678D01*
X02259Y01703D02*
Y01705D01*
X02333Y01547D02*
Y01669D01*
X02325Y01539D02*
X02333Y01547D01*
X02138Y01606D02*
X02159D01*
X02152Y02165D02*
Y02223D01*
X0156Y0208D02*
X01652Y02172D01*
X01489Y02099D02*
X01552Y02162D01*
X01424Y02123D02*
X01452Y02151D01*
X02052Y02175D02*
Y02223D01*
X01952Y0217D02*
Y02223D01*
X01352Y02148D02*
Y02223D01*
X01135Y01931D02*
X01352Y02148D01*
X01652Y02172D02*
Y02223D01*
X01552Y02162D02*
Y02223D01*
X01452Y02151D02*
Y02223D01*
X01037Y01718D02*
Y02069D01*
X00952Y02155D02*
X01037Y02069D01*
X00952Y02155D02*
Y02223D01*
X01252Y02137D02*
Y02223D01*
X01222Y02107D02*
X01252Y02137D01*
X01167Y02107D02*
X01222D01*
X01096Y02036D02*
X01167Y02107D01*
X01096Y01718D02*
Y02036D01*
X01152Y02141D02*
Y02223D01*
X01076Y02065D02*
X01152Y02141D01*
X01076Y01718D02*
Y02065D01*
X00552Y02223D02*
X00652D01*
X01055Y01719D02*
X01056Y01718D01*
X01055Y01719D02*
Y02219D01*
X01052Y02223D02*
X01055Y02219D01*
X00969Y0076D02*
X00997Y00788D01*
X00945Y0076D02*
X00969D01*
X00243Y0088D02*
X00246Y00883D01*
X01076Y00288D02*
Y00873D01*
Y00288D02*
X01102Y00263D01*
X00573Y00794D02*
X00653D01*
X00445Y00922D02*
X00573Y00794D01*
X01333Y00701D02*
Y00871D01*
X01332Y00872D02*
X01333Y00871D01*
Y00701D02*
X01642Y00393D01*
X00246Y00883D02*
X0025D01*
X00245D02*
X00246D01*
X00265Y00922D02*
X00445D01*
X00253Y0091D02*
X00265Y00922D01*
X00253Y00885D02*
Y0091D01*
X0025Y00883D02*
X00253Y00885D01*
X02298Y01458D02*
X02313D01*
X02356Y01501D02*
X024D01*
X02313Y01458D02*
X02356Y01501D01*
X02176Y01457D02*
Y0149D01*
X02162Y01443D02*
X02176Y01457D01*
X02112Y01394D02*
Y01473D01*
Y01389D02*
Y01394D01*
X02062Y01013D02*
Y01093D01*
X00792Y01206D02*
X00792Y01206D01*
X00879*
X0088Y01207*
X01642Y00393D02*
X02052D01*
X01642Y00363D02*
X02032D01*
X01632Y00333D02*
X01982D01*
X01622Y00303D02*
X01882D01*
X01215Y00709D02*
X01622Y00303D01*
X01215Y00709D02*
Y00872D01*
X01602Y00153D02*
Y00283D01*
X01173Y00711D02*
X01602Y00283D01*
X01173Y00711D02*
Y00872D01*
X01502Y00153D02*
Y00353D01*
X01155Y00699D02*
X01502Y00353D01*
X01155Y00699D02*
Y00873D01*
X01402Y00183D02*
Y00423D01*
X01135Y00689D02*
X01402Y00423D01*
X01135Y00689D02*
Y00873D01*
X01302Y00193D02*
Y00483D01*
X01115Y00669D02*
X01302Y00483D01*
X01115Y00669D02*
Y00873D01*
X01202Y00153D02*
Y00533D01*
X01096Y00638D02*
X01202Y00533D01*
X01096Y00638D02*
Y00873D01*
X00302Y00693D02*
X00304Y00696D01*
X00755D02*
X00932Y00873D01*
X00958*
X00304Y00696D02*
X00755D01*
X00302Y00692D02*
Y00693D01*
X00997Y00788D02*
Y00873D01*
X00972Y00683D02*
X01016Y00727D01*
X00972Y00343D02*
Y00683D01*
X01016Y00727D02*
Y00872D01*
X00912Y00283D02*
X00972Y00343D01*
X01037Y00717D02*
Y00873D01*
X01102Y00183D02*
Y00263D01*
Y00183D02*
X01152Y00133D01*
Y00103D02*
Y00133D01*
X01016Y00872D02*
X01017Y00873D01*
X01642Y00813D02*
X0228D01*
X00255Y00563D02*
Y00646D01*
X00302Y00692*
X00132Y00565D02*
X00134Y00563D01*
X00255*
X00287D02*
X00288D01*
X00285Y0056D02*
X00287Y00563D01*
X00285Y00435D02*
Y0056D01*
X00282Y00432D02*
X00285Y00435D01*
X00222Y00323D02*
X00242D01*
X00132Y004D02*
X00144D01*
X00212Y00733D02*
X00213Y00731D01*
X003D02*
X00302Y00729D01*
X00243Y00873D02*
Y0088D01*
X00227Y00856D02*
X00243Y00873D01*
X00146Y00856D02*
X00227D01*
X00572Y01733D02*
X00582D01*
X00723Y01718D02*
X00728D01*
Y01673D02*
D01*
Y01718D01*
X00958D02*
Y01722D01*
X00957Y01723D02*
X00958Y01722D01*
X00728Y01723D02*
X00957D01*
X00728Y01718D02*
Y01723D01*
D01*
X01602Y00153D02*
X01652Y00103D01*
X01352D02*
Y00143D01*
X01302Y00193D02*
X01352Y00143D01*
X01502Y00153D02*
X01552Y00103D01*
X01402Y00183D02*
X01452Y00133D01*
X01202Y00153D02*
X01252Y00103D01*
X01002Y00682D02*
X01037Y00717D01*
X01002Y00153D02*
Y00682D01*
Y00153D02*
X01052Y00103D01*
X00912Y00143D02*
Y00283D01*
Y00143D02*
X00952Y00103D01*
X01452D02*
Y00133D01*
X01912Y00143D02*
Y00273D01*
X01882Y00303D02*
X01912Y00273D01*
X02002Y00153D02*
Y00313D01*
X01982Y00333D02*
X02002Y00313D01*
X02102Y00153D02*
Y00293D01*
X02032Y00363D02*
X02102Y00293D01*
X02202Y00193D02*
Y00243D01*
X02052Y00393D02*
X02202Y00243D01*
Y00193D02*
X02252Y00143D01*
Y00103D02*
Y00143D01*
X01214Y00873D02*
X01215Y00872D01*
X01552Y00213D02*
Y00223D01*
X01173Y00872D02*
X01174Y00873D01*
X02102Y00153D02*
X02152Y00103D01*
X02002Y00153D02*
X02052Y00103D01*
X01912Y00143D02*
X01952Y00103D01*
X00552D02*
X00652D01*
X02032Y00223D02*
X02052D01*
X01947Y00218D02*
X01952Y00223D01*
X00288Y01473D02*
X0029Y01471D01*
X02062Y01389D02*
Y01403D01*
X01912Y01433D02*
X01953D01*
X02162Y01394D02*
Y01443D01*
Y01093D02*
X02172D01*
X00133Y01473D02*
X00255D01*
X00132Y01471D02*
X00133Y01473D01*
X00234Y0122D02*
X00242Y01213D01*
X00234Y0122D02*
Y01231D01*
X00242Y01204D02*
Y01213D01*
X00132Y01083D02*
Y01094D01*
Y01083D02*
X00142D01*
X0105Y02241D02*
X01056Y02235D01*
X02242Y01178D02*
X02247Y01183D01*
X02162Y01176D02*
X02163Y01178D01*
X02062Y01093D02*
Y01176D01*
X01982Y01093D02*
X02012Y01123D01*
X02112Y01176D02*
X02113Y01174D01*
X02012Y01123D02*
Y01176D01*
X00132Y00871D02*
Y00883D01*
Y00871D02*
X00146Y00856D01*
X0249Y00813D02*
X02492Y00814D01*
X02313Y00813D02*
X0249D01*
G54D16*
X02313Y00813D03*
X0228D03*
X00288Y01473D03*
X00255D03*
Y00563D03*
X00288D03*
X00728Y01673D03*
X00695D03*
X00728Y01723D03*
X00695D03*
X00245Y00883D03*
X00278D03*
X02306Y01457D03*
X02273D03*
G54D17*
X00302Y00729D03*
Y00696D03*
X00792Y01239D03*
Y01206D03*
X0078Y01346D03*
Y01379D03*
X01937Y01547D03*
Y0158D03*
X00942Y00759D03*
Y00726D03*
G54D18*
X00132Y01083D03*
Y00883D03*
G54D19*
X00282Y00393D03*
Y00432D03*
G54D20*
X02012Y01181D03*
X02062D03*
X02112D03*
X02162D03*
Y01394D03*
X02112D03*
X02062D03*
X02012D03*
G54D21*
X00132Y00565D03*
Y004D03*
G54D22*
X02159Y01705D03*
X02259D03*
Y01606D03*
X02159D03*
G54D23*
X0088Y0164D03*
Y01621D03*
Y01601D03*
Y01581D03*
Y01561D03*
Y01542D03*
Y01522D03*
Y01502D03*
Y01483D03*
Y01463D03*
Y01443D03*
Y01424D03*
Y01404D03*
Y01384D03*
Y01365D03*
Y01345D03*
Y01325D03*
Y01306D03*
Y01286D03*
Y01266D03*
Y01247D03*
Y01227D03*
Y01207D03*
Y01187D03*
Y01168D03*
Y01148D03*
Y01128D03*
Y01109D03*
Y01089D03*
Y01069D03*
Y0105D03*
Y0103D03*
Y0101D03*
Y00991D03*
Y00971D03*
Y00951D03*
X01725D03*
Y00971D03*
Y00991D03*
Y0101D03*
Y0103D03*
Y0105D03*
Y01069D03*
Y01089D03*
Y01109D03*
Y01128D03*
Y01148D03*
Y01168D03*
Y01187D03*
Y01207D03*
Y01227D03*
Y01247D03*
Y01266D03*
Y01286D03*
Y01306D03*
Y01325D03*
Y01345D03*
Y01365D03*
Y01384D03*
Y01404D03*
Y01424D03*
Y01443D03*
Y01463D03*
Y01483D03*
Y01502D03*
Y01522D03*
Y01542D03*
Y01561D03*
Y01581D03*
Y01601D03*
Y01621D03*
Y0164D03*
G54D24*
X00958Y00873D03*
X00978D03*
X00998D03*
X01017D03*
X01037D03*
X01057D03*
X01076D03*
X01096D03*
X01116D03*
X01135D03*
X01155D03*
X01175D03*
X01194D03*
X01214D03*
X01234D03*
X01254D03*
X01273D03*
X01293D03*
X01313D03*
X01332D03*
X01352D03*
X01372D03*
X01391D03*
X01411D03*
X01431D03*
X0145D03*
X0147D03*
X0149D03*
X01509D03*
X01529D03*
X01549D03*
X01568D03*
X01588D03*
X01608D03*
X01628D03*
X01647D03*
Y01719D03*
X01628D03*
X01608D03*
X01588D03*
X01568D03*
X01549D03*
X01529D03*
X01509D03*
X0149D03*
X0147D03*
X0145D03*
X01431D03*
X01411D03*
X01391D03*
X01372D03*
X01352D03*
X01332D03*
X01313D03*
X01293D03*
X01273D03*
X01254D03*
X01234D03*
X01214D03*
X01194D03*
X01175D03*
X01155D03*
X01135D03*
X01116D03*
X01096D03*
X01076D03*
X01057D03*
X01037D03*
X01017D03*
X00998D03*
X00978D03*
X00958D03*
G54D25*
X02492Y00814D03*
Y00951D03*
X00132Y01471D03*
Y01334D03*
X025Y01401D03*
G54D41*
X00747Y02018D02*
X00879D01*
X02443Y00951D02*
X02492D01*
X02382Y01013D02*
X02443Y00951D01*
X00278Y00869D02*
Y00883D01*
X00212Y00803D02*
X00278Y00869D01*
X00212Y00733D02*
Y00803D01*
X02112Y01143D02*
Y01181D01*
Y01143D02*
X02162Y01093D01*
X00942Y00623D02*
Y00726D01*
X00892Y00573D02*
X00942Y00623D01*
X0029Y01451D02*
Y01471D01*
X00242Y01403D02*
X0029Y01451D01*
X00242Y01373D02*
Y01403D01*
Y00323D02*
X00282Y00363D01*
Y00393*
X00144Y004D02*
X00222Y00323D01*
X00213Y00731D02*
X003D01*
X00642Y01673D02*
X00695D01*
X00582Y01733D02*
X00642Y01673D01*
X00695Y01726D02*
Y01896D01*
X02016Y01403D02*
X02062D01*
X01986Y01433D02*
X02016Y01403D01*
X01912Y01433D02*
X01986D01*
X00132Y01334D02*
X00234Y01231D01*
X00132Y01094D02*
X00242Y01204D01*
X02163Y01178D02*
X02242D01*
G54D42*
X00935Y01286D02*
X00954Y01305D01*
X00911Y01286D02*
X00935D01*
X00911Y01287D02*
X00911Y01286D01*
X00881Y01287D02*
X00911D01*
X00947Y01338D02*
Y01371D01*
X00932Y01324D02*
X00947Y01338D01*
X00932Y01319D02*
Y01324D01*
X00919Y01306D02*
X00932Y01319D01*
X02427Y01549D02*
X02446Y0153D01*
X02369Y01549D02*
X02427D01*
X02353Y01565D02*
X02369Y01549D01*
X0084Y00952D02*
X0088D01*
X00792Y00903D02*
X0084Y00952D01*
X00828Y0105D02*
X0088D01*
X00792Y01086D02*
X00828Y0105D01*
X01333Y01674D02*
Y01718D01*
Y01674D02*
X0135Y01657D01*
X00924Y0158D02*
X00961Y01543D01*
X00881Y0158D02*
X00924D01*
X01569Y00835D02*
Y00851D01*
X01588Y00873D02*
Y0094D01*
X01645Y0101D02*
X01725D01*
X01495Y00951D02*
Y00952D01*
X0147Y00927D02*
X01495Y00951D01*
X01194Y00873D02*
Y00911D01*
X01073Y01033D02*
X01194Y00911D01*
X01244Y00922D02*
X01254Y00912D01*
X0123Y00922D02*
X01244D01*
X01197Y00955D02*
X0123Y00922D01*
X01273Y00921D02*
Y00928D01*
X01263Y00939D02*
X01273Y00928D01*
X01263Y00939D02*
Y00969D01*
X01569Y00835D02*
X01663Y00741D01*
X01733*
X01608Y0164D02*
X01725D01*
X01057Y00873D02*
Y0091D01*
X01Y00968D02*
X01057Y0091D01*
X01569Y01647D02*
Y01718D01*
X01628Y01519D02*
X01652Y01542D01*
X024Y01401D02*
X02446Y01447D01*
Y0153*
X02353Y01565D02*
Y01729D01*
X02328Y01753D02*
X02353Y01729D01*
X02205Y01753D02*
X02328D01*
X02159Y01707D02*
X02205Y01753D01*
X0088Y01601D02*
X00943D01*
X00964Y01058D02*
Y01068D01*
X00924Y01108D02*
X00964Y01068D01*
X00881Y01108D02*
X00924D01*
X01818Y01373D02*
Y014D01*
X01273Y01719D02*
Y01789D01*
X01454Y01586D02*
Y01605D01*
X0123Y01818D02*
X01253Y01795D01*
X01274Y00773D02*
X01293Y00792D01*
X0092Y01266D02*
X00934Y01253D01*
X01766Y01306D02*
X01818Y01358D01*
X0088Y01266D02*
X0092D01*
X0147Y00875D02*
Y00927D01*
X01391Y01668D02*
Y01719D01*
X01302Y01928D02*
X0133Y01956D01*
X01785Y0103D02*
X01815Y01001D01*
X01726Y01306D02*
X01766D01*
X01391Y01668D02*
X01454Y01605D01*
X01253Y01719D02*
Y01795D01*
X01652Y01542D02*
X01725D01*
X01679Y01207D02*
X01725D01*
X01302Y01818D02*
Y01928D01*
X01273Y01789D02*
X01302Y01818D01*
X00747Y01169D02*
X00879D01*
X01293Y00792D02*
Y00873D01*
X01725Y01404D02*
X01782D01*
X01643Y01171D02*
X01679Y01207D01*
X00934Y01253D02*
X00951D01*
X01782Y01404D02*
X01814Y01373D01*
X01818Y014D02*
X01937Y01519D01*
Y01547*
X02211Y01656D02*
X02259Y01608D01*
X02068Y01656D02*
X02211D01*
G54D43*
X01654Y01326D02*
X01688Y01291D01*
X01683Y01296D02*
X01693Y01286D01*
X01724*
X00881Y01306D02*
X00919D01*
X01254Y00873D02*
Y00912D01*
X01273Y00873D02*
Y00921D01*
X01725Y0103D02*
X01785D01*
G54D44*
X01656Y01267D02*
X01725D01*
G54D45*
X00181Y00872D02*
Y01093D01*
X00082Y00872D02*
Y01093D01*
G54D46*
X02252Y00103D03*
X02152D03*
X02052D03*
X01952D03*
X01852D03*
X01752D03*
X01652D03*
X01552D03*
X01452D03*
X01352D03*
X01252D03*
X01152D03*
X01052D03*
X00952D03*
X00852D03*
X00752D03*
X00652D03*
X00552D03*
X00452D03*
X024Y01401D03*
X025Y01501D03*
X024D03*
X025Y01601D03*
X024D03*
X025Y01701D03*
X024D03*
X025Y01801D03*
X024D03*
X025Y01901D03*
X024D03*
X025Y02001D03*
X024D03*
X00452Y02223D03*
X00552D03*
X00652D03*
X00752D03*
X00852D03*
X00952D03*
X01052D03*
X01152D03*
X01252D03*
X01352D03*
X01452D03*
X01552D03*
X01652D03*
X01752D03*
X01852D03*
X01952D03*
X02052D03*
X02152D03*
X02252D03*
X0045Y02341D03*
X0055D03*
X0065D03*
X0075D03*
X0085D03*
X0095D03*
X0105D03*
X0115D03*
X0125D03*
X0135D03*
X0145D03*
X0155D03*
X0165D03*
X0175D03*
X0185D03*
X0195D03*
X0205D03*
X0215D03*
X0225D03*
X02152Y00223D03*
X02052D03*
X01952D03*
X01852D03*
X01752D03*
X01652D03*
X01552D03*
X01452D03*
X01352D03*
X01252D03*
X01152D03*
X01052D03*
X00952D03*
X00852D03*
X00752D03*
X00652D03*
X00552D03*
X00452D03*
X00352D03*
G54D47*
X00352Y00103D03*
Y02223D03*
X0035Y02341D03*
X02252Y00223D03*
G54D48*
X00747Y02018D03*
X00879D03*
X01587Y0163D03*
X01263Y00969D03*
X00965Y01612D03*
X01271Y00773D03*
X0133Y01957D03*
X01815Y00993D03*
X00963Y01531D03*
X01736Y00738D03*
X00742Y01174D03*
X0123Y01818D03*
X01818Y01358D03*
X01573Y01113D03*
X02382Y01013D03*
X00892Y00573D03*
X00242Y01373D03*
X00572Y01733D03*
X00695Y01896D03*
X00242Y01213D03*
G54D49*
X00964Y01311D03*
X01495Y00956D03*
X00959Y01248D03*
X01654Y01326D03*
X01593Y00945D03*
X01Y00968D03*
X01656Y01267D03*
X01623Y01519D03*
X00792Y00903D03*
X00669Y01305D03*
X00947Y01371D03*
X01197Y00955D03*
X01454Y01586D03*
X01234Y01502D03*
X0135Y01649D03*
X01061Y01033D03*
X01643Y01171D03*
X00792Y01098D03*
X01641Y01006D03*
X00965Y01044D03*
X01195Y01648D03*
X02068Y01656D03*
X00242Y00323D03*
X00212Y00733D03*
X01912Y01433D03*
X02172Y01093D03*
X02252Y01178D03*
G54D50*
X01855Y01094D03*
X01445Y01474D03*
X01816Y01767D03*
X01546Y0184D03*
X01658Y01614D03*
X01604Y01449D03*
X01552Y00598D03*
X00402Y01433D03*
X00961Y00807D03*
X00322Y01433D03*
X00482Y01423D03*
X01412Y00673D03*
X00652Y01423D03*
X01577Y01899D03*
X01606Y01837D03*
X00352Y01383D03*
X02027Y01999D03*
X01498Y01452D03*
X01776Y00903D03*
X0146Y01524D03*
X01412Y00777D03*
X0149Y01845D03*
X0146Y01896D03*
X01632Y00673D03*
X006Y01383D03*
X0143Y01788D03*
X01433Y01841D03*
X01519Y01898D03*
X01692Y00673D03*
X00432Y01383D03*
X01552Y00673D03*
X00522Y01383D03*
X00562Y01423D03*
X01754Y01834D03*
X00687Y01383D03*
X01532Y00783D03*
X01482Y00673D03*
X02227Y01471D03*
X00815Y01291D03*
X02014Y01481D03*
X00653Y00794D03*
X02176Y0149D03*
X02112Y01473D03*
X02062Y01093D03*
X01982D03*
M02*