%FSTAX23Y23*%
%MOIN*%
%SFA1B1*%

%IPPOS*%
%ADD16R,0.024610X0.015750*%
%ADD17R,0.015750X0.024610*%
%ADD19R,0.019680X0.023620*%
%ADD62R,0.045280X0.023620*%
%ADD63R,0.023620X0.019680*%
%ADD64R,0.031500X0.005910*%
%ADD65R,0.125980X0.068900*%
%ADD66R,0.037400X0.068900*%
%LNpcb1-1*%
%LPD*%
G54D16*
X02232Y0177D03*
X02265D03*
X02365Y00703D03*
X02398D03*
X02261Y01844D03*
X02229D03*
X01784Y01717D03*
X01817D03*
X02088Y01953D03*
X02055D03*
X02089Y01883D03*
X02057D03*
X01722Y01907D03*
X01755D03*
X0172Y01947D03*
X01753D03*
X02027Y01588D03*
X01994D03*
X02021Y01714D03*
X01988D03*
X02216Y01528D03*
X02249D03*
X02127D03*
X02094D03*
G54D17*
X01798Y01581D03*
Y01548D03*
X02117Y01019D03*
Y00986D03*
X01975Y0102D03*
Y00987D03*
G54D19*
X01311Y00986D03*
Y01025D03*
X01255Y0161D03*
Y01649D03*
X01446Y01011D03*
Y00972D03*
X01543Y01005D03*
Y00966D03*
X01207Y01042D03*
Y01003D03*
X01136Y01605D03*
Y01644D03*
X01298Y01608D03*
Y01647D03*
X01398Y01586D03*
Y01626D03*
X01025Y01564D03*
Y01525D03*
G54D62*
X00356Y01953D03*
X00267Y0199D03*
Y01915D03*
X00352Y01733D03*
X00263Y0177D03*
Y01695D03*
G54D63*
X01017Y01336D03*
X01056D03*
X01553Y01371D03*
X01592D03*
X01554Y01318D03*
X01593D03*
X00732Y01013D03*
X00772D03*
X00732Y00963D03*
X00771D03*
X01032Y01208D03*
X00993D03*
X01052Y01245D03*
X01013D03*
X01568Y01241D03*
X01607D03*
X01014Y01097D03*
X00975D03*
X01052Y01301D03*
X01013D03*
X01561Y0105D03*
X016D03*
X0158Y0157D03*
X01619D03*
X01553Y01175D03*
X01592D03*
X00682Y01113D03*
X00721D03*
X01058Y01371D03*
X01019D03*
X02361Y00593D03*
X02401D03*
X01951Y00533D03*
X01912D03*
G54D64*
X01881Y01664D03*
Y01651D03*
Y01637D03*
X01921D03*
Y01651D03*
Y01664D03*
X01923Y01909D03*
Y01923D03*
Y01936D03*
X01884D03*
Y01923D03*
Y01909D03*
G54D65*
X02122Y00707D03*
G54D66*
X02031Y00458D03*
X02122D03*
X02212D03*
M02*