%FSTAX23Y23*%
%MOIN*%
%SFA1B1*%

%IPPOS*%
%ADD26R,0.032610X0.023750*%
%ADD27R,0.023750X0.032610*%
%ADD29R,0.027690X0.031620*%
%ADD35R,0.067060X0.067060*%
%ADD36C,0.067060*%
%ADD37R,0.067060X0.067060*%
%ADD38C,0.058000*%
%ADD39C,0.048000*%
%ADD40C,0.032000*%
%ADD68R,0.053280X0.031620*%
%ADD69R,0.031620X0.027690*%
%ADD70R,0.039500X0.013910*%
%ADD71R,0.133980X0.076900*%
%ADD72R,0.045400X0.076900*%
%LNpcb1-1*%
%LPD*%
G54D26*
X02232Y0177D03*
X02265D03*
X02365Y00703D03*
X02398D03*
X02261Y01844D03*
X02229D03*
X01784Y01717D03*
X01817D03*
X02088Y01953D03*
X02055D03*
X02089Y01883D03*
X02057D03*
X01722Y01907D03*
X01755D03*
X0172Y01947D03*
X01753D03*
X02027Y01588D03*
X01994D03*
X02021Y01714D03*
X01988D03*
X02216Y01528D03*
X02249D03*
X02127D03*
X02094D03*
G54D27*
X01798Y01581D03*
Y01548D03*
X02117Y01019D03*
Y00986D03*
X01975Y0102D03*
Y00987D03*
G54D29*
X01311Y00986D03*
Y01025D03*
X01255Y0161D03*
Y01649D03*
X01446Y01011D03*
Y00972D03*
X01543Y01005D03*
Y00966D03*
X01207Y01042D03*
Y01003D03*
X01136Y01605D03*
Y01644D03*
X01298Y01608D03*
Y01647D03*
X01398Y01586D03*
Y01626D03*
X01025Y01564D03*
Y01525D03*
G54D35*
X025Y01401D03*
G54D36*
X02252Y00103D03*
X02152D03*
X02052D03*
X01952D03*
X01852D03*
X01752D03*
X01652D03*
X01552D03*
X01452D03*
X01352D03*
X01252D03*
X01152D03*
X01052D03*
X00952D03*
X00852D03*
X00752D03*
X00652D03*
X00552D03*
X00452D03*
X024Y01401D03*
X025Y01501D03*
X024D03*
X025Y01601D03*
X024D03*
X025Y01701D03*
X024D03*
X025Y01801D03*
X024D03*
X025Y01901D03*
X024D03*
X025Y02001D03*
X024D03*
X00452Y02223D03*
X00552D03*
X00652D03*
X00752D03*
X00852D03*
X00952D03*
X01052D03*
X01152D03*
X01252D03*
X01352D03*
X01452D03*
X01552D03*
X01652D03*
X01752D03*
X01852D03*
X01952D03*
X02052D03*
X02152D03*
X02252D03*
X0045Y02341D03*
X0055D03*
X0065D03*
X0075D03*
X0085D03*
X0095D03*
X0105D03*
X0115D03*
X0125D03*
X0135D03*
X0145D03*
X0155D03*
X0165D03*
X0175D03*
X0185D03*
X0195D03*
X0205D03*
X0215D03*
X0225D03*
X02152Y00223D03*
X02052D03*
X01952D03*
X01852D03*
X01752D03*
X01652D03*
X01552D03*
X01452D03*
X01352D03*
X01252D03*
X01152D03*
X01052D03*
X00952D03*
X00852D03*
X00752D03*
X00652D03*
X00552D03*
X00452D03*
X00352D03*
G54D37*
X00352Y00103D03*
Y02223D03*
X0035Y02341D03*
X02252Y00223D03*
G54D38*
X01412Y0139D03*
X01587Y0163D03*
X00965Y01612D03*
X00963Y01531D03*
X0123Y01818D03*
X01251Y01893D03*
X02221Y0098D03*
X01321Y01252D03*
X01573Y01113D03*
X01842Y00623D03*
X01942D03*
X00162Y01913D03*
X00452Y01953D03*
X02302Y00643D03*
X02462D03*
G54D39*
X00991Y01164D03*
X00964Y01311D03*
X01495Y00956D03*
X00959Y01248D03*
X01125Y01241D03*
X01654Y01326D03*
X01593Y00945D03*
X01811Y0165D03*
X01141Y01148D03*
X01656Y01267D03*
X01263Y00969D03*
X01623Y01519D03*
X00792Y00903D03*
X00947Y01371D03*
X00952Y0143D03*
X01098Y01472D03*
X01085Y01637D03*
X01197Y00955D03*
X01454Y01586D03*
X0135Y01649D03*
X01643Y01171D03*
X00792Y01098D03*
X01641Y01006D03*
X00965Y01044D03*
X01195Y01648D03*
X01346Y01569D03*
X01195Y01574D03*
X00649Y01178D03*
X01024Y01476D03*
X01136Y01001D03*
X01376Y00978D03*
X01549Y01529D03*
X01376Y01061D03*
X01986Y01651D03*
X01824Y01922D03*
X01994Y01921D03*
X02152Y01923D03*
X00652Y01043D03*
X00662Y00893D03*
X00152Y01693D03*
X00471Y01733D03*
G54D40*
X01855Y01094D03*
X01233Y01208D03*
X01445Y01474D03*
X01816Y01767D03*
X01546Y0184D03*
X01658Y01614D03*
X01604Y01449D03*
X01552Y00598D03*
X00402Y01433D03*
X00961Y00807D03*
X00322Y01433D03*
X00482Y01423D03*
X01412Y00673D03*
X00652Y01423D03*
X01577Y01899D03*
X01606Y01837D03*
X00352Y01383D03*
X02027Y01999D03*
X01498Y01452D03*
X01776Y00903D03*
X0146Y01524D03*
X01412Y00777D03*
X0149Y01845D03*
X0146Y01896D03*
X01632Y00673D03*
X006Y01383D03*
X0143Y01788D03*
X01433Y01841D03*
X01519Y01898D03*
X01692Y00673D03*
X00432Y01383D03*
X01552Y00673D03*
X00522Y01383D03*
X00562Y01423D03*
X01754Y01834D03*
X00687Y01383D03*
X01532Y00783D03*
X01482Y00673D03*
X01675Y01922D03*
X02034Y01539D03*
X02071Y01722D03*
X02227Y01471D03*
X00815Y01291D03*
X02014Y01481D03*
X00653Y00794D03*
X02176Y0149D03*
X02112Y01473D03*
X02062Y01093D03*
X01982D03*
G54D68*
X00356Y01953D03*
X00267Y0199D03*
Y01915D03*
X00352Y01733D03*
X00263Y0177D03*
Y01695D03*
G54D69*
X01017Y01336D03*
X01056D03*
X01553Y01371D03*
X01592D03*
X01554Y01318D03*
X01593D03*
X00732Y01013D03*
X00772D03*
X00732Y00963D03*
X00771D03*
X01032Y01208D03*
X00993D03*
X01052Y01245D03*
X01013D03*
X01568Y01241D03*
X01607D03*
X01014Y01097D03*
X00975D03*
X01052Y01301D03*
X01013D03*
X01561Y0105D03*
X016D03*
X0158Y0157D03*
X01619D03*
X01553Y01175D03*
X01592D03*
X00682Y01113D03*
X00721D03*
X01058Y01371D03*
X01019D03*
X02361Y00593D03*
X02401D03*
X01951Y00533D03*
X01912D03*
G54D70*
X01881Y01664D03*
Y01651D03*
Y01637D03*
X01921D03*
Y01651D03*
Y01664D03*
X01923Y01909D03*
Y01923D03*
Y01936D03*
X01884D03*
Y01923D03*
Y01909D03*
G54D71*
X02122Y00707D03*
G54D72*
X02031Y00458D03*
X02122D03*
X02212D03*
M02*